<svg width="42" height="33" viewBox="0 0 42 33" fill="none" xmlns="http://www.w3.org/2000/svg">
<g clip-path="url(#clip0_2247_9812)">
<path d="M7.48605 32.3415V30.2236C7.48605 29.4115 6.99173 28.8822 6.14446 28.8822C5.7209 28.8822 5.26197 29.0233 4.94422 29.4823C4.69722 29.0939 4.34426 28.8822 3.81473 28.8822C3.4616 28.8822 3.1088 28.988 2.82627 29.3763V28.9528H2.08496V32.3415H2.82627V30.4706C2.82627 29.8706 3.14402 29.5881 3.63833 29.5881C4.13232 29.5881 4.37963 29.9058 4.37963 30.4706V32.3415H5.12094V30.4706C5.12094 29.8706 5.47375 29.5881 5.93268 29.5881C6.42699 29.5881 6.67399 29.9058 6.67399 30.4706V32.3415H7.48605ZM18.4643 28.9528H17.2642V27.9291H16.5229V28.9528H15.8522V29.6233H16.5227V31.1767C16.5227 31.9534 16.8405 32.4121 17.6878 32.4121C18.0055 32.4121 18.3583 32.3063 18.6056 32.1651L18.3937 31.5296C18.1819 31.6708 17.9349 31.7062 17.7584 31.7062C17.4054 31.7062 17.2642 31.4944 17.2642 31.1413V29.6233H18.4643V28.9528ZM24.7479 28.882C24.3243 28.882 24.0419 29.0939 23.8654 29.3763V28.9528H23.1241V32.3415H23.8654V30.4354C23.8654 29.8706 24.1124 29.5529 24.5713 29.5529C24.7125 29.5529 24.8891 29.5883 25.0302 29.6235L25.242 28.9175C25.1008 28.8822 24.8891 28.8822 24.7479 28.8822V28.882ZM15.2521 29.2351C14.8989 28.988 14.4048 28.8822 13.8753 28.8822C13.0282 28.8822 12.4634 29.3057 12.4634 29.9764C12.4634 30.5413 12.887 30.8589 13.6283 30.9649L13.9812 31.0003C14.3696 31.0707 14.5814 31.1767 14.5814 31.3532C14.5814 31.6002 14.299 31.7768 13.8047 31.7768C13.3105 31.7768 12.9222 31.6002 12.675 31.4238L12.3221 31.9886C12.7104 32.2709 13.2399 32.4121 13.7693 32.4121C14.7578 32.4121 15.3227 31.9534 15.3227 31.3179C15.3227 30.7177 14.8637 30.4 14.1576 30.2942L13.8047 30.2588C13.4869 30.2234 13.2399 30.153 13.2399 29.9412C13.2399 29.6941 13.4869 29.5529 13.8753 29.5529C14.299 29.5529 14.7225 29.7293 14.9343 29.8352L15.2521 29.2351ZM34.9498 28.8822C34.526 28.8822 34.2437 29.0939 34.0671 29.3763V28.9528H33.3258V32.3415H34.0671V30.4354C34.0671 29.8706 34.3143 29.5529 34.773 29.5529C34.9144 29.5529 35.091 29.5883 35.2321 29.6235L35.4439 28.9175C35.3027 28.8822 35.091 28.8822 34.9498 28.8822ZM25.4892 30.6471C25.4892 31.6708 26.1951 32.4121 27.2895 32.4121C27.7837 32.4121 28.1367 32.3063 28.4896 32.024L28.1367 31.4238C27.8543 31.6356 27.5719 31.7414 27.2542 31.7414C26.654 31.7414 26.2305 31.3179 26.2305 30.6471C26.2305 30.0118 26.654 29.5881 27.2542 29.5529C27.5719 29.5529 27.8543 29.6587 28.1367 29.8706L28.4896 29.2705C28.1367 28.988 27.7837 28.8822 27.2895 28.8822C26.1951 28.8822 25.4892 29.6235 25.4892 30.6471ZM32.3375 30.6471V28.9528H31.5962V29.3763C31.349 29.0587 30.9961 28.8822 30.5371 28.8822C29.5841 28.8822 28.8428 29.6235 28.8428 30.6471C28.8428 31.6708 29.5841 32.4121 30.5371 32.4121C31.0313 32.4121 31.3844 32.2357 31.5962 31.918V32.3415H32.3375V30.6471ZM29.6193 30.6471C29.6193 30.047 30.0076 29.5529 30.643 29.5529C31.2431 29.5529 31.6668 30.0118 31.6668 30.6471C31.6668 31.2473 31.2431 31.7414 30.643 31.7414C30.0076 31.706 29.6193 31.2473 29.6193 30.6471ZM20.759 28.8822C19.7705 28.8822 19.0644 29.5881 19.0644 30.6471C19.0644 31.7062 19.7703 32.4121 20.7942 32.4121C21.2883 32.4121 21.7826 32.2709 22.171 31.9534L21.8179 31.4238C21.5355 31.6356 21.1825 31.7768 20.8296 31.7768C20.3706 31.7768 19.9117 31.565 19.8057 30.9647H22.3122V30.6825C22.3476 29.5881 21.7121 28.8822 20.7588 28.8822H20.759ZM20.759 29.5175C21.2177 29.5175 21.5357 29.8 21.6061 30.3296H19.8411C19.9117 29.8706 20.2294 29.5175 20.759 29.5175ZM39.1504 30.6471V27.6113H38.4091V29.3763C38.162 29.0587 37.809 28.8822 37.3501 28.8822C36.397 28.8822 35.6557 29.6235 35.6557 30.6471C35.6557 31.6708 36.397 32.4121 37.3501 32.4121C37.8444 32.4121 38.1974 32.2357 38.4091 31.918V32.3415H39.1504V30.6471ZM36.4324 30.6471C36.4324 30.047 36.8206 29.5529 37.4561 29.5529C38.0562 29.5529 38.4797 30.0118 38.4797 30.6471C38.4797 31.2473 38.0562 31.7414 37.4561 31.7414C36.8206 31.706 36.4324 31.2473 36.4324 30.6471ZM11.6514 30.6471V28.9528H10.91V29.3763C10.6629 29.0587 10.3099 28.8822 9.85099 28.8822C8.89791 28.8822 8.1566 29.6235 8.1566 30.6471C8.1566 31.6708 8.89791 32.4121 9.85099 32.4121C10.3453 32.4121 10.6983 32.2357 10.91 31.918V32.3415H11.6514V30.6471ZM8.89791 30.6471C8.89791 30.047 9.28625 29.5529 9.92158 29.5529C10.5217 29.5529 10.9454 30.0118 10.9454 30.6471C10.9454 31.2473 10.5217 31.7414 9.92158 31.7414C9.28625 31.706 8.89791 31.2473 8.89791 30.6471Z" fill="#33303E"/>
<path d="M15.0049 3.21875H26.1245V23.1988H15.0049V3.21875Z" fill="#FF5F00"/>
<path d="M15.7107 13.2082C15.7107 9.14868 17.6169 5.54796 20.5468 3.21807C18.3936 1.52368 15.6755 0.5 12.7103 0.5C5.68525 0.5 0.00195312 6.1833 0.00195312 13.2082C0.00195312 20.2329 5.68525 25.9164 12.7101 25.9164C15.6754 25.9164 18.3934 24.8927 20.5468 23.1981C17.6169 20.9036 15.7107 17.2677 15.7107 13.2082Z" fill="#EB001B"/>
<path d="M41.1268 13.2082C41.1268 20.2329 35.4435 25.9164 28.4187 25.9164C25.4534 25.9164 22.7354 24.8927 20.582 23.1981C23.5473 20.8684 25.4182 17.2677 25.4182 13.2082C25.4182 9.14868 23.5119 5.54796 20.582 3.21807C22.7352 1.52368 25.4534 0.5 28.4187 0.5C35.4435 0.5 41.127 6.21867 41.127 13.2082H41.1268Z" fill="#F79E1B"/>
</g>
<defs>
<clipPath id="clip0_2247_9812">
<rect width="41.17" height="32" fill="white" transform="translate(0 0.5)"/>
</clipPath>
</defs>
</svg>
