<svg width="24" height="24" viewBox="0 0 24 24" fill="none" xmlns="http://www.w3.org/2000/svg">
<path d="M6.375 21.75V2.25C3 4.2 0.75 7.8375 0.75 12C0.75 16.1625 3 19.8 6.375 21.75Z" fill="#699635"/>
<path d="M12 0.75C9.9375 0.75 8.025 1.3125 6.375 2.25V21.75C8.025 22.725 9.9375 23.25 12 23.25C18.225 23.25 23.25 18.225 23.25 12C23.25 5.775 18.225 0.75 12 0.75Z" fill="#ED4C5C"/>
<path d="M6.375 7.5C3.9 7.5 1.875 9.525 1.875 12C1.875 14.475 3.9 16.5 6.375 16.5C8.85 16.5 10.875 14.475 10.875 12C10.875 9.525 8.85 7.5 6.375 7.5ZM6.375 15.9375C4.2 15.9375 2.4375 14.175 2.4375 12C2.4375 9.825 4.2 8.0625 6.375 8.0625C8.55 8.0625 10.3125 9.825 10.3125 12C10.3125 14.175 8.55 15.9375 6.375 15.9375Z" fill="#FFE62E"/>
<path d="M7.91255 16.3877C7.83755 16.4627 7.72505 16.4627 7.65005 16.3877L2.51255 9.6002C2.43755 9.5252 2.43755 9.4127 2.51255 9.3377L2.62505 9.2252C2.70005 9.1502 2.81255 9.1502 2.88755 9.2252L8.02505 16.0127C8.10005 16.0877 8.10005 16.2002 8.02505 16.2752L7.91255 16.3877" fill="#FFE62E"/>
<path d="M6.4502 7.3125C6.5627 7.3125 6.6377 7.3875 6.6377 7.5V16.5C6.6377 16.6125 6.5627 16.6875 6.4502 16.6875H6.2627C6.1502 16.6875 6.0752 16.6125 6.0752 16.5V7.5C6.0752 7.3875 6.1502 7.3125 6.2627 7.3125H6.4502Z" fill="#FFE62E"/>
<path d="M10.8375 12.4877L6.375 11.7002V12.2627L10.7625 13.0502C10.875 13.0502 10.95 13.0127 10.9875 12.9002L11.025 12.7127C11.025 12.6377 10.95 12.5252 10.8375 12.4877" fill="#FFE62E"/>
<path d="M6.37521 11.6624L2.85021 9.18737C2.77521 9.11237 2.66271 9.14987 2.58771 9.22487L2.47521 9.37487C2.40021 9.44987 2.43771 9.56237 2.51271 9.63737L6.37521 12.3374V11.6624" fill="#FFE62E"/>
<path d="M6.22505 11.25L2.70005 14.775C2.62505 14.85 2.62505 14.9625 2.70005 15.0375L2.85005 15.1875C2.92505 15.2625 3.03755 15.2625 3.11255 15.1875L6.22505 12.075V11.25Z" fill="#FFE62E"/>
<path d="M6.37511 9.5625L1.68761 11.775C1.61261 11.8125 1.53761 11.925 1.61261 12.0375L1.68761 12.225C1.72511 12.3 1.83761 12.375 1.95011 12.3L6.37511 10.2V9.5625Z" fill="#FFE62E"/>
<path d="M10.5377 10.1996L6.0752 9.41211V9.97461L10.4627 10.7621C10.5752 10.7621 10.6502 10.7246 10.6877 10.6121L10.7252 10.4246C10.6877 10.3121 10.6127 10.1996 10.5377 10.1996" fill="#FFE62E"/>
<path d="M6.33751 14.5873C6.26251 14.6248 6.18751 14.7373 6.26251 14.8498L6.33751 15.0373C6.37501 15.1123 6.48751 15.1873 6.60001 15.1123L10.35 13.3873L10.5375 12.6748L6.33751 14.5873" fill="#FFE62E"/>
<path d="M6.3377 13.3129L2.1377 11.7754V12.3754L6.3377 13.9129V13.3129Z" fill="#FFE62E"/>
<path d="M3.4126 14.5498V15.1123L8.9626 15.4873C9.1876 15.3373 9.3751 15.1498 9.5626 14.9623L3.4126 14.5498Z" fill="#FFE62E"/>
<path d="M4.5 10.125V12.75C4.5 13.8 5.325 14.625 6.375 14.625C7.425 14.625 8.25 13.8 8.25 12.75V10.125H4.5Z" fill="white"/>
<path d="M6.375 15.375C4.9125 15.375 3.75 14.2125 3.75 12.75V9.375H9V12.75C9 14.2125 7.8375 15.375 6.375 15.375ZM5.25 10.875V12.75C5.25 13.3875 5.7375 13.875 6.375 13.875C7.0125 13.875 7.5 13.3875 7.5 12.75V10.875H5.25Z" fill="#ED4C5C"/>
<path d="M6.0376 11.0248V11.6248C6.0376 11.7373 6.1126 11.8123 6.2251 11.8123H6.5251C6.6376 11.8123 6.7126 11.7373 6.7126 11.6248V10.9873H6.0376V11.0248Z" fill="#0071BC"/>
<path d="M6.0376 11.9619V12.5994C6.0376 12.7119 6.1126 12.7869 6.2251 12.7869H6.5251C6.6376 12.7869 6.7126 12.7119 6.7126 12.5994V11.9619H6.0376" fill="#0071BC"/>
<path d="M5.2876 11.9619V12.5994C5.2876 12.7119 5.3626 12.7869 5.4751 12.7869H5.7751C5.8876 12.7869 5.9626 12.7119 5.9626 12.5994V11.9619H5.2876" fill="#0071BC"/>
<path d="M6.7876 11.9619V12.5994C6.7876 12.7119 6.8626 12.7869 6.9751 12.7869H7.2751C7.3876 12.7869 7.4626 12.7119 7.4626 12.5994V11.9619H6.7876" fill="#0071BC"/>
<path d="M6.0376 12.8623V13.4998C6.0376 13.6123 6.1126 13.6873 6.2251 13.6873H6.5251C6.6376 13.6873 6.7126 13.6123 6.7126 13.4998V12.8623H6.0376Z" fill="#0071BC"/>
<path d="M6.3748 12.4127C6.41623 12.4127 6.44981 12.3791 6.44981 12.3377C6.44981 12.2963 6.41623 12.2627 6.3748 12.2627C6.33338 12.2627 6.2998 12.2963 6.2998 12.3377C6.2998 12.3791 6.33338 12.4127 6.3748 12.4127Z" fill="white"/>
<path d="M6.2249 12.6002C6.26632 12.6002 6.2999 12.5666 6.2999 12.5252C6.2999 12.4838 6.26632 12.4502 6.2249 12.4502C6.18348 12.4502 6.1499 12.4838 6.1499 12.5252C6.1499 12.5666 6.18348 12.6002 6.2249 12.6002Z" fill="white"/>
<path d="M6.52495 12.6002C6.56637 12.6002 6.59995 12.5666 6.59995 12.5252C6.59995 12.4838 6.56637 12.4502 6.52495 12.4502C6.48353 12.4502 6.44995 12.4838 6.44995 12.5252C6.44995 12.5666 6.48353 12.6002 6.52495 12.6002Z" fill="white"/>
<path d="M6.2249 12.2252C6.26632 12.2252 6.2999 12.1916 6.2999 12.1502C6.2999 12.1088 6.26632 12.0752 6.2249 12.0752C6.18348 12.0752 6.1499 12.1088 6.1499 12.1502C6.1499 12.1916 6.18348 12.2252 6.2249 12.2252Z" fill="white"/>
<path d="M6.52495 12.2252C6.56637 12.2252 6.59995 12.1916 6.59995 12.1502C6.59995 12.1088 6.56637 12.0752 6.52495 12.0752C6.48353 12.0752 6.44995 12.1088 6.44995 12.1502C6.44995 12.1916 6.48353 12.2252 6.52495 12.2252Z" fill="white"/>
<path d="M6.3748 11.4752C6.41623 11.4752 6.44981 11.4416 6.44981 11.4002C6.44981 11.3588 6.41623 11.3252 6.3748 11.3252C6.33338 11.3252 6.2998 11.3588 6.2998 11.4002C6.2998 11.4416 6.33338 11.4752 6.3748 11.4752Z" fill="white"/>
<path d="M6.2249 11.6627C6.26632 11.6627 6.2999 11.6291 6.2999 11.5877C6.2999 11.5463 6.26632 11.5127 6.2249 11.5127C6.18348 11.5127 6.1499 11.5463 6.1499 11.5877C6.1499 11.6291 6.18348 11.6627 6.2249 11.6627Z" fill="white"/>
<path d="M6.52495 11.6627C6.56637 11.6627 6.59995 11.6291 6.59995 11.5877C6.59995 11.5463 6.56637 11.5127 6.52495 11.5127C6.48353 11.5127 6.44995 11.5463 6.44995 11.5877C6.44995 11.6291 6.48353 11.6627 6.52495 11.6627Z" fill="white"/>
<path d="M6.2249 11.2877C6.26632 11.2877 6.2999 11.2541 6.2999 11.2127C6.2999 11.1713 6.26632 11.1377 6.2249 11.1377C6.18348 11.1377 6.1499 11.1713 6.1499 11.2127C6.1499 11.2541 6.18348 11.2877 6.2249 11.2877Z" fill="white"/>
<path d="M6.52495 11.2877C6.56637 11.2877 6.59995 11.2541 6.59995 11.2127C6.59995 11.1713 6.56637 11.1377 6.52495 11.1377C6.48353 11.1377 6.44995 11.1713 6.44995 11.2127C6.44995 11.2541 6.48353 11.2877 6.52495 11.2877Z" fill="white"/>
<path d="M7.1248 12.4127C7.16623 12.4127 7.19981 12.3791 7.19981 12.3377C7.19981 12.2963 7.16623 12.2627 7.1248 12.2627C7.08338 12.2627 7.0498 12.2963 7.0498 12.3377C7.0498 12.3791 7.08338 12.4127 7.1248 12.4127Z" fill="white"/>
<path d="M6.9749 12.6002C7.01632 12.6002 7.0499 12.5666 7.0499 12.5252C7.0499 12.4838 7.01632 12.4502 6.9749 12.4502C6.93348 12.4502 6.8999 12.4838 6.8999 12.5252C6.8999 12.5666 6.93348 12.6002 6.9749 12.6002Z" fill="white"/>
<path d="M7.27495 12.6002C7.31637 12.6002 7.34995 12.5666 7.34995 12.5252C7.34995 12.4838 7.31637 12.4502 7.27495 12.4502C7.23353 12.4502 7.19995 12.4838 7.19995 12.5252C7.19995 12.5666 7.23353 12.6002 7.27495 12.6002Z" fill="white"/>
<path d="M6.9749 12.2252C7.01632 12.2252 7.0499 12.1916 7.0499 12.1502C7.0499 12.1088 7.01632 12.0752 6.9749 12.0752C6.93348 12.0752 6.8999 12.1088 6.8999 12.1502C6.8999 12.1916 6.93348 12.2252 6.9749 12.2252Z" fill="white"/>
<path d="M7.27495 12.2252C7.31637 12.2252 7.34995 12.1916 7.34995 12.1502C7.34995 12.1088 7.31637 12.0752 7.27495 12.0752C7.23353 12.0752 7.19995 12.1088 7.19995 12.1502C7.19995 12.1916 7.23353 12.2252 7.27495 12.2252Z" fill="white"/>
<path d="M5.6248 12.4127C5.66623 12.4127 5.6998 12.3791 5.6998 12.3377C5.6998 12.2963 5.66623 12.2627 5.6248 12.2627C5.58338 12.2627 5.5498 12.2963 5.5498 12.3377C5.5498 12.3791 5.58338 12.4127 5.6248 12.4127Z" fill="white"/>
<path d="M5.4749 12.6002C5.51632 12.6002 5.5499 12.5666 5.5499 12.5252C5.5499 12.4838 5.51632 12.4502 5.4749 12.4502C5.43348 12.4502 5.3999 12.4838 5.3999 12.5252C5.3999 12.5666 5.43348 12.6002 5.4749 12.6002Z" fill="white"/>
<path d="M5.77495 12.6002C5.81637 12.6002 5.84995 12.5666 5.84995 12.5252C5.84995 12.4838 5.81637 12.4502 5.77495 12.4502C5.73353 12.4502 5.69995 12.4838 5.69995 12.5252C5.69995 12.5666 5.73353 12.6002 5.77495 12.6002Z" fill="white"/>
<path d="M5.4749 12.2252C5.51632 12.2252 5.5499 12.1916 5.5499 12.1502C5.5499 12.1088 5.51632 12.0752 5.4749 12.0752C5.43348 12.0752 5.3999 12.1088 5.3999 12.1502C5.3999 12.1916 5.43348 12.2252 5.4749 12.2252Z" fill="white"/>
<path d="M5.77495 12.2252C5.81637 12.2252 5.84995 12.1916 5.84995 12.1502C5.84995 12.1088 5.81637 12.0752 5.77495 12.0752C5.73353 12.0752 5.69995 12.1088 5.69995 12.1502C5.69995 12.1916 5.73353 12.2252 5.77495 12.2252Z" fill="white"/>
<path d="M6.3748 13.3502C6.41623 13.3502 6.44981 13.3166 6.44981 13.2752C6.44981 13.2338 6.41623 13.2002 6.3748 13.2002C6.33338 13.2002 6.2998 13.2338 6.2998 13.2752C6.2998 13.3166 6.33338 13.3502 6.3748 13.3502Z" fill="white"/>
<path d="M6.2249 13.5377C6.26632 13.5377 6.2999 13.5041 6.2999 13.4627C6.2999 13.4213 6.26632 13.3877 6.2249 13.3877C6.18348 13.3877 6.1499 13.4213 6.1499 13.4627C6.1499 13.5041 6.18348 13.5377 6.2249 13.5377Z" fill="white"/>
<path d="M6.52495 13.5377C6.56637 13.5377 6.59995 13.5041 6.59995 13.4627C6.59995 13.4213 6.56637 13.3877 6.52495 13.3877C6.48353 13.3877 6.44995 13.4213 6.44995 13.4627C6.44995 13.5041 6.48353 13.5377 6.52495 13.5377Z" fill="white"/>
<path d="M6.2249 13.1627C6.26632 13.1627 6.2999 13.1291 6.2999 13.0877C6.2999 13.0463 6.26632 13.0127 6.2249 13.0127C6.18348 13.0127 6.1499 13.0463 6.1499 13.0877C6.1499 13.1291 6.18348 13.1627 6.2249 13.1627Z" fill="white"/>
<path d="M6.52495 13.1627C6.56637 13.1627 6.59995 13.1291 6.59995 13.0877C6.59995 13.0463 6.56637 13.0127 6.52495 13.0127C6.48353 13.0127 6.44995 13.0463 6.44995 13.0877C6.44995 13.1291 6.48353 13.1627 6.52495 13.1627Z" fill="white"/>
<path d="M6 10.5H6.75L6.675 10.125V9.75H6.75V9.5625H6.6375V9.675H6.6V9.5625H6.4875V9.675H6.4125V9.5625H6.3375V9.675H6.2625V9.5625H6.15V9.675H6.075V9.5625H6V9.75H6.075V10.125L6 10.5Z" fill="#FFE62E"/>
<path d="M6.48745 10.4998H6.44995V10.3498C6.44995 10.3123 6.41245 10.2748 6.37495 10.2748C6.33745 10.2748 6.29995 10.3123 6.29995 10.3498V10.4998H6.26245V10.3498C6.26245 10.2748 6.29995 10.2373 6.37495 10.2373C6.44995 10.2373 6.48745 10.2748 6.48745 10.3498V10.4998Z" fill="#33303E"/>
<path d="M6.3749 10.0871H6.1499V9.89961C6.1499 9.82461 6.1874 9.78711 6.2624 9.78711C6.3374 9.78711 6.3749 9.82461 6.3749 9.89961V10.0871ZM6.1874 10.0496H6.3374V9.89961C6.3374 9.86211 6.2999 9.82461 6.2624 9.82461C6.2249 9.82461 6.1874 9.86211 6.1874 9.89961V10.0496Z" fill="#33303E"/>
<path d="M6.6 10.0871H6.375V9.89961C6.375 9.82461 6.4125 9.78711 6.4875 9.78711C6.5625 9.78711 6.6 9.82461 6.6 9.89961V10.0871ZM6.4125 10.0496H6.5625V9.89961C6.5625 9.86211 6.525 9.82461 6.4875 9.82461C6.45 9.82461 6.4125 9.86211 6.4125 9.89961V10.0496Z" fill="#33303E"/>
<path d="M4.125 10.5H4.875L4.8 10.125V9.75H4.875V9.5625H4.7625V9.675H4.725V9.5625H4.6125V9.675H4.5375V9.5625H4.4625V9.675H4.3875V9.5625H4.275V9.675H4.2V9.5625H4.125V9.75H4.2V10.125L4.125 10.5Z" fill="#FFE62E"/>
<path d="M4.61245 10.4998H4.57495V10.3498C4.57495 10.3123 4.53745 10.2748 4.49995 10.2748C4.46245 10.2748 4.42495 10.3123 4.42495 10.3498V10.4998H4.38745V10.3498C4.38745 10.2748 4.42495 10.2373 4.49995 10.2373C4.57495 10.2373 4.61245 10.2748 4.61245 10.3498V10.4998" fill="#33303E"/>
<path d="M4.4999 10.0871H4.2749V9.89961C4.2749 9.82461 4.3124 9.78711 4.3874 9.78711C4.4624 9.78711 4.4999 9.82461 4.4999 9.89961V10.0871V10.0871ZM4.3124 10.0496H4.4624V9.89961C4.4624 9.86211 4.4249 9.82461 4.3874 9.82461C4.3499 9.82461 4.3124 9.86211 4.3124 9.89961V10.0496" fill="#33303E"/>
<path d="M4.725 10.0871H4.5V9.89961C4.5 9.82461 4.5375 9.78711 4.6125 9.78711C4.6875 9.78711 4.725 9.82461 4.725 9.89961V10.0871V10.0871ZM4.5375 10.0496H4.6875V9.89961C4.6875 9.86211 4.65 9.82461 4.6125 9.82461C4.575 9.82461 4.5375 9.86211 4.5375 9.89961V10.0496" fill="#33303E"/>
<path d="M4.125 12.7129H4.875L4.8 12.3379V11.9629H4.875V11.7754H4.8V11.8879H4.725V11.7754H4.65V11.8879H4.5375V11.7754H4.4625V11.8879H4.3875V11.7754H4.3125V11.8879H4.2375V11.7754H4.125V11.9629H4.2375V12.3379L4.125 12.7129Z" fill="#FFE62E"/>
<path d="M4.61245 12.7127H4.57495V12.5627C4.57495 12.5252 4.53745 12.4877 4.49995 12.4877C4.46245 12.4877 4.42495 12.5252 4.42495 12.5627V12.7127H4.38745V12.5627C4.38745 12.4877 4.42495 12.4502 4.49995 12.4502C4.57495 12.4502 4.61245 12.4877 4.61245 12.5627V12.7127" fill="#33303E"/>
<path d="M4.4999 12.3H4.2749V12.1125C4.2749 12.0375 4.3124 12 4.3874 12C4.4624 12 4.4999 12.0375 4.4999 12.1125V12.3V12.3ZM4.3124 12.2625H4.4624V12.1125C4.4624 12.075 4.4249 12.0375 4.3874 12.0375C4.3499 12.0375 4.3124 12.075 4.3124 12.1125V12.2625" fill="#33303E"/>
<path d="M4.76235 12.3H4.53735V12.1125C4.53735 12.0375 4.57485 12 4.64985 12C4.72485 12 4.76235 12.0375 4.76235 12.1125V12.3V12.3ZM4.57485 12.2625H4.72485V12.1125C4.72485 12.075 4.68735 12.0375 4.64985 12.0375C4.61235 12.0375 4.57485 12.075 4.57485 12.1125V12.2625" fill="#33303E"/>
<path d="M7.875 12.7496H8.625L8.55 12.3746V11.9996H8.625V11.8496H8.5125V11.9246H8.475V11.8496H8.3625V11.9246H8.2875V11.8496H8.2125V11.9246H8.1375V11.8496H8.025V11.9246H7.95V11.8496H7.875V11.9996H7.95V12.3746L7.875 12.7496Z" fill="#FFE62E"/>
<path d="M8.36245 12.7498H8.32495V12.5998C8.32495 12.5623 8.28745 12.5248 8.24995 12.5248C8.21245 12.5248 8.17495 12.5623 8.17495 12.5998V12.7498H8.13745V12.5998C8.13745 12.5248 8.17495 12.4873 8.24995 12.4873C8.32495 12.4873 8.36245 12.5248 8.36245 12.5998V12.7498Z" fill="#33303E"/>
<path d="M8.2499 12.3371H8.0249V12.1496C8.0249 12.0746 8.0624 12.0371 8.1374 12.0371C8.2124 12.0371 8.2499 12.0746 8.2499 12.1496V12.3371ZM8.0624 12.2996H8.2124V12.1496C8.2124 12.1121 8.1749 12.0746 8.1374 12.0746C8.0999 12.0746 8.0624 12.1121 8.0624 12.1496V12.2996Z" fill="#33303E"/>
<path d="M8.475 12.3371H8.25V12.1496C8.25 12.0746 8.2875 12.0371 8.3625 12.0371C8.4375 12.0371 8.475 12.0746 8.475 12.1496V12.3371ZM8.2875 12.2996H8.4375V12.1496C8.4375 12.1121 8.4 12.0746 8.3625 12.0746C8.325 12.0746 8.2875 12.1121 8.2875 12.1496V12.2996Z" fill="#33303E"/>
<path d="M7.875 10.5H8.625L8.55 10.125V9.75H8.625V9.5625H8.5125V9.675H8.475V9.5625H8.3625V9.675H8.2875V9.5625H8.2125V9.675H8.1375V9.5625H8.025V9.675H7.95V9.5625H7.875V9.75H7.95V10.125L7.875 10.5Z" fill="#FFE62E"/>
<path d="M8.36245 10.4998H8.32495V10.3498C8.32495 10.3123 8.28745 10.2748 8.24995 10.2748C8.21245 10.2748 8.17495 10.3123 8.17495 10.3498V10.4998H8.13745V10.3498C8.13745 10.2748 8.17495 10.2373 8.24995 10.2373C8.32495 10.2373 8.36245 10.2748 8.36245 10.3498V10.4998Z" fill="#33303E"/>
<path d="M8.2499 10.0871H8.0249V9.89961C8.0249 9.82461 8.0624 9.78711 8.1374 9.78711C8.2124 9.78711 8.2499 9.82461 8.2499 9.89961V10.0871ZM8.0624 10.0496H8.2124V9.89961C8.2124 9.86211 8.1749 9.82461 8.1374 9.82461C8.0999 9.82461 8.0624 9.86211 8.0624 9.89961V10.0496Z" fill="#33303E"/>
<path d="M8.475 10.0871H8.25V9.89961C8.25 9.82461 8.2875 9.78711 8.3625 9.78711C8.4375 9.78711 8.475 9.82461 8.475 9.89961V10.0871ZM8.2875 10.0496H8.4375V9.89961C8.4375 9.86211 8.4 9.82461 8.3625 9.82461C8.325 9.82461 8.2875 9.86211 8.2875 9.89961V10.0496Z" fill="#33303E"/>
<path d="M5.325 14.8504L5.85 14.2879L5.5125 14.1004L5.25 13.8379L5.325 13.7629L5.2125 13.6504L5.1375 13.7254L5.2125 13.8004L5.175 13.8379L5.1 13.7629L5.025 13.8379L5.1 13.8754L5.025 13.9504L4.9875 13.8754L4.9125 13.9504L4.9875 14.0254L4.9125 14.0629L4.875 13.9879L4.8 14.0629L4.8375 14.1379L4.8 14.1754L4.7625 14.1004L4.6875 14.1754L4.8 14.2879H4.8375L4.875 14.2504L5.1375 14.5129L5.325 14.8504Z" fill="#FFE62E"/>
<path d="M5.66235 14.4742L5.51235 14.3992C5.47485 14.3617 5.43735 14.3617 5.39985 14.3992C5.36235 14.4367 5.36235 14.4742 5.39985 14.5117L5.51235 14.6242L5.47485 14.6617L5.36235 14.5492C5.32485 14.5117 5.32485 14.4367 5.36235 14.3992C5.39985 14.3617 5.47485 14.3617 5.51235 14.3992L5.66235 14.4742Z" fill="#33303E"/>
<path d="M5.28745 14.2871L5.13745 14.4371L5.02495 14.3246C4.98745 14.2871 4.98745 14.2121 5.02495 14.1746C5.06245 14.1371 5.13745 14.1371 5.17495 14.1746L5.28745 14.2871ZM5.13745 14.3996L5.24995 14.2871L5.13745 14.1746C5.09995 14.1371 5.06245 14.1371 5.02495 14.1746C4.98745 14.2121 4.98745 14.2496 5.02495 14.2871L5.13745 14.3996Z" fill="#33303E"/>
<path d="M5.47495 14.0996L5.32495 14.2496L5.21245 14.1371C5.17495 14.0996 5.17495 14.0246 5.21245 13.9871C5.24995 13.9496 5.32495 13.9496 5.36245 13.9871L5.47495 14.0996ZM5.32495 14.2121L5.43745 14.0996L5.32495 13.9871C5.28745 13.9496 5.24995 13.9496 5.21245 13.9871C5.17495 14.0246 5.17495 14.0621 5.21245 14.0996L5.32495 14.2121Z" fill="#33303E"/>
<path d="M7.4249 14.8504L6.8999 14.2879L7.1999 14.1004L7.4624 13.8379L7.4249 13.7629L7.5374 13.6504L7.6124 13.7254L7.5374 13.8004L7.5749 13.8379L7.6499 13.7629L7.7249 13.8379L7.6499 13.8754L7.7249 13.9504L7.7624 13.8754L7.8374 13.9504L7.7624 14.0254L7.8374 14.0629L7.8749 13.9879L7.9499 14.0629L7.8749 14.1379L7.9499 14.1754L7.9874 14.1004L8.0624 14.1754L7.9499 14.2879H7.9124L7.8749 14.2504L7.6124 14.5129L7.4249 14.8504Z" fill="#FFE62E"/>
<path d="M7.0874 14.4742L7.2374 14.3992C7.2749 14.3617 7.3124 14.3617 7.3499 14.3992C7.3874 14.4367 7.3874 14.4742 7.3499 14.5117L7.1999 14.6242L7.2374 14.6617L7.3499 14.5492C7.3874 14.5117 7.3874 14.4367 7.3499 14.3992C7.3124 14.3617 7.2374 14.3617 7.1999 14.3992L7.0874 14.4742" fill="#33303E"/>
<path d="M7.5749 14.1746C7.6124 14.1371 7.6874 14.1371 7.7249 14.1746C7.7624 14.2121 7.7624 14.2871 7.7249 14.3246L7.6124 14.4371L7.4624 14.2871L7.5749 14.1746ZM7.6874 14.2871C7.7249 14.2496 7.7249 14.2121 7.6874 14.1746C7.6499 14.1371 7.6124 14.1371 7.5749 14.1746L7.4999 14.2871L7.6124 14.3996L7.6874 14.2871Z" fill="#33303E"/>
<path d="M7.3874 13.9871C7.4249 13.9496 7.4999 13.9496 7.5374 13.9871C7.5749 14.0246 7.5749 14.0996 7.5374 14.1371L7.4249 14.2496L7.2749 14.0996L7.3874 13.9871ZM7.5374 14.0996C7.5749 14.0621 7.5749 14.0246 7.5374 13.9871C7.4999 13.9496 7.4624 13.9496 7.4249 13.9871L7.3124 14.0996L7.4249 14.2121L7.5374 14.0996Z" fill="#33303E"/>
</svg>
