<svg width="48" height="48" viewBox="0 0 48 48" fill="none" xmlns="http://www.w3.org/2000/svg">
<path d="M4.00049 15.9998C4.00049 14.4085 4.63263 12.8823 5.75785 11.7571C6.88307 10.6319 8.40919 9.99976 10.0005 9.99976H22.0005C23.5918 9.99976 25.1179 10.6319 26.2431 11.7571C27.3683 12.8823 28.0005 14.4085 28.0005 15.9998V31.9998C28.0005 32.5302 27.7898 33.0389 27.4147 33.414C27.0396 33.789 26.5309 33.9998 26.0005 33.9998H18.0005C17.4701 33.9998 16.9613 33.789 16.5863 33.414C16.2112 33.0389 16.0005 32.5302 16.0005 31.9998C16.0005 31.4693 16.2112 30.9606 16.5863 30.5855C16.9613 30.2105 17.4701 29.9998 18.0005 29.9998H24.0005V15.9998C24.0005 15.4693 23.7898 14.9606 23.4147 14.5855C23.0396 14.2105 22.5309 13.9998 22.0005 13.9998H10.0005C9.47005 13.9998 8.96135 14.2105 8.58627 14.5855C8.2112 14.9606 8.00049 15.4693 8.00049 15.9998V27.9998C8.00049 28.5302 8.2112 29.0389 8.58627 29.414C8.96135 29.789 9.47005 29.9998 10.0005 29.9998V33.9998C8.40919 33.9998 6.88307 33.3676 5.75785 32.2424C4.63263 31.1172 4.00049 29.5911 4.00049 27.9998V15.9998Z" fill="#7E1A44"/>
<path d="M24.001 17.9998C24.001 17.4693 24.2117 16.9606 24.5868 16.5855C24.9618 16.2105 25.4705 15.9998 26.001 15.9998H34.001C34.5314 15.9999 35.04 16.2107 35.415 16.5858L42.243 23.4138C43.3683 24.5387 44.0006 26.0646 44.001 27.6558V27.9998C44.001 29.5911 43.3688 31.1172 42.2436 32.2424C41.1184 33.3676 39.5923 33.9998 38.001 33.9998V29.9998C38.5314 29.9998 39.0401 29.789 39.4152 29.414C39.7903 29.0389 40.001 28.5302 40.001 27.9998V27.6558C40.0009 27.1254 39.7901 26.6167 39.415 26.2418L33.173 19.9998H28.001V29.9998H30.001C30.5314 29.9998 31.0401 30.2105 31.4152 30.5855C31.7903 30.9606 32.001 31.4693 32.001 31.9998C32.001 32.5302 31.7903 33.0389 31.4152 33.414C31.0401 33.789 30.5314 33.9998 30.001 33.9998H26.001C25.4705 33.9998 24.9618 33.789 24.5868 33.414C24.2117 33.0389 24.001 32.5302 24.001 31.9998V17.9998ZM14.001 29.9998C13.4705 29.9998 12.9618 30.2105 12.5868 30.5855C12.2117 30.9606 12.001 31.4693 12.001 31.9998C12.001 32.5302 12.2117 33.0389 12.5868 33.414C12.9618 33.789 13.4705 33.9998 14.001 33.9998C14.5314 33.9998 15.0401 33.789 15.4152 33.414C15.7903 33.0389 16.001 32.5302 16.001 31.9998C16.001 31.4693 15.7903 30.9606 15.4152 30.5855C15.0401 30.2105 14.5314 29.9998 14.001 29.9998ZM8.00098 31.9998C8.00098 31.2118 8.15617 30.4316 8.4577 29.7037C8.75923 28.9757 9.20118 28.3143 9.75834 27.7571C10.3155 27.2 10.9769 26.758 11.7049 26.4565C12.4328 26.1549 13.213 25.9998 14.001 25.9998C14.7889 25.9998 15.5691 26.1549 16.2971 26.4565C17.025 26.758 17.6865 27.2 18.2436 27.7571C18.8008 28.3143 19.2427 28.9757 19.5443 29.7037C19.8458 30.4316 20.001 31.2118 20.001 31.9998C20.001 33.5911 19.3688 35.1172 18.2436 36.2424C17.1184 37.3676 15.5923 37.9998 14.001 37.9998C12.4097 37.9998 10.8836 37.3676 9.75834 36.2424C8.63312 35.1172 8.00098 33.5911 8.00098 31.9998Z" fill="#7E1A44"/>
<path d="M34.0005 29.9995C33.4701 29.9995 32.9613 30.2102 32.5863 30.5853C32.2112 30.9604 32.0005 31.4691 32.0005 31.9995C32.0005 32.5299 32.2112 33.0387 32.5863 33.4137C32.9613 33.7888 33.4701 33.9995 34.0005 33.9995C34.5309 33.9995 35.0396 33.7888 35.4147 33.4137C35.7898 33.0387 36.0005 32.5299 36.0005 31.9995C36.0005 31.4691 35.7898 30.9604 35.4147 30.5853C35.0396 30.2102 34.5309 29.9995 34.0005 29.9995ZM28.0005 31.9995C28.0005 30.4082 28.6326 28.8821 29.7578 27.7569C30.8831 26.6317 32.4092 25.9995 34.0005 25.9995C35.5918 25.9995 37.1179 26.6317 38.2431 27.7569C39.3683 28.8821 40.0005 30.4082 40.0005 31.9995C40.0005 33.5908 39.3683 35.1169 38.2431 36.2422C37.1179 37.3674 35.5918 37.9995 34.0005 37.9995C32.4092 37.9995 30.8831 37.3674 29.7578 36.2422C28.6326 35.1169 28.0005 33.5908 28.0005 31.9995Z" fill="#7E1A44"/>
</svg>
