<svg width="48" height="48" viewBox="0 0 48 48" fill="none" xmlns="http://www.w3.org/2000/svg">
<rect x="8" y="11" width="32" height="6" rx="1.5" fill="#7F0E3D"/>
<path opacity="0.3" fill-rule="evenodd" clip-rule="evenodd" d="M9.5 21C8.67157 21 8 21.6716 8 22.5V25.5C8 26.3284 8.67157 27 9.5 27H38.5C39.3284 27 40 26.3284 40 25.5V22.5C40 21.6716 39.3284 21 38.5 21H9.5ZM9.5 31C8.67157 31 8 31.6716 8 32.5V35.5C8 36.3284 8.67157 37 9.5 37H38.5C39.3284 37 40 36.3284 40 35.5V32.5C40 31.6716 39.3284 31 38.5 31H9.5Z" fill="#7F0E3D"/>
</svg>
