<svg width="14" height="14" viewBox="0 0 14 14" fill="none" xmlns="http://www.w3.org/2000/svg">
<path d="M10.686 3.31828C10.3178 2.95001 9.72075 2.94978 9.35219 3.31777L3.35885 9.30191C2.98735 9.67284 2.98712 10.2748 3.35834 10.646V10.646C3.72955 11.0172 4.33149 11.017 4.70242 10.6455L10.6866 4.65212C11.0545 4.28357 11.0543 3.68655 10.686 3.31828V3.31828Z" fill="white"/>
<path fill-rule="evenodd" clip-rule="evenodd" d="M4.0427 5.74967C4.98589 5.74967 5.75016 4.9856 5.75016 4.04134C5.75016 3.09708 4.98589 2.33301 4.0427 2.33301C3.09951 2.33301 2.3335 3.09708 2.3335 4.04134C2.3335 4.9856 3.09951 5.74967 4.0427 5.74967ZM9.95944 11.666C10.9026 11.666 11.6669 10.9019 11.6669 9.95768C11.6669 9.01168 10.9026 8.24934 9.95944 8.24934C9.01625 8.24934 8.25024 9.01168 8.25024 9.95768C8.25024 10.9019 9.01625 11.666 9.95944 11.666Z" fill="white"/>
</svg>
