<svg width="33" height="32" viewBox="0 0 33 32" fill="none" xmlns="http://www.w3.org/2000/svg">
<g clip-path="url(#clip0_1633:14781)">
<path d="M26.2069 14.6277C26.2069 14.6277 26.6289 16.6947 26.7239 17.1277H24.8689L25.7579 14.7107C25.7469 14.7277 25.9409 14.2047 26.0519 13.8827L26.2069 14.6277ZM32.0899 6.22169V25.7777C32.0896 26.4849 31.8085 27.1631 31.3084 27.6632C30.8083 28.1634 30.1301 28.4444 29.4229 28.4447H2.75587C2.04862 28.4444 1.37041 28.1634 0.870306 27.6632C0.370204 27.1631 0.0891322 26.4849 0.0888672 25.7777V6.22169C0.0891322 5.51444 0.370204 4.83623 0.870306 4.33613C1.37041 3.83602 2.04862 3.55495 2.75587 3.55469H29.4229C30.1301 3.55495 30.8083 3.83602 31.3084 4.33613C31.8085 4.83623 32.0896 5.51444 32.0899 6.22169ZM8.56187 20.1777L12.0729 11.5557H9.71187L7.52887 17.4447L7.28987 16.2507L6.51187 12.2837C6.38387 11.7337 5.98987 11.5777 5.50087 11.5557H1.90687L1.86787 11.7277C2.69094 11.9296 3.48046 12.2496 4.21187 12.6777L6.20087 20.1777H8.56187ZM13.8069 20.1887L15.2069 11.5557H12.9739L11.5799 20.1887H13.8069ZM21.5789 17.3667C21.5899 16.3837 20.9899 15.6337 19.7069 15.0167C18.9239 14.6217 18.4459 14.3557 18.4459 13.9497C18.4569 13.5827 18.8519 13.2047 19.7289 13.2047C20.3001 13.1886 20.8677 13.3007 21.3899 13.5327L21.5899 13.6267L21.8959 11.7597C21.2575 11.5153 20.5794 11.3909 19.8959 11.3927C17.6899 11.3927 16.1399 12.5707 16.1289 14.2477C16.1119 15.4867 17.2399 16.1757 18.0849 16.5917C18.9459 17.0137 19.2409 17.2917 19.2409 17.6637C19.2299 18.2417 18.5409 18.5077 17.9019 18.5077C17.0129 18.5077 16.5349 18.3687 15.8069 18.0467L15.5129 17.9077L15.2019 19.8467C15.7239 20.0857 16.6909 20.2967 17.6909 20.3077C20.0349 20.3127 21.5629 19.1517 21.5799 17.3637L21.5789 17.3667ZM29.4229 20.1887L27.6229 11.5557H25.8949C25.3619 11.5557 24.9559 11.7117 24.7279 12.2727L21.4109 20.1897H23.7549C23.7549 20.1897 24.1379 19.1227 24.2219 18.8957H27.0889C27.1559 19.2017 27.3559 20.1897 27.3559 20.1897L29.4229 20.1887Z" fill="white"/>
</g>
<defs>
<clipPath id="clip0_1633:14781">
<rect width="32" height="32" fill="white" transform="translate(0.0898438)"/>
</clipPath>
</defs>
</svg>
