<svg width="36" height="36" viewBox="0 0 36 36" fill="none" xmlns="http://www.w3.org/2000/svg">
<g clip-path="url(#clip0_2168:15046)">
<path fill-rule="evenodd" clip-rule="evenodd" d="M7.18956 33.2539C7.13954 33.2539 7.09014 33.2649 7.04483 33.286C6.99972 33.3071 6.95976 33.3378 6.92774 33.3759C6.92759 33.376 6.92744 33.3762 6.92729 33.3764L5.51279 35.0729C5.26951 35.3636 4.96544 35.5974 4.622 35.7578C4.27856 35.9182 3.90412 36.0014 3.52506 36.0014C3.146 36.0014 2.77156 35.9182 2.42812 35.7578C2.08469 35.5974 1.78061 35.3636 1.53733 35.0729C1.52617 35.0596 1.51532 35.046 1.5048 35.0321L0.229795 33.3566C-0.146458 32.8622 -0.0506487 32.1564 0.443792 31.7801C0.938234 31.4039 1.64407 31.4997 2.02033 31.9941L3.27402 33.6416C3.30406 33.6741 3.34015 33.7005 3.38033 33.7192C3.42564 33.7404 3.47505 33.7514 3.52506 33.7514C3.57507 33.7514 3.62448 33.7404 3.6698 33.7192C3.71492 33.6981 3.75489 33.6675 3.78692 33.6293C3.78705 33.6292 3.78719 33.629 3.78733 33.6289L5.20183 31.9324C5.44511 31.6417 5.74919 31.4079 6.09262 31.2475C6.43607 31.087 6.81051 31.0039 7.18956 31.0039C7.56861 31.0039 7.94306 31.087 8.2865 31.2475C8.62994 31.4079 8.93401 31.6417 9.17729 31.9324L10.5948 33.6289C10.5948 33.6289 10.5948 33.6288 10.5948 33.6289C10.6269 33.6671 10.6671 33.6981 10.7123 33.7192C10.7576 33.7404 10.8071 33.7514 10.8571 33.7514C10.9071 33.7514 10.9565 33.7404 11.0018 33.7192C11.0469 33.6982 11.0868 33.6676 11.1188 33.6295C11.119 33.6293 11.1192 33.6291 11.1193 33.6289L12.5338 31.9324C12.7771 31.6417 13.0812 31.4079 13.4246 31.2475C13.7681 31.087 14.1425 31.0039 14.5216 31.0039C14.9006 31.0039 15.2751 31.087 15.6185 31.2475C15.9617 31.4078 16.2656 31.6414 16.5088 31.9318C16.509 31.932 16.5091 31.9322 16.5093 31.9324L17.9328 33.6289C17.9649 33.6672 18.005 33.6981 18.0503 33.7192C18.0956 33.7404 18.1451 33.7514 18.1951 33.7514C18.2451 33.7514 18.2945 33.7404 18.3398 33.7192C18.3849 33.6982 18.4248 33.6675 18.4568 33.6295C18.457 33.6293 18.4572 33.6291 18.4573 33.6289L19.8686 31.9344L19.8703 31.9324C20.1136 31.6417 20.4177 31.4079 20.7611 31.2475C21.1046 31.087 21.479 31.0039 21.8581 31.0039C22.2371 31.0039 22.6116 31.087 22.955 31.2475C23.2984 31.4079 23.6025 31.6417 23.8458 31.9324L23.8471 31.9339L25.2603 33.6289C25.2604 33.629 25.2605 33.6291 25.2606 33.6292C25.2926 33.6674 25.3326 33.6981 25.3778 33.7192C25.4231 33.7404 25.4726 33.7514 25.5226 33.7514C25.5726 33.7514 25.622 33.7404 25.6673 33.7192C25.7125 33.6981 25.7525 33.6674 25.7845 33.6292C25.7846 33.6291 25.7847 33.629 25.7848 33.6289L27.1993 31.9324C27.4426 31.6417 27.7467 31.4079 28.0901 31.2475C28.4336 31.087 28.808 31.0039 29.1871 31.0039C29.5661 31.0039 29.9406 31.087 30.284 31.2475C30.6274 31.4079 30.9315 31.6417 31.1748 31.9324L31.1765 31.9344L32.5878 33.6289C32.588 33.6291 32.5881 33.6293 32.5883 33.6295C32.6203 33.6675 32.6603 33.6982 32.7053 33.7192C32.7506 33.7404 32.8001 33.7514 32.8501 33.7514C32.9001 33.7514 32.9495 33.7404 32.9948 33.7192C33.04 33.6981 33.0801 33.6673 33.1121 33.6291C33.1122 33.629 33.1123 33.6289 33.1123 33.6289L33.9893 32.5795C34.3878 32.1027 35.0972 32.0392 35.574 32.4376C36.0507 32.8361 36.1142 33.5455 35.7158 34.0223L34.8378 35.0729C34.5945 35.3636 34.2904 35.5974 33.947 35.7578C33.6036 35.9182 33.2291 36.0014 32.8501 36.0014C32.471 36.0014 32.0966 35.9182 31.7531 35.7578C31.4097 35.5974 31.1056 35.3636 30.8623 35.0729L30.8606 35.0709L29.4493 33.3764C29.4492 33.3762 29.449 33.376 29.4488 33.3758C29.4168 33.3377 29.3769 33.3071 29.3318 33.286C29.2865 33.2649 29.2371 33.2539 29.1871 33.2539C29.137 33.2539 29.0876 33.2649 29.0423 33.286C28.9973 33.3071 28.9574 33.3377 28.9254 33.3757C28.9252 33.3759 28.925 33.3762 28.9248 33.3764L27.5103 35.0729C27.267 35.3636 26.9629 35.5974 26.6195 35.7578C26.2761 35.9182 25.9016 36.0014 25.5226 36.0014C25.1435 36.0014 24.7691 35.9182 24.4256 35.7578C24.0822 35.5974 23.7781 35.3636 23.5348 35.0729L22.1203 33.3764C22.1202 33.3763 22.1201 33.3762 22.1201 33.3761C22.088 33.3379 22.048 33.3071 22.0028 33.286C21.9575 33.2649 21.9081 33.2539 21.8581 33.2539C21.808 33.2539 21.7586 33.2649 21.7133 33.286C21.6683 33.307 21.6285 33.3376 21.5965 33.3756C21.5963 33.3758 21.596 33.3761 21.5958 33.3764L20.1845 35.0709L20.1828 35.0729C19.9395 35.3636 19.6354 35.5974 19.292 35.7578C18.9486 35.9182 18.5741 36.0014 18.1951 36.0014C17.816 36.0014 17.4416 35.9182 17.0981 35.7578C16.7549 35.5975 16.451 35.3639 16.2078 35.0734C16.2076 35.0732 16.2075 35.0731 16.2073 35.0729L14.7838 33.3764C14.7517 33.3381 14.7116 33.3072 14.6663 33.286C14.621 33.2649 14.5716 33.2539 14.5216 33.2539C14.4715 33.2539 14.4221 33.2649 14.3768 33.286C14.3317 33.3071 14.2917 33.3378 14.2597 33.3759C14.2596 33.3761 14.2594 33.3762 14.2593 33.3764L12.8448 35.0729C12.6015 35.3636 12.2974 35.5974 11.954 35.7578C11.6106 35.9182 11.2361 36.0014 10.8571 36.0014C10.478 36.0014 10.1036 35.9182 9.76012 35.7578C9.41669 35.5974 9.11261 35.3636 8.86933 35.0729L7.45183 33.3764C7.45179 33.3764 7.45187 33.3765 7.45183 33.3764C7.41975 33.3381 7.37956 33.3072 7.3343 33.286C7.28899 33.2649 7.23958 33.2539 7.18956 33.2539Z" fill="#8C8A97"/>
<path fill-rule="evenodd" clip-rule="evenodd" d="M23.5968 24.7504C23.6063 24.7501 23.6158 24.75 23.6253 24.75H34.8753C35.4966 24.75 36.0003 25.2537 36.0003 25.875C36.0003 26.4963 35.4966 27 34.8753 27H23.6399C21.3072 27.0621 19.0581 27.8822 17.2328 29.3364C16.7468 29.7236 16.039 29.6435 15.6519 29.1575C15.2647 28.6715 15.3448 27.9638 15.8308 27.5766C18.0428 25.8143 20.7695 24.822 23.5968 24.7504Z" fill="#8C8A97"/>
<path fill-rule="evenodd" clip-rule="evenodd" d="M17.0658 2.83397C20.1518 1.7601 23.4947 1.66913 26.6345 2.57359C29.7743 3.47805 32.5566 5.33346 34.5984 7.88445L34.5992 7.8855C34.8578 8.20934 35.035 8.59042 35.116 8.99682C35.1969 9.40322 35.1794 9.82311 35.0647 10.2213C34.95 10.6195 34.7416 10.9845 34.4569 11.2856C34.1722 11.5867 33.8195 11.8152 33.4283 11.9519L33.4268 11.9524L9.90082 20.1394L9.89995 20.1397C9.50829 20.2757 9.08976 20.3157 8.67944 20.2566C8.26912 20.1974 7.87895 20.0407 7.54165 19.7997C7.20436 19.5587 6.92976 19.2403 6.74087 18.8712C6.55199 18.5022 6.45433 18.0933 6.45608 17.6787L6.45608 17.6776C6.47314 14.4101 7.50252 11.2283 9.40255 8.57007C11.3026 5.91182 13.9798 3.90784 17.0658 2.83397ZM26.0117 4.73567C23.3189 3.95998 20.4519 4.03799 17.8053 4.95898C15.1587 5.87996 12.8626 7.59864 11.233 9.87844C9.60366 12.158 8.72084 14.8866 8.70606 17.6885C8.70588 17.7433 8.71881 17.7974 8.74378 17.8461C8.76879 17.895 8.80516 17.9372 8.84984 17.9691C8.89451 18.001 8.94619 18.0218 9.00053 18.0296C9.05474 18.0374 9.11001 18.0322 9.16176 18.0143C9.1619 18.0142 9.16204 18.0142 9.16219 18.0141L32.6858 9.82796C32.686 9.8279 32.6862 9.82784 32.6863 9.82778C32.7379 9.80965 32.7845 9.77945 32.8221 9.7397C32.8598 9.69982 32.8874 9.65148 32.9026 9.59875C32.9177 9.54601 32.9201 9.4904 32.9093 9.43656C32.8986 9.3829 32.8753 9.33257 32.8412 9.28976C31.0902 7.1023 28.7042 5.51128 26.0117 4.73567Z" fill="#8C8A97"/>
<path fill-rule="evenodd" clip-rule="evenodd" d="M16.1018 0.0627864C16.6886 -0.141392 17.3298 0.168796 17.534 0.75561L18.4985 3.52761C18.7027 4.11442 18.3925 4.75565 17.8057 4.95983C17.2189 5.16401 16.5777 4.85382 16.3735 4.267L15.409 1.495C15.2048 0.90819 15.515 0.266964 16.1018 0.0627864Z" fill="#8C8A97"/>
<path fill-rule="evenodd" clip-rule="evenodd" d="M20.9245 13.9212C21.5113 13.717 22.1525 14.0271 22.3567 14.6139L26.1472 25.5054C26.3515 26.0922 26.0413 26.7335 25.4545 26.9377C24.8677 27.1419 24.2265 26.8318 24.0223 26.245L20.2318 15.3535C20.0275 14.7667 20.3377 14.1254 20.9245 13.9212Z" fill="#8C8A97"/>
</g>
<defs>
<clipPath id="clip0_2168:15046">
<rect width="36" height="36" fill="white"/>
</clipPath>
</defs>
</svg>
