<svg width="36" height="36" viewBox="0 0 36 36" fill="none" xmlns="http://www.w3.org/2000/svg">
<path fill-rule="evenodd" clip-rule="evenodd" d="M4.73908 3.29485C6.36947 2.35043 8.24143 1.90594 10.1223 2.0166C13.4783 2.20237 15.2549 3.77153 17.5226 5.77446C17.6576 5.89366 17.7943 6.0144 17.9332 6.13648C18.072 6.0145 18.2085 5.89386 18.3434 5.77476C20.6114 3.77162 22.3881 2.20237 25.7456 2.0166C27.6264 1.90595 29.4984 2.35044 31.1288 3.29485C32.7598 4.23964 34.0771 5.64306 34.9169 7.33057L34.9215 7.34008C37.3827 12.4049 34.6758 17.6244 30.9878 21.9771C27.7344 25.8169 23.4039 29.3551 20.0748 32.0752C19.5748 32.4837 19.0974 32.8738 18.6496 33.2436C18.2338 33.5872 17.6326 33.5872 17.2167 33.2436C16.769 32.8738 16.2917 32.4838 15.7917 32.0753C12.4626 29.3552 8.13201 25.8169 4.87871 21.9771C1.19086 17.6243 -1.5156 12.4047 0.946393 7.33994L0.951001 7.33057C1.79075 5.64306 3.10805 4.23964 4.73908 3.29485ZM9.99186 4.26281C8.55062 4.17769 7.11616 4.51814 5.86686 5.2418C4.61908 5.96459 3.61101 7.03783 2.9677 8.3283C1.15849 12.0568 2.96554 16.2383 6.59541 20.5226C9.70312 24.1906 13.8527 27.5832 17.1956 30.3162C17.4463 30.5212 17.6924 30.7224 17.9332 30.9197C18.174 30.7224 18.4202 30.5211 18.6709 30.3161C22.0138 27.5831 26.1633 24.1906 29.2712 20.5226C32.9012 16.2383 34.7086 12.0568 32.9002 8.32832C32.2569 7.03784 31.2488 5.96459 30.001 5.2418C28.7517 4.51814 27.3173 4.17769 25.876 4.26281L25.8716 4.26306C23.3347 4.40295 22.1645 5.42721 19.8919 7.41622C19.5164 7.7449 19.1108 8.09993 18.6639 8.48166C18.2431 8.84114 17.6233 8.84114 17.2025 8.48166C16.7554 8.09976 16.3496 7.7446 15.974 7.4158C13.7017 5.42699 12.5316 4.40293 9.99622 4.26306L9.99186 4.26281Z" fill="#8C8A97"/>
<path fill-rule="evenodd" clip-rule="evenodd" d="M17.9331 6.50098C18.5544 6.50098 19.0581 7.00466 19.0581 7.62598V32.376C19.0581 32.9973 18.5544 33.501 17.9331 33.501C17.3118 33.501 16.8081 32.9973 16.8081 32.376V7.62598C16.8081 7.00466 17.3118 6.50098 17.9331 6.50098Z" fill="#8C8A97"/>
<path fill-rule="evenodd" clip-rule="evenodd" d="M17.1376 14.7055C17.577 14.2661 18.2893 14.2661 18.7286 14.7055L24.3536 20.3305C24.7929 20.7698 24.7929 21.4821 24.3536 21.9215C23.9143 22.3608 23.202 22.3608 22.7626 21.9215L17.1376 16.2965C16.6983 15.8571 16.6983 15.1448 17.1376 14.7055Z" fill="#8C8A97"/>
<path fill-rule="evenodd" clip-rule="evenodd" d="M18.7286 14.7055C19.1679 15.1448 19.1679 15.8571 18.7286 16.2965L13.1036 21.9215C12.6643 22.3608 11.952 22.3608 11.5126 21.9215C11.0733 21.4821 11.0733 20.7698 11.5126 20.3305L17.1376 14.7055C17.577 14.2661 18.2893 14.2661 18.7286 14.7055Z" fill="#8C8A97"/>
<path fill-rule="evenodd" clip-rule="evenodd" d="M25.1814 10.9357C24.9012 10.88 24.6116 10.8942 24.3383 10.9772C24.0649 11.0601 23.8162 11.2092 23.6142 11.4112L20.6491 14.3763H24.8421C25.1278 14.3764 25.4093 14.306 25.6612 14.1713C25.9132 14.0367 26.1281 13.842 26.2868 13.6045C26.4455 13.367 26.5432 13.094 26.5712 12.8097C26.5993 12.5254 26.5567 12.2386 26.4474 11.9747C26.3381 11.7107 26.1654 11.4778 25.9445 11.2966C25.7237 11.1154 25.4616 10.9914 25.1814 10.9357ZM23.6849 8.82412C24.3124 8.63372 24.9771 8.60102 25.6203 8.72892C26.2634 8.85681 26.865 9.14135 27.3719 9.55732C27.8788 9.9733 28.2752 10.5079 28.5262 11.1137C28.7771 11.7195 28.8747 12.3778 28.8104 13.0304C28.7461 13.6829 28.5218 14.3096 28.1575 14.8547C27.7931 15.3999 27.2999 15.8468 26.7216 16.1558C26.1433 16.4648 25.4978 16.6264 24.8421 16.6263C24.8421 16.6263 24.8422 16.6263 24.8421 16.6263H17.9331C17.4781 16.6263 17.0679 16.3522 16.8938 15.9319C16.7196 15.5115 16.8159 15.0276 17.1376 14.7058L22.023 9.82044C22.0231 9.82041 22.023 9.82047 22.023 9.82044C22.4866 9.35678 23.0575 9.0145 23.6849 8.82412Z" fill="#8C8A97"/>
<path fill-rule="evenodd" clip-rule="evenodd" d="M10.246 8.72892C10.8891 8.60102 11.5538 8.63372 12.1813 8.82412C12.8087 9.0145 13.3795 9.35668 13.8431 9.82035C13.8431 9.82038 13.8431 9.82032 13.8431 9.82035L18.7286 14.7058C19.0503 15.0276 19.1466 15.5115 18.9725 15.9319C18.7983 16.3522 18.3881 16.6263 17.9331 16.6263H11.0243C11.0242 16.6263 11.0244 16.6263 11.0243 16.6263C10.3686 16.6264 9.7229 16.4648 9.14463 16.1558C8.5663 15.8468 8.07311 15.3999 7.70877 14.8547C7.34442 14.3095 7.12015 13.6829 7.05584 13.0304C6.99153 12.3778 7.08916 11.7195 7.34008 11.1137C7.59099 10.5079 7.98745 9.9733 8.49433 9.55732C9.00121 9.14135 9.60286 8.85681 10.246 8.72892ZM11.528 10.9772C11.2546 10.8942 10.965 10.88 10.6848 10.9357C10.4046 10.9914 10.1425 11.1154 9.9217 11.2966C9.70087 11.4778 9.52814 11.7107 9.41883 11.9747C9.30951 12.2386 9.26698 12.5254 9.295 12.8097C9.32301 13.094 9.42072 13.367 9.57945 13.6045C9.73819 13.842 9.95305 14.0367 10.205 14.1713C10.457 14.306 10.7382 14.3764 11.0239 14.3763H15.2171L12.2521 11.4113C12.0501 11.2093 11.8013 11.0601 11.528 10.9772Z" fill="#8C8A97"/>
</svg>
