<svg width="36" height="36" viewBox="0 0 36 36" fill="none" xmlns="http://www.w3.org/2000/svg">
<path fill-rule="evenodd" clip-rule="evenodd" d="M3.2162 7.03143C3.66321 6.5999 4.37541 6.61245 4.80695 7.05946C5.7033 7.98797 6.86115 8.62152 8.12642 8.8758C9.3917 9.13009 10.7044 8.99305 11.8899 8.48293C12.4606 8.23735 13.1224 8.50092 13.3679 9.07165C13.6135 9.64237 13.35 10.3041 12.7792 10.5497C11.174 11.2405 9.39642 11.426 7.6831 11.0817C5.96978 10.7374 4.40193 9.87948 3.18817 8.62218C2.75664 8.17517 2.76919 7.46297 3.2162 7.03143Z" fill="#8C8A97"/>
<path fill-rule="evenodd" clip-rule="evenodd" d="M2.30653 18.0565C3.78338 16.5797 5.78642 15.75 7.875 15.75C9.96358 15.75 11.9666 16.5797 13.4435 18.0565C14.9203 19.5334 15.75 21.5364 15.75 23.625V28.125C15.75 28.7463 15.2463 29.25 14.625 29.25H12.203L11.2347 35.06C11.1443 35.6024 10.6749 36 10.125 36H5.625C5.07506 36 4.60572 35.6024 4.51531 35.06L3.54698 29.25H1.125C0.50368 29.25 0 28.7463 0 28.125V23.625C0 21.5364 0.829685 19.5334 2.30653 18.0565ZM7.875 18C6.38316 18 4.95242 18.5926 3.89752 19.6475C2.84263 20.7024 2.25 22.1332 2.25 23.625V27H4.5C5.04994 27 5.51928 27.3976 5.60969 27.9401L6.57802 33.75H9.17198L10.1403 27.9401C10.2307 27.3976 10.7001 27 11.25 27H13.5V23.625C13.5 22.1332 12.9074 20.7024 11.8525 19.6475C10.7976 18.5926 9.36684 18 7.875 18Z" fill="#8C8A97"/>
<path fill-rule="evenodd" clip-rule="evenodd" d="M7.875 15.75C8.49632 15.75 9 16.2537 9 16.875V24.75C9 25.3713 8.49632 25.875 7.875 25.875C7.25368 25.875 6.75 25.3713 6.75 24.75V16.875C6.75 16.2537 7.25368 15.75 7.875 15.75Z" fill="#8C8A97"/>
<path fill-rule="evenodd" clip-rule="evenodd" d="M3.89752 6.14752C4.95242 5.09263 6.38316 4.5 7.875 4.5C9.36684 4.5 10.7976 5.09263 11.8525 6.14752C12.9074 7.20242 13.5 8.63316 13.5 10.125C13.5 11.6168 12.9074 13.0476 11.8525 14.1025C10.7976 15.1574 9.36684 15.75 7.875 15.75C6.38316 15.75 4.95242 15.1574 3.89752 14.1025C2.84263 13.0476 2.25 11.6168 2.25 10.125C2.25 8.63316 2.84263 7.20242 3.89752 6.14752ZM7.875 6.75C6.97989 6.75 6.12145 7.10558 5.48851 7.73851C4.85558 8.37145 4.5 9.22989 4.5 10.125C4.5 11.0201 4.85558 11.8786 5.48851 12.5115C6.12145 13.1444 6.97989 13.5 7.875 13.5C8.77011 13.5 9.62855 13.1444 10.2615 12.5115C10.8944 11.8786 11.25 11.0201 11.25 10.125C11.25 9.22989 10.8944 8.37145 10.2615 7.73851C9.62855 7.10558 8.77011 6.75 7.875 6.75Z" fill="#8C8A97"/>
<path fill-rule="evenodd" clip-rule="evenodd" d="M30.5337 7.03143C30.9807 7.46297 30.9932 8.17517 30.5617 8.62218C29.3479 9.87948 27.7801 10.7374 26.0668 11.0817C24.3535 11.426 22.5759 11.2405 20.9707 10.5497C20.3999 10.3041 20.1364 9.64237 20.3819 9.07165C20.6275 8.50092 21.2893 8.23735 21.86 8.48293C23.0455 8.99305 24.3582 9.13009 25.6235 8.8758C26.8887 8.62152 28.0466 7.98797 28.9429 7.05946C29.3745 6.61245 30.0867 6.5999 30.5337 7.03143Z" fill="#8C8A97"/>
<path fill-rule="evenodd" clip-rule="evenodd" d="M21.8975 6.14752C22.9524 5.09263 24.3832 4.5 25.875 4.5C27.3668 4.5 28.7976 5.09263 29.8525 6.14752C30.9074 7.20242 31.5 8.63316 31.5 10.125C31.5 11.6168 30.9074 13.0476 29.8525 14.1025C28.7976 15.1574 27.3668 15.75 25.875 15.75C24.3832 15.75 22.9524 15.1574 21.8975 14.1025C20.8426 13.0476 20.25 11.6168 20.25 10.125C20.25 8.63316 20.8426 7.20242 21.8975 6.14752ZM25.875 6.75C24.9799 6.75 24.1214 7.10558 23.4885 7.73851C22.8556 8.37145 22.5 9.22989 22.5 10.125C22.5 11.0201 22.8556 11.8786 23.4885 12.5115C24.1214 13.1444 24.9799 13.5 25.875 13.5C26.7701 13.5 27.6286 13.1444 28.2615 12.5115C28.8944 11.8786 29.25 11.0201 29.25 10.125C29.25 9.22989 28.8944 8.37145 28.2615 7.73851C27.6286 7.10558 26.7701 6.75 25.875 6.75Z" fill="#8C8A97"/>
<path fill-rule="evenodd" clip-rule="evenodd" d="M18.7155 2.96554C20.6144 1.06674 23.1897 0 25.875 0C28.5603 0 31.1357 1.06674 33.0345 2.96554C34.9333 4.86435 36 7.43968 36 10.125V16.875C36 17.7701 35.6444 18.6286 35.0115 19.2615C34.3786 19.8944 33.5201 20.25 32.625 20.25H29.79C29.1687 20.25 28.665 19.7463 28.665 19.125C28.665 18.5037 29.1687 18 29.79 18H32.625C32.9234 18 33.2095 17.8815 33.4205 17.6705C33.6315 17.4595 33.75 17.1734 33.75 16.875V10.125C33.75 8.03642 32.9203 6.03338 31.4435 4.55653C29.9666 3.07969 27.9636 2.25 25.875 2.25C23.7864 2.25 21.7834 3.07969 20.3065 4.55653C18.8297 6.03338 18 8.03642 18 10.125V16.875C18 17.1734 18.1185 17.4595 18.3295 17.6705C18.5405 17.8815 18.8266 18 19.125 18H21.96C22.5813 18 23.085 18.5037 23.085 19.125C23.085 19.7463 22.5813 20.25 21.96 20.25H19.125C18.2299 20.25 17.3715 19.8944 16.7385 19.2615C16.1056 18.6286 15.75 17.7701 15.75 16.875V10.125C15.75 7.43968 16.8167 4.86435 18.7155 2.96554Z" fill="#8C8A97"/>
<path fill-rule="evenodd" clip-rule="evenodd" d="M22.4932 16.8672C23.4709 16.1406 24.6569 15.7489 25.875 15.75C27.0931 15.7489 28.2791 16.1406 29.2568 16.8672C30.2349 17.594 30.9524 18.617 31.3026 19.7842L33.7028 27.8024C33.8047 28.143 33.7397 28.5117 33.5274 28.7968C33.3151 29.082 32.9805 29.25 32.625 29.25H30.203L29.2347 35.06C29.1443 35.6024 28.675 36 28.125 36H23.625C23.0751 36 22.6057 35.6024 22.5153 35.06L21.547 29.25H19.125C18.7695 29.25 18.4349 29.082 18.2226 28.7968C18.0103 28.5117 17.9453 28.143 18.0473 27.8024L20.4475 19.7842C20.7976 18.617 21.5151 17.594 22.4932 16.8672ZM25.875 16.875L25.8737 18C25.1394 17.9991 24.4245 18.2352 23.8352 18.6732C23.2459 19.1111 22.8136 19.7274 22.6026 20.4307C22.6026 20.4307 22.6026 20.4306 22.6026 20.4307L20.6361 27H22.5C23.05 27 23.5193 27.3976 23.6097 27.9401L24.578 33.75H27.172L28.1403 27.9401C28.2307 27.3976 28.7001 27 29.25 27H31.1139L29.1475 20.4308C28.9365 19.7275 28.5042 19.1111 27.9148 18.6732C27.3255 18.2352 26.6106 17.9991 25.8763 18L25.875 16.875Z" fill="#8C8A97"/>
<path fill-rule="evenodd" clip-rule="evenodd" d="M29.6628 17.3053C30.2311 17.5565 30.4882 18.2208 30.237 18.7891L26.904 26.3296C26.7215 26.7424 26.3101 27.0062 25.8588 26.9996C25.4076 26.9931 25.0039 26.7176 24.8334 26.2997L25.875 25.8748C24.8334 26.2997 24.8334 26.2998 24.8334 26.2997L24.8022 26.2233C24.7816 26.1731 24.7513 26.0992 24.7126 26.0049C24.6351 25.8162 24.5238 25.5457 24.3885 25.2189C24.1177 24.5652 23.7517 23.6876 23.3698 22.7905C22.9871 21.8918 22.5914 20.9802 22.2604 20.2559C22.0946 19.8929 21.9489 19.5856 21.8317 19.3539C21.7434 19.1794 21.6908 19.0879 21.67 19.0516C21.6585 19.0316 21.6566 19.0284 21.6638 19.0373C21.2755 18.5522 21.3539 17.8443 21.839 17.456C22.3241 17.0677 23.032 17.1462 23.4203 17.6312C23.5712 17.8198 23.7224 18.107 23.8394 18.3382C23.976 18.6083 24.1358 18.9463 24.3069 19.3208C24.65 20.0717 25.0547 21.0043 25.4399 21.9091C25.6009 22.2871 25.7589 22.6614 25.9082 23.017L28.1791 17.8795C28.4303 17.3112 29.0946 17.0541 29.6628 17.3053Z" fill="#8C8A97"/>
</svg>
