<svg width="24" height="24" viewBox="0 0 24 24" fill="none" xmlns="http://www.w3.org/2000/svg">
<path d="M0.637451 12.0002C0.637451 16.9127 3.78745 21.0752 8.13745 22.6127V1.3877C3.78745 2.9252 0.637451 7.08769 0.637451 12.0002Z" fill="#75A843"/>
<path d="M23.1375 12.0002C23.1375 7.08769 19.9875 2.9252 15.6375 1.3877V22.6127C20.025 21.0752 23.1375 16.9127 23.1375 12.0002" fill="#ED4C5C"/>
<path d="M8.13745 22.6125C9.29995 23.025 10.575 23.25 11.8875 23.25C13.2 23.25 14.475 23.025 15.6375 22.6125V1.3875C14.475 0.975 13.2 0.75 11.8875 0.75C10.575 0.75 9.29995 0.975 8.13745 1.3875V22.6125" fill="white"/>
</svg>
