<svg width="24" height="24" viewBox="0 0 24 24" fill="none" xmlns="http://www.w3.org/2000/svg">
<path d="M0.75 12C0.75 14.2125 1.3875 16.275 2.475 18H21.4875C22.575 16.275 23.2125 14.2125 23.2125 12C23.2125 9.7875 22.575 7.725 21.4875 6H2.475C1.3875 7.725 0.75 9.7875 0.75 12Z" fill="#F9F9F9"/>
<path d="M21.5251 6C19.5376 2.85 16.0126 0.75 12.0001 0.75C7.9876 0.75 4.4626 2.85 2.4751 6H21.5251Z" fill="#B4D7EE"/>
<path d="M2.4751 18C4.4626 21.15 7.9876 23.25 12.0001 23.25C16.0126 23.25 19.5376 21.15 21.5251 18H2.4751Z" fill="#B4D7EE"/>
<path d="M17.1374 11.925L14.0624 11.8125V11.775C14.5499 11.7 14.9249 11.4 15.4499 11.4375C16.0874 11.5125 16.4624 11.1375 16.6874 11.0625C16.9499 10.9875 17.0999 11.1375 17.0999 11.0625C17.1374 10.9875 16.9499 10.8375 16.5749 10.875C16.2374 10.9125 16.1249 11.2125 15.3374 11.1375C14.6624 11.1 14.4374 11.3625 13.9499 11.3625V11.325L16.7249 10.05C16.7249 10.05 16.7999 10.0125 16.7999 9.9375C16.7624 9.8625 16.6874 9.9 16.6874 9.9L13.8749 11.025V10.9875C14.2874 10.725 14.5124 10.3125 15.0374 10.1625C15.6374 9.975 15.8624 9.525 16.0499 9.3375C16.2374 9.15 16.4624 9.2625 16.4624 9.1875C16.4624 9.1125 16.2374 9.0375 15.9374 9.225C15.6374 9.4125 15.6374 9.7125 14.8874 9.9375C14.2499 10.125 14.1374 10.4625 13.6874 10.6875L13.6499 10.65L15.7499 8.4C15.7499 8.4 15.8249 8.325 15.7874 8.2875C15.7499 8.25 15.6749 8.325 15.6749 8.325L13.4249 10.425L13.3874 10.3875C13.6874 9.975 13.7249 9.525 14.1374 9.1875C14.6249 8.775 14.6249 8.2875 14.7374 8.0625C14.8499 7.8375 15.0749 7.8375 15.0374 7.7625C14.9999 7.6875 14.7749 7.725 14.5499 7.9875C14.3249 8.2875 14.4374 8.55 13.8749 9.0375C13.3874 9.45 13.3874 9.825 13.0874 10.1625C13.0874 10.1625 13.0499 10.1625 13.0499 10.125L14.0999 7.2375C14.0999 7.2375 14.1374 7.1625 14.0624 7.125C13.9874 7.0875 13.9499 7.2 13.9499 7.2L12.6749 9.975H12.6374C12.7499 9.4875 12.6374 9.0375 12.8624 8.5875C13.1624 8.025 12.9749 7.5375 12.9749 7.3125C13.0124 7.05 13.1999 6.975 13.1624 6.9375C13.1249 6.8625 12.8999 7.0125 12.7874 7.35C12.7124 7.6875 12.8999 7.9125 12.5624 8.5875C12.2624 9.1875 12.4124 9.4875 12.2624 9.9375H12.2249L12.1124 6.8625C12.1124 6.8625 12.1124 6.75 12.0374 6.75C11.9624 6.75 11.9624 6.8625 11.9624 6.8625L11.8499 9.9375H11.8124C11.7374 9.45 11.4374 9.075 11.4749 8.55C11.5499 7.9125 11.1749 7.5375 11.0999 7.3125C11.0249 7.0875 11.1749 6.9 11.0999 6.9C11.0249 6.8625 10.8749 7.05 10.9124 7.425C10.9499 7.7625 11.2499 7.875 11.1749 8.6625C11.1374 9.3375 11.3999 9.5625 11.3999 10.05H11.3624L10.0874 7.275C10.0874 7.275 10.0499 7.2 9.9749 7.2C9.8999 7.2375 9.9374 7.3125 9.9374 7.3125L10.9874 10.2H10.9499C10.6874 9.7875 10.2749 9.5625 10.1249 9.0375C9.9374 8.4375 9.4874 8.2125 9.2999 8.025C9.1124 7.8375 9.2249 7.6125 9.1499 7.6125C9.0749 7.6125 8.9999 7.8375 9.1874 8.1375C9.3749 8.4375 9.6749 8.4375 9.8999 9.1875C10.0874 9.825 10.4249 9.9375 10.6499 10.3875L10.6124 10.425L8.3624 8.325C8.3624 8.325 8.2874 8.25 8.2499 8.2875C8.2124 8.325 8.2874 8.4 8.2874 8.4L10.3874 10.65L10.3499 10.6875C9.9374 10.3875 9.4874 10.35 9.1499 9.9375C8.7374 9.45 8.2499 9.45 8.0249 9.3375C7.7999 9.225 7.7999 9 7.7249 9.0375C7.6499 9.075 7.6874 9.3 7.9499 9.525C8.2499 9.75 8.5124 9.6375 8.9999 10.2C9.4124 10.6875 9.7874 10.6875 10.1249 10.9875C10.1249 10.9875 10.1249 11.025 10.0874 11.025L7.1999 9.975C7.1999 9.975 7.1249 9.9375 7.0874 10.0125C7.0499 10.0875 7.1624 10.125 7.1624 10.125L9.9374 11.4V11.4375C9.4499 11.325 8.9999 11.4375 8.5499 11.2125C7.9874 10.9125 7.4999 11.1 7.2749 11.1C7.0124 11.0625 6.9374 10.875 6.8999 10.9125C6.8249 10.95 6.9749 11.175 7.3124 11.2875C7.6499 11.3625 7.8749 11.175 8.5499 11.5125C9.1499 11.8125 9.4499 11.6625 9.8999 11.8125V11.85L6.8249 11.9625C6.8249 11.9625 6.7124 11.9625 6.7124 12.0375C6.7124 12.1125 6.8249 12.1125 6.8249 12.1125L9.8999 12.225V12.2625C9.4124 12.3375 9.0374 12.6375 8.5124 12.6C7.8749 12.525 7.4999 12.9 7.2749 12.975C7.0124 13.05 6.8624 12.9 6.8624 12.975C6.8249 13.05 7.0124 13.2 7.3874 13.1625C7.7624 13.125 7.8374 12.8625 8.6249 12.9C9.2999 12.9375 9.5249 12.675 10.0124 12.675V12.7125L7.2374 13.9875C7.2374 13.9875 7.1624 14.025 7.1624 14.1C7.1624 14.175 7.2749 14.1375 7.2749 14.1375L10.1624 13.0875V13.125C9.7499 13.3875 9.5249 13.8 8.9999 13.95C8.3999 14.1375 8.1749 14.5875 7.9874 14.775C7.7999 14.9625 7.5749 14.85 7.5749 14.925C7.5749 15 7.7999 15.075 8.0999 14.8875C8.3999 14.7 8.3999 14.4 9.1499 14.175C9.7874 13.9875 9.8999 13.65 10.3499 13.425L10.3874 13.4625L8.2874 15.7125C8.2874 15.7125 8.2124 15.7875 8.2499 15.825C8.2874 15.8625 8.3624 15.7875 8.3624 15.7875L10.6124 13.6875L10.6499 13.725C10.3499 14.1375 10.3124 14.5875 9.8999 14.925C9.4124 15.3375 9.4124 15.825 9.2999 16.05C9.1874 16.275 8.9624 16.275 8.9999 16.35C9.0374 16.425 9.2624 16.3875 9.4874 16.125C9.7124 15.8625 9.5999 15.5625 10.1624 15.075C10.6499 14.6625 10.6499 14.2875 10.9499 13.95C10.9499 13.95 10.9874 13.95 10.9874 13.9875L9.9374 16.875C9.9374 16.875 9.8999 16.95 9.9749 16.9875C10.0499 17.025 10.0874 16.9125 10.0874 16.9125L11.3624 14.1375H11.3999C11.2874 14.625 11.3999 15.075 11.1749 15.525C10.8749 16.0875 11.0624 16.575 11.0249 16.8C10.9874 17.0625 10.7999 17.1375 10.8374 17.175C10.8749 17.25 11.0999 17.1 11.2124 16.7625C11.2874 16.425 11.0999 16.2375 11.4374 15.525C11.7374 14.925 11.5874 14.625 11.7374 14.175H11.7749L11.8874 17.25C11.8874 17.25 11.8874 17.3625 11.9624 17.3625C12.0374 17.3625 12.0374 17.25 12.0374 17.25L12.1499 14.175H12.1874C12.2624 14.6625 12.5624 15.0375 12.5249 15.5625C12.4499 16.2 12.8249 16.575 12.8999 16.8C12.9749 17.0625 12.8249 17.2125 12.8999 17.2125C12.9749 17.25 13.1249 17.0625 13.0874 16.6875C13.0499 16.35 12.7499 16.2375 12.8249 15.45C12.8624 14.775 12.5999 14.55 12.5999 14.0625H12.6374L13.9124 16.8375C13.9124 16.8375 13.9499 16.9125 14.0249 16.9125C14.0999 16.875 14.0624 16.8 14.0624 16.8L12.9749 13.875H13.0124C13.2749 14.2875 13.6874 14.5125 13.8374 15.0375C14.0249 15.6375 14.4749 15.8625 14.6624 16.05C14.8499 16.2375 14.7374 16.4625 14.8124 16.4625C14.8874 16.4625 14.9624 16.2375 14.7749 15.9375C14.5874 15.6375 14.2874 15.6375 14.0624 14.8875C13.8749 14.25 13.5374 14.1375 13.3124 13.6875L13.3499 13.65L15.5999 15.75C15.5999 15.75 15.6749 15.825 15.7124 15.7875C15.7499 15.75 15.6749 15.675 15.6749 15.675L13.5749 13.425L13.6124 13.3875C14.0249 13.6875 14.4749 13.725 14.8124 14.1375C15.2249 14.625 15.7124 14.625 15.9374 14.7375C16.1624 14.85 16.1624 15.075 16.2374 15.0375C16.3124 15 16.2749 14.775 16.0124 14.55C15.7124 14.325 15.4499 14.4375 14.9624 13.875C14.5499 13.3875 14.1749 13.3875 13.8374 13.05C13.8374 13.05 13.8374 13.0125 13.8749 13.0125L16.7624 14.0625C16.7624 14.0625 16.8374 14.1 16.8749 14.025C16.9124 13.95 16.7999 13.9125 16.7999 13.9125L14.0249 12.6375V12.6C14.5124 12.7125 14.9624 12.6 15.4124 12.825C15.9749 13.125 16.4624 12.9375 16.6874 12.9375C16.9499 12.975 17.0249 13.1625 17.0624 13.125C17.1374 13.0875 16.9874 12.8625 16.6499 12.75C16.3124 12.675 16.0874 12.8625 15.4124 12.525C14.8124 12.225 14.5124 12.375 14.0624 12.225V12.1875L17.1374 12.075C17.1374 12.075 17.2499 12.075 17.2499 12C17.2499 11.925 17.1374 11.925 17.1374 11.925" fill="#F6B40E"/>
<path d="M13.1249 11.7373C13.0124 11.6248 12.8624 11.5498 12.7124 11.5498C12.5624 11.5498 12.4499 11.6248 12.3374 11.7373C12.5249 11.8873 12.8624 11.8873 13.1249 11.7373ZM13.0124 11.6998C12.9374 11.7748 12.8624 11.8123 12.7874 11.8123C12.8249 11.7748 12.8624 11.7373 12.8624 11.6998C12.8624 11.6623 12.8249 11.6248 12.7874 11.5873C12.8999 11.6248 12.9749 11.6623 13.0124 11.6998ZM12.5999 11.5873C12.5624 11.6248 12.5624 11.6623 12.5624 11.6998C12.5624 11.7373 12.5999 11.8123 12.6374 11.8123C12.5624 11.8123 12.4874 11.7748 12.4124 11.6998C12.4874 11.6623 12.5249 11.6248 12.5999 11.5873Z" fill="#85340A"/>
<path d="M12.75 11.4375C12.525 11.4375 12.4875 11.475 12.4125 11.55C12.3 11.625 12.2625 11.625 12.2625 11.625C12.2625 11.625 12.2625 11.7 12.3 11.6625C12.3375 11.6625 12.4125 11.625 12.4875 11.55C12.6 11.475 12.675 11.475 12.7875 11.475C13.0875 11.475 13.2375 11.7 13.275 11.7C13.3125 11.7 13.05 11.4375 12.75 11.4375" fill="#85340A"/>
<path d="M12.1125 11.3996C12.075 11.4746 12.075 11.5121 12.075 11.5871C12.0375 11.8121 12.075 12.0746 12.225 12.3371C12.225 12.3371 12.2625 12.2996 12.3 12.2996C12.15 12.1121 12.1125 11.8871 12.1125 11.6996C12.1125 11.5871 12.1875 11.5121 12.225 11.4371C12.4875 11.2121 12.9375 11.2496 13.3125 11.5496C12.975 11.0621 12.4875 11.0996 12.1125 11.3996" fill="#85340A"/>
<path d="M12.4874 11.8869C12.3749 11.8119 12.3374 11.7744 12.2999 11.7744C12.2624 11.7744 12.2624 11.8119 12.4124 11.8869C12.5624 11.9619 12.8624 11.9994 13.1249 11.7744C12.8249 11.9244 12.5999 11.9244 12.4874 11.8869" fill="#85340A"/>
<path d="M12.3 12.4873C12.2625 12.4873 12.225 12.4498 12.1875 12.4123C12.1875 12.4498 12.1125 12.5248 12 12.5248C11.8875 12.5248 11.8125 12.4123 11.8125 12.4123C11.8125 12.4498 11.775 12.4873 11.7 12.4873C11.6625 12.4873 11.5875 12.4498 11.5875 12.3748C11.5875 12.3373 11.625 12.2998 11.6625 12.2998C11.5875 12.2998 11.55 12.3748 11.55 12.4498C11.55 12.5248 11.625 12.5998 11.7 12.5998C11.7375 12.5998 11.775 12.5623 11.8125 12.5248C11.85 12.5623 11.9625 12.5623 12 12.5623H12.0375C12.075 12.5623 12.15 12.5623 12.225 12.5248C12.2625 12.5623 12.3 12.5998 12.3375 12.5998C12.4125 12.5998 12.4875 12.5248 12.4875 12.4498C12.4875 12.3748 12.45 12.3373 12.375 12.2998C12.4125 12.2998 12.45 12.3373 12.45 12.3748C12.4125 12.4498 12.375 12.4873 12.3 12.4873Z" fill="#85340A"/>
<path d="M12.0001 12.825C12.0751 12.825 12.1501 12.75 12.2626 12.825C12.3751 12.9 12.4501 12.9375 12.5251 12.975C12.3751 12.8625 12.3001 12.75 12.1501 12.75C12.1126 12.75 12.0376 12.75 12.0001 12.7875C11.9251 12.75 11.8876 12.75 11.8501 12.75C11.7001 12.75 11.6251 12.9 11.4751 12.975C11.5501 12.9375 11.6251 12.8625 11.7376 12.825C11.8501 12.7875 11.9251 12.825 12.0001 12.825" fill="#85340A"/>
<path d="M12.0001 12.9369C11.9251 12.9369 11.8876 12.8994 11.7751 12.9369C11.7001 12.9369 11.6251 12.9369 11.5126 12.9744H11.4751C11.8126 13.0119 11.6626 13.1994 12.0001 13.1994C12.3376 13.1994 12.1876 13.0119 12.5251 12.9744H12.4501C12.1501 12.8619 12.1126 12.9369 12.0001 12.9369V12.9369ZM12.0001 13.1244C11.7376 13.1244 11.8126 12.9369 11.5126 12.9369C11.8126 12.8619 11.8501 12.9744 12.0001 12.9744C12.1126 12.9744 12.1876 12.8994 12.4876 12.9369C12.1876 12.9744 12.2626 13.1244 12.0001 13.1244Z" fill="#85340A"/>
<path d="M12 13.1992C11.85 13.1992 11.7 13.3117 11.7 13.4992C11.7375 13.3492 11.85 13.2742 12 13.2742C12.15 13.2742 12.2625 13.3867 12.3 13.4992C12.3 13.3117 12.15 13.1992 12 13.1992" fill="#85340A"/>
<path d="M11.775 11.4371C11.85 11.5121 11.8875 11.6246 11.8875 11.6996C11.925 11.8871 11.85 12.0746 11.7 12.2996C11.7 12.2996 11.7375 12.2996 11.775 12.3371C11.8875 12.0746 11.9625 11.8496 11.925 11.5871C11.925 11.5121 11.8875 11.4746 11.8875 11.3996C11.55 11.0996 11.0625 11.0621 10.6875 11.5496C11.0625 11.2121 11.55 11.1746 11.775 11.4371" fill="#85340A"/>
<path d="M11.5499 11.5871C11.6624 11.6621 11.6999 11.6996 11.7374 11.6996C11.7749 11.6996 11.7749 11.6621 11.7749 11.6621C11.7749 11.6621 11.6999 11.6621 11.6249 11.5871C11.5124 11.5121 11.4749 11.4746 11.2874 11.4746C10.9499 11.4746 10.7624 11.7371 10.7999 11.7371C10.8374 11.7371 10.9874 11.5121 11.2874 11.5121C11.3624 11.5121 11.4749 11.5121 11.5499 11.5871" fill="#85340A"/>
<path d="M10.9126 11.7373C10.9876 11.8123 11.1376 11.8498 11.2876 11.8498C11.4001 11.8498 11.5501 11.8123 11.6626 11.7373C11.5501 11.6248 11.4001 11.5498 11.2501 11.5498C11.1376 11.5498 10.9876 11.6248 10.9126 11.7373ZM10.9876 11.7373C11.0626 11.6623 11.1376 11.5873 11.2126 11.5873C11.1751 11.6248 11.1376 11.6623 11.1376 11.6998C11.1376 11.7748 11.1751 11.8123 11.2126 11.8123C11.1376 11.8498 11.0251 11.8123 10.9876 11.7373V11.7373ZM11.5501 11.6998C11.5126 11.7373 11.4376 11.7748 11.3626 11.8123C11.4001 11.7748 11.4001 11.7373 11.4001 11.6998C11.4001 11.6623 11.3626 11.6248 11.3626 11.5873C11.4751 11.6248 11.5501 11.6623 11.5501 11.6998Z" fill="#85340A"/>
<path d="M11.7376 11.7744C11.7001 11.7744 11.6626 11.8119 11.5501 11.8869C11.4376 11.9619 11.2126 11.9619 10.9126 11.8119C11.1751 12.0369 11.4751 11.9994 11.6251 11.9244C11.7751 11.8119 11.7751 11.7744 11.7376 11.7744" fill="#85340A"/>
</svg>
