<svg width="48" height="48" viewBox="0 0 48 48" fill="none" xmlns="http://www.w3.org/2000/svg">
<path d="M10 40.0002C8.4087 40.0002 6.88258 39.3681 5.75736 38.2429C4.63214 37.1177 4 35.5915 4 34.0002V14.0002C4 12.4089 4.63214 10.8828 5.75736 9.7576C6.88258 8.63239 8.4087 8.00024 10 8.00024H38C39.5913 8.00024 41.1174 8.63239 42.2426 9.7576C43.3679 10.8828 44 12.4089 44 14.0002V34.0002C44 35.5915 43.3679 37.1177 42.2426 38.2429C41.1174 39.3681 39.5913 40.0002 38 40.0002H10ZM8 34.0002C8 34.5307 8.21071 35.0394 8.58579 35.4145C8.96086 35.7895 9.46957 36.0002 10 36.0002H38C38.5304 36.0002 39.0391 35.7895 39.4142 35.4145C39.7893 35.0394 40 34.5307 40 34.0002V14.0002C40 13.4698 39.7893 12.9611 39.4142 12.586C39.0391 12.211 38.5304 12.0002 38 12.0002H10C9.46957 12.0002 8.96086 12.211 8.58579 12.586C8.21071 12.9611 8 13.4698 8 14.0002V34.0002ZM12.44 16.7502C12.7714 16.3364 13.2535 16.0711 13.7804 16.0126C14.3073 15.9541 14.8359 16.1072 15.25 16.4382L22.75 22.4382C23.1047 22.7223 23.5456 22.877 24 22.877C24.4544 22.877 24.8953 22.7223 25.25 22.4382L32.75 16.4382C33.1643 16.1067 33.6933 15.9533 34.2206 16.0119C34.748 16.0704 35.2305 16.336 35.562 16.7502C35.8935 17.1645 36.0469 17.6935 35.9884 18.2209C35.9299 18.7482 35.6643 19.2307 35.25 19.5622L27.75 25.5622C26.6858 26.4143 25.3632 26.8785 24 26.8785C22.6368 26.8785 21.3142 26.4143 20.25 25.5622L12.75 19.5622C12.5448 19.3981 12.374 19.1952 12.2472 18.9651C12.1205 18.7349 12.0403 18.482 12.0114 18.2209C11.9824 17.9597 12.0052 17.6955 12.0784 17.4431C12.1516 17.1908 12.2738 16.9553 12.438 16.7502H12.44Z" fill="#7E1A44"/>
</svg>
