<svg width="48" height="48" viewBox="0 0 48 48" fill="none" xmlns="http://www.w3.org/2000/svg">
<path d="M24 10C21.8783 10 19.8434 10.8429 18.3431 12.3431C16.8429 13.8434 16 15.8783 16 18C16 20.1217 16.8429 22.1566 18.3431 23.6569C19.8434 25.1571 21.8783 26 24 26C26.1217 26 28.1566 25.1571 29.6569 23.6569C31.1571 22.1566 32 20.1217 32 18C32 15.8783 31.1571 13.8434 29.6569 12.3431C28.1566 10.8429 26.1217 10 24 10ZM12 18C12 14.8174 13.2643 11.7652 15.5147 9.51472C17.7652 7.26428 20.8174 6 24 6C27.1826 6 30.2348 7.26428 32.4853 9.51472C34.7357 11.7652 36 14.8174 36 18C36 21.1826 34.7357 24.2348 32.4853 26.4853C30.2348 28.7357 27.1826 30 24 30C20.8174 30 17.7652 28.7357 15.5147 26.4853C13.2643 24.2348 12 21.1826 12 18V18Z" fill="#7E1A44"/>
<path d="M12.2475 38.0002H35.7515C34.6575 33.6062 30.0315 30.0002 23.9995 30.0002C17.9675 30.0002 13.3415 33.6062 12.2475 38.0002ZM7.99951 40.0002C7.99951 31.9902 15.4635 26.0002 23.9995 26.0002C32.5355 26.0002 39.9995 31.9902 39.9995 40.0002C39.9995 40.5307 39.7888 41.0394 39.4137 41.4145C39.0387 41.7895 38.5299 42.0002 37.9995 42.0002H9.99951C9.46908 42.0002 8.96037 41.7895 8.5853 41.4145C8.21023 41.0394 7.99951 40.5307 7.99951 40.0002Z" fill="#7E1A44"/>
</svg>
