<svg width="36" height="36" viewBox="0 0 36 36" fill="none" xmlns="http://www.w3.org/2000/svg">
<g clip-path="url(#clip0_2168:15044)">
<path fill-rule="evenodd" clip-rule="evenodd" d="M9.95953 14.6251C9.87429 14.6239 9.78985 14.6417 9.71238 14.6772C9.6349 14.7128 9.56634 14.7652 9.51168 14.8306C9.45703 14.896 9.41766 14.9728 9.39644 15.0554C9.37608 15.1347 9.37294 15.2174 9.38719 15.2979C9.8417 17.3441 10.9796 19.1746 12.6136 20.4879C14.2519 21.8047 16.2908 22.5225 18.3927 22.5225C20.4946 22.5225 22.5335 21.8047 24.1718 20.4879C25.8054 19.1749 26.9431 17.3449 27.3979 15.2993C27.4118 15.2189 27.4085 15.1365 27.3881 15.0574C27.3668 14.9747 27.3274 14.8978 27.2727 14.8322C27.218 14.7666 27.1494 14.714 27.0719 14.6782C26.9943 14.6424 26.9098 14.6242 26.8244 14.6251L26.8129 14.6252H9.97544C9.97014 14.6252 9.96483 14.6251 9.95953 14.6251ZM9.98239 12.3752C9.56549 12.3706 9.15271 12.4584 8.77373 12.6324C8.39204 12.8076 8.05424 13.0658 7.78497 13.3881C7.5157 13.7104 7.32174 14.0887 7.21722 14.4955C7.11271 14.9023 7.10028 15.3272 7.18083 15.7394C7.18254 15.7482 7.18435 15.7569 7.18627 15.7656C7.74864 18.319 9.16611 20.6038 11.204 22.2417C13.242 23.8796 15.7781 24.7725 18.3927 24.7725C21.0073 24.7725 23.5434 23.8796 25.5813 22.2417C27.6193 20.6038 29.0367 18.319 29.5991 15.7656C29.6012 15.7561 29.6032 15.7466 29.605 15.737C29.6845 15.3256 29.6715 14.9018 29.567 14.496C29.4624 14.0903 29.269 13.7129 29.0006 13.3911C28.7323 13.0694 28.3958 12.8113 28.0154 12.6356C27.637 12.4608 27.2247 12.3719 26.8079 12.3752H9.98239Z" fill="#8C8A97"/>
<path fill-rule="evenodd" clip-rule="evenodd" d="M24.3381 20.4341C24.9216 20.2205 25.5677 20.5203 25.7813 21.1038L30.6818 34.4883C30.8955 35.0717 30.5957 35.7178 30.0122 35.9315C29.4288 36.1451 28.7826 35.8453 28.569 35.2618L23.6685 21.8773C23.4549 21.2939 23.7547 20.6477 24.3381 20.4341Z" fill="#8C8A97"/>
<path fill-rule="evenodd" clip-rule="evenodd" d="M12.4126 20.4341C12.996 20.6477 13.2958 21.2939 13.0822 21.8773L8.18172 35.2618C7.96811 35.8453 7.32196 36.1451 6.73852 35.9315C6.15507 35.7178 5.85527 35.0717 6.06889 34.4883L10.9694 21.1038C11.183 20.5203 11.8292 20.2205 12.4126 20.4341Z" fill="#8C8A97"/>
<path fill-rule="evenodd" clip-rule="evenodd" d="M7.64746 30.375C7.64746 29.7537 8.15114 29.25 8.77246 29.25H27.9785C28.5998 29.25 29.1035 29.7537 29.1035 30.375C29.1035 30.9963 28.5998 31.5 27.9785 31.5H8.77246C8.15114 31.5 7.64746 30.9963 7.64746 30.375Z" fill="#8C8A97"/>
<path fill-rule="evenodd" clip-rule="evenodd" d="M11.432 0.226508C11.9283 0.60036 12.0275 1.30573 11.6536 1.80198L10.7236 3.03648L10.7196 3.04176C10.5242 3.29808 10.4352 3.61995 10.4712 3.94028C10.5073 4.2606 10.6656 4.55464 10.9131 4.7611L10.1926 5.6251L10.915 4.76262C11.6061 5.34153 12.0474 6.16467 12.147 7.06073C12.2465 7.95503 11.9979 8.85322 11.4529 9.5691L11.2126 9.88957C10.8398 10.3866 10.1346 10.4874 9.63759 10.1146C9.14053 9.74177 9.0398 9.03662 9.41259 8.53957L9.65559 8.21556L9.66145 8.20782C9.85712 7.95157 9.94643 7.62975 9.91081 7.30931C9.87522 6.98916 9.71766 6.69504 9.47087 6.48805C8.77876 5.91031 8.33618 5.08784 8.23535 4.1919C8.1346 3.29666 8.38284 2.39709 8.92834 1.68025L9.85653 0.448144C10.2304 -0.0481148 10.9358 -0.147345 11.432 0.226508Z" fill="#8C8A97"/>
<path fill-rule="evenodd" clip-rule="evenodd" d="M19.8841 0.224935C20.3813 0.59763 20.4821 1.30276 20.1094 1.79989L19.1839 3.03439L19.1779 3.04231C18.9823 3.29856 18.893 3.62039 18.9286 3.94082C18.9642 4.26125 19.122 4.55561 19.3692 4.76262L18.6468 5.62512L19.3682 4.76183C20.0603 5.34023 20.5025 6.16344 20.6026 7.05985C20.7024 7.95444 20.4539 8.85305 19.9086 9.56911L19.6683 9.88957C19.2955 10.3866 18.5904 10.4874 18.0933 10.1146C17.5962 9.74178 17.4955 9.03662 17.8683 8.53957L18.1113 8.21557L18.1173 8.20764C18.313 7.95152 18.4022 7.62976 18.3665 7.30945C18.3307 6.98914 18.1727 6.69499 17.9254 6.48831L18.6468 5.62512L17.9244 6.48751C17.2333 5.9086 16.792 5.08546 16.6924 4.1894C16.5929 3.29514 16.8415 2.39701 17.3864 1.68115L17.3837 1.68474L18.2838 2.35957L17.3897 1.67682C17.3886 1.67826 17.3875 1.6797 17.3864 1.68115L18.3092 0.450242C18.6819 -0.0468872 19.387 -0.14776 19.8841 0.224935Z" fill="#8C8A97"/>
<path fill-rule="evenodd" clip-rule="evenodd" d="M27.7591 0.224935C28.2563 0.597631 28.3571 1.30276 27.9844 1.79989L27.0589 3.03439L27.0529 3.04231C26.8573 3.29856 26.768 3.62038 26.8036 3.94082C26.8392 4.26125 26.997 4.55561 27.2442 4.76262L26.5218 5.62512L27.2432 4.76183C27.9353 5.34023 28.3775 6.16344 28.4776 7.05985C28.5774 7.95446 28.3289 8.85309 27.7836 9.56915L27.5433 9.88957C27.1705 10.3866 26.4654 10.4874 25.9683 10.1146C25.4712 9.74177 25.3705 9.03662 25.7433 8.53956L25.9863 8.21556L25.9923 8.20764C26.1879 7.95152 26.2772 7.62976 26.2414 7.30945C26.2057 6.98914 26.0477 6.69499 25.8004 6.48831L26.5218 5.62512L25.7994 6.48751C25.1083 5.9086 24.667 5.08546 24.5674 4.1894C24.4679 3.29515 24.7165 2.39701 25.2614 1.68115L25.2587 1.68474L26.1588 2.35957L25.2647 1.67682C25.2636 1.67826 25.2625 1.6797 25.2614 1.68115L26.1842 0.450241C26.5569 -0.0468876 27.262 -0.14776 27.7591 0.224935Z" fill="#8C8A97"/>
</g>
<defs>
<clipPath id="clip0_2168:15044">
<rect width="36" height="36" fill="white"/>
</clipPath>
</defs>
</svg>
