<svg width="24" height="24" viewBox="0 0 24 24" fill="none" xmlns="http://www.w3.org/2000/svg">
<path d="M22.8375 15.0004C23.1 14.0629 23.25 13.0504 23.25 12.0004C23.25 10.9504 23.1 9.93789 22.8375 9.00039H11.8875L5.54995 2.77539C4.04995 3.82539 2.81245 5.25039 1.94995 6.90039L7.12495 12.0004L1.98745 17.1004C2.81245 18.7504 4.04995 20.1754 5.58745 21.2254L11.8875 15.0004H22.8375Z" fill="#699635"/>
<path d="M1.3125 8.4375C0.9375 9.5625 0.75 10.7625 0.75 12C0.75 13.2375 0.9375 14.4375 1.3125 15.5625L4.9125 12L1.3125 8.4375Z" fill="#33303E"/>
<path d="M6.86255 22.0129C8.40005 22.8004 10.1625 23.2504 12 23.2504C16.6125 23.2504 20.5875 20.4754 22.3125 16.4629H12.525L6.86255 22.0129Z" fill="#428BC1"/>
<path d="M22.3125 7.5375C20.5875 3.525 16.6125 0.75 12 0.75C10.1625 0.75 8.40005 1.2 6.86255 1.9875L12.525 7.5375H22.3125Z" fill="#ED4C5C"/>
<path d="M22.6875 8.51231C22.575 8.17481 22.4625 7.8373 22.3125 7.5373H12.525L6.86255 1.9873C6.60005 2.0998 6.37505 2.2498 6.11255 2.3998C5.92505 2.5123 5.73755 2.6623 5.55005 2.7748L11.8875 8.9998H22.8375C22.8 8.8498 22.7625 8.66231 22.6875 8.51231Z" fill="white"/>
<path d="M1.9876 6.90039C1.9501 6.97539 1.9126 7.05039 1.8751 7.16289C1.6876 7.57539 1.5001 7.98789 1.3501 8.43789L4.9501 12.0004L1.3501 15.5629C1.5001 16.0129 1.6501 16.4254 1.8751 16.8379C1.9126 16.9129 1.9501 16.9879 1.9876 17.1004L7.1251 12.0004L1.9876 6.90039Z" fill="#FFCE31"/>
<path d="M11.8875 15L5.55005 21.225C5.66255 21.3 5.81255 21.4125 5.92505 21.4875C6.22505 21.675 6.52505 21.8625 6.86255 22.0125L12.525 16.4625H22.3125C22.4625 16.0875 22.6125 15.7125 22.7625 15.3C22.8 15.1875 22.8 15.1125 22.8375 15H11.8875" fill="white"/>
</svg>
