<svg width="48" height="48" viewBox="0 0 48 48" fill="none" xmlns="http://www.w3.org/2000/svg">
<path d="M8.00049 23.9998C8.00049 19.7563 9.6862 15.6866 12.6868 12.686C15.6874 9.68547 19.757 7.99976 24.0005 7.99976C28.244 7.99976 32.3136 9.68547 35.3142 12.686C38.3148 15.6866 40.0005 19.7563 40.0005 23.9998C40.0005 28.2432 38.3148 32.3129 35.3142 35.3135C32.3136 38.314 28.244 39.9998 24.0005 39.9998C19.757 39.9998 15.6874 38.314 12.6868 35.3135C9.6862 32.3129 8.00049 28.2432 8.00049 23.9998V23.9998ZM24.0005 3.99976C12.9545 3.99976 4.00049 12.9538 4.00049 23.9998C4.00049 35.0458 12.9545 43.9998 24.0005 43.9998C35.0465 43.9998 44.0005 35.0458 44.0005 23.9998C44.0005 12.9538 35.0465 3.99976 24.0005 3.99976ZM19.5145 26.1998C19.1679 25.7982 18.6759 25.5508 18.1469 25.512C17.6178 25.4732 17.095 25.6461 16.6935 25.9928C16.292 26.3394 16.0446 26.8313 16.0057 27.3604C15.9669 27.8894 16.1399 28.4122 16.4865 28.8138C18.1065 30.6878 20.5665 31.9998 24.0005 31.9998C27.4325 31.9998 29.8945 30.6878 31.5145 28.8138C31.8611 28.4122 32.0341 27.8894 31.9952 27.3604C31.9564 26.8313 31.709 26.3394 31.3075 25.9928C30.9059 25.6461 30.3832 25.4732 29.8541 25.512C29.3251 25.5508 28.8331 25.7982 28.4865 26.1998C27.6485 27.1698 26.3045 27.9998 24.0005 27.9998C21.6965 27.9998 20.3525 27.1698 19.5145 26.1998ZM16.0005 19.9998C16.0005 19.4693 16.2112 18.9606 16.5863 18.5855C16.9613 18.2105 17.4701 17.9998 18.0005 17.9998H18.0205C18.5509 17.9998 19.0596 18.2105 19.4347 18.5855C19.8098 18.9606 20.0205 19.4693 20.0205 19.9998C20.0205 20.5302 19.8098 21.0389 19.4347 21.414C19.0596 21.789 18.5509 21.9998 18.0205 21.9998H18.0005C17.4701 21.9998 16.9613 21.789 16.5863 21.414C16.2112 21.0389 16.0005 20.5302 16.0005 19.9998ZM30.0005 17.9998C29.4701 17.9998 28.9613 18.2105 28.5863 18.5855C28.2112 18.9606 28.0005 19.4693 28.0005 19.9998C28.0005 20.5302 28.2112 21.0389 28.5863 21.414C28.9613 21.789 29.4701 21.9998 30.0005 21.9998H30.0205C30.5509 21.9998 31.0596 21.789 31.4347 21.414C31.8098 21.0389 32.0205 20.5302 32.0205 19.9998C32.0205 19.4693 31.8098 18.9606 31.4347 18.5855C31.0596 18.2105 30.5509 17.9998 30.0205 17.9998H30.0005Z" fill="#7E1A44"/>
</svg>
