<?xml version="1.0" standalone="no"?>
<!DOCTYPE svg PUBLIC "-//W3C//DTD SVG 1.1//EN" "http://www.w3.org/Graphics/SVG/1.1/DTD/svg11.dtd" >
<svg xmlns="http://www.w3.org/2000/svg">
<metadata>Generated by IcoMoon</metadata>
<defs>
<font id="bhw-icon-font" horiz-adv-x="1024">
<font-face units-per-em="1024" ascent="960" descent="-64" />
<missing-glyph horiz-adv-x="1024" />
<glyph unicode="&#x20;" horiz-adv-x="512" d="" />
<glyph unicode="&#xe900;" d="M558.078 329.214l94.037 94.037c25.973 25.973 32.412 65.651 15.985 98.502l-5.329 10.656c-16.425 32.853-9.986 72.531 15.985 98.502l116.599 116.6c8.333 8.331 21.839 8.331 30.17 0 1.621-1.622 2.972-3.493 3.998-5.545l47.102-94.206c36.034-72.068 21.909-159.108-35.066-216.085l-255.949-255.949c-62.018-62.018-153.754-83.674-236.958-55.938l-103.019 34.338c-11.177 3.727-17.218 15.808-13.491 26.987 1.047 3.14 2.812 5.997 5.152 8.337l113.122 113.122c25.971 25.971 65.649 32.41 98.502 15.985l10.656-5.329c32.851-16.427 72.529-9.988 98.502 15.985z" />
<glyph unicode="&#xe901;" d="M610.688 788.749l7.895 84.967c-138.131 12.835-275.501-35.417-375.526-135.44-99.885-99.887-148.146-237.018-135.492-374.972l84.977 7.795c-10.363 112.973 29.088 225.069 110.856 306.835 81.879 81.882 194.172 121.325 307.29 110.814zM595.486 618.754l8.164 84.943c-88.186 8.476-176.032-22.221-239.913-86.101-63.671-63.671-94.381-151.155-86.18-239.074l84.964 7.927c-5.867 62.893 16.036 125.286 61.555 170.807 45.67 45.668 108.322 67.563 171.409 61.498z" />
<glyph unicode="&#xe902;" d="M383.083 157.837c0.606 3.268 0.917 6.814 0.917 10.645v450.185c0 0 171.789 32.745 213.333 42.667 19.249 4.597 42.667 20.57 42.667 45.581v75.030c0 33.746-31.409 57.809-62.317 47.744l-245.333-75.031c-20.038-6.526-33.683-25.866-33.683-47.743v-435.65c-13.346 3.93-27.706 6.069-42.667 6.069-70.692 0-128-47.757-128-106.667s57.308-106.667 128-106.667c65.483 0 119.479 40.975 127.083 93.837z" />
<glyph unicode="&#xe903;" d="M682.667 213.333c0-11.782 9.551-21.333 21.333-21.333h42.667c11.782 0 21.333 9.551 21.333 21.333v106.667h106.667c11.782 0 21.333 9.551 21.333 21.333v42.667c0 11.782-9.551 21.333-21.333 21.333h-106.667v106.667c0 11.782-9.551 21.333-21.333 21.333h-42.667c-11.782 0-21.333-9.551-21.333-21.333v-106.667h-106.667c-11.782 0-21.333-9.551-21.333-21.333v-42.667c0-11.782 9.551-21.333 21.333-21.333h106.667v-106.667z" />
<glyph unicode="&#xe904;" glyph-name="address-card" d="M128 810.667c0 35.346 28.654 64 64 64h640c35.347 0 64-28.654 64-64v-725.333c0-35.347-28.653-64-64-64h-640c-35.346 0-64 28.653-64 64v725.333zM512 490.667c47.127 0 85.333 38.206 85.333 85.333s-38.206 85.333-85.333 85.333c-47.127 0-85.333-38.206-85.333-85.333s38.206-85.333 85.333-85.333zM511.605 448c-111.915 0-203.735-64.706-212.924-191.979-0.499-6.933 11.285-21.355 17.229-21.355h391.567c17.807 0 18.084 16.122 17.807 21.333-6.946 130.848-100.188 192-213.679 192z" />
<glyph unicode="&#xe905;" d="M384 490.667c-94.257 0-170.667 76.41-170.667 170.667s76.41 170.667 170.667 170.667c94.257 0 170.667-76.41 170.667-170.667s-76.41-170.667-170.667-170.667zM789.333 490.667c-11.782 0-21.333 9.551-21.333 21.333v106.667h-106.667c-11.782 0-21.333 9.551-21.333 21.333v42.667c0 11.782 9.551 21.333 21.333 21.333h106.667v106.667c0 11.782 9.551 21.333 21.333 21.333h42.667c11.782 0 21.333-9.551 21.333-21.333v-106.667h106.667c11.782 0 21.333-9.551 21.333-21.333v-42.667c0-11.782-9.551-21.333-21.333-21.333h-106.667v-106.667c0-11.782-9.551-21.333-21.333-21.333h-42.667z" />
<glyph unicode="&#xe906;" d="M0.028 98.167c16.538 203.635 181.814 307.166 383.262 307.166 204.282 0 372.119-97.843 384.621-307.2 0.499-8.339 0-34.133-32.051-34.133-158.106 0-393.045 0-704.819 0-10.7 0-31.913 23.074-31.012 34.167z" />
<glyph unicode="&#xe907;" glyph-name="adjust" d="M170.667 448c0 188.514 152.819 341.333 341.333 341.333s341.333-152.819 341.333-341.333c0-188.514-152.819-341.333-341.333-341.333s-341.333 152.819-341.333 341.333zM256 448c0-141.385 114.615-256 256-256v512c-141.385 0-256-114.615-256-256z" />
<glyph unicode="&#xe908;" d="M725.333 874.667h149.333c35.347 0 64-28.654 64-64v-725.333c0-35.347-28.653-64-64-64h-149.333v853.333z" />
<glyph unicode="&#xe909;" d="M149.333 874.667h597.333c35.347 0 64-28.654 64-64v-725.333c0-35.347-28.653-64-64-64h-597.333c-11.782 0-21.333 9.551-21.333 21.333v810.667c0 11.782 9.551 21.333 21.333 21.333zM464.297 365.001c-12.988-12.986-32.826-16.205-49.252-7.991l-25.442 12.721c-16.425 8.213-36.265 4.992-49.25-7.994l-86.731-86.731c-5.606-5.606-3.354-15.153 4.171-17.662l89.596-29.865c45.995-15.332 96.704-3.36 130.987 30.921l180.527 180.527c38.957 38.957 48.614 98.475 23.977 147.753l-32.576 65.152c-3.255 6.511-11.936 7.919-17.084 2.771l-88.469-88.469c-12.986-12.986-16.205-32.826-7.991-49.25l12.719-25.442c8.213-16.427 4.994-36.265-7.991-49.25l-77.188-77.19z" />
<glyph unicode="&#xe90a;" d="M768 874.667h149.333c35.347 0 64-28.654 64-64v-725.333c0-35.347-28.653-64-64-64h-149.333v853.333z" />
<glyph unicode="&#xe90b;" d="M170.667 853.333c0 11.782 9.551 21.333 21.333 21.333h597.333c35.347 0 64-28.654 64-64v-725.333c0-35.347-28.653-64-64-64h-597.333c-11.782 0-21.333 9.551-21.333 21.333v810.667zM512 490.667c-47.127 0-85.333 38.206-85.333 85.333s38.206 85.333 85.333 85.333c47.127 0 85.333-38.206 85.333-85.333s-38.206-85.333-85.333-85.333zM511.605 448c-111.915 0-203.735-64.706-212.924-191.979-0.499-6.933 11.285-21.355 17.229-21.355h391.567c17.807 0 18.084 16.122 17.807 21.333-6.946 130.848-100.188 192-213.679 192z" />
<glyph unicode="&#xe90c;" d="M587.437 289.698c-24.518-6.882-50.349-10.558-77.028-10.558s-52.512 3.678-77.030 10.558l-21.775-58.807c-3.488-9.421 1.225-19.919 10.526-23.452 2.020-0.768 4.158-1.161 6.315-1.161h46.078c2.423-82.048 40.563-137.845 117.85-163.934 18.846-6.364 39.219 3.953 45.502 23.040s-3.904 39.718-22.752 46.080c-47.904 16.171-66.357 45.297-68.74 95.974l45.99-1.161c9.933 0 17.986 8.156 17.986 18.217 0 2.182-0.388 4.35-1.146 6.396l-21.775 58.807z" />
<glyph unicode="&#xe90d;" d="M810.667 576c0-164.949-133.717-298.667-298.667-298.667s-298.667 133.717-298.667 298.667c0 164.949 133.717 298.667 298.667 298.667s298.667-133.717 298.667-298.667zM346.263 610.479c15.426 1.079 28.806-10.551 29.886-25.98 3.725-53.278 27.307-93.21 72.166-122.195 12.988-8.393 16.713-25.726 8.32-38.714-8.393-12.99-25.726-16.715-38.714-8.322-59.663 38.554-92.683 94.464-97.638 165.325-1.077 15.426 10.554 28.806 25.98 29.886z" />
<glyph unicode="&#xe90e;" d="M106.667 832h810.667c11.782 0 21.333-9.551 21.333-21.333v-341.333c0-11.782-9.551-21.333-21.333-21.333h-810.667c-11.782 0-21.333 9.551-21.333 21.333v341.333c0 11.782 9.551 21.333 21.333 21.333zM192 618.667c-11.782 0-21.333-9.551-21.333-21.333v-42.667c0-11.782 9.551-21.333 21.333-21.333h640c11.782 0 21.333 9.551 21.333 21.333v42.667c0 11.782-9.551 21.333-21.333 21.333h-640z" />
<glyph unicode="&#xe90f;" d="M286.229 289.89l-60.463 60.213c-77.945-78.268-77.682-204.9 0.587-282.846 6.701-6.673 13.869-12.864 21.446-18.524l25.333-18.921 51.063 68.367-25.333 18.923c-4.343 3.245-8.454 6.793-12.297 10.62-44.875 44.689-45.024 117.293-0.337 162.167zM737.766 350.103l60.463-60.213c-44.687-44.875-44.538-117.478 0.337-162.167 3.842-3.827 7.953-7.375 12.297-10.62l25.333-18.923-51.063-68.367-25.333 18.921c-7.578 5.66-14.746 11.851-21.446 18.524-78.268 77.946-78.532 204.578-0.587 282.846zM481.766 307.437l60.463-60.213c-44.687-44.875-44.538-117.478 0.337-162.167 3.842-3.827 7.953-7.375 12.297-10.62l25.333-18.923-51.063-68.367-25.333 18.921c-7.578 5.66-14.746 11.851-21.446 18.524-78.268 77.946-78.532 204.578-0.587 282.846z" />
<glyph unicode="&#xe910;" d="M341.333 64h341.333l-170.667 213.333-170.667-213.333z" />
<glyph unicode="&#xe911;" d="M924.947 494.746l68.777 50.513c-111.836 152.267-289.158 244.075-481.726 244.075-195.23 0-374.711-94.381-486.149-250.176l69.406-49.645c95.584 133.63 249.349 214.487 416.743 214.487 165.114 0 317.026-78.652 412.949-209.254zM873.306 448.9l-65.664-54.498c-72.555 87.42-179.846 138.931-295.644 138.931-115.637 0-222.797-51.369-295.354-138.579l-65.599 54.575c88.601 106.498 219.692 169.338 360.953 169.338 141.455 0 272.708-63.017 361.308-169.766zM742.524 339.238l-65.837-54.289c-40.32 48.896-100.102 77.717-164.689 77.717-64.375 0-123.983-28.631-164.305-77.252l-65.685 54.473c56.369 67.968 139.945 108.113 229.99 108.113 90.34 0 174.163-40.412 230.526-108.762z" />
<glyph unicode="&#xe912;" d="M298.667 320c23.565 0 42.667-19.102 42.667-42.667s-19.102-42.667-42.667-42.667h-42.667c-70.692 0-128 57.308-128 128v298.667c0 70.692 57.308 128 128 128h512c70.692 0 128-57.308 128-128v-298.667c0-70.692-57.308-128-128-128h-42.667c-23.565 0-42.667 19.102-42.667 42.667s19.102 42.667 42.667 42.667h42.667c23.565 0 42.667 19.102 42.667 42.667v298.667c0 23.565-19.102 42.667-42.667 42.667h-512c-23.565 0-42.667-19.102-42.667-42.667v-298.667c0-23.565 19.102-42.667 42.667-42.667h42.667z" />
<glyph unicode="&#xe913;" d="M341.333 106.667h341.333l-170.667 213.333-170.667-213.333z" />
<glyph unicode="&#xe914;" d="M597.333 470.522c35.249-31.55 79.294-53.476 128-61.647v-344.873c0-23.565-19.102-42.667-42.667-42.667h-42.667c-23.565 0-42.667 19.102-42.667 42.667v406.519z" />
<glyph unicode="&#xe915;" d="M298.667 408.875c48.706 8.171 92.751 30.097 128 61.647v-406.519c0-23.565-19.102-42.667-42.667-42.667h-42.667c-23.565 0-42.667 19.102-42.667 42.667v344.873z" />
<glyph unicode="&#xe916;" d="M768 448c117.82 0 213.333 95.514 213.333 213.333 0 117.821-95.514 213.333-213.333 213.333s-213.333-95.513-213.333-213.333c0-117.82 95.514-213.333 213.333-213.333zM597.333 661.333c0 11.782 9.551 21.333 21.333 21.333h42.667c11.782 0 21.333-9.551 21.333-21.333v-21.333c0-11.782-9.551-21.333-21.333-21.333h-42.667c-11.782 0-21.333 9.551-21.333 21.333v21.333zM874.667 746.667h42.667c11.782 0 21.333-9.551 21.333-21.333v-128c0-11.782-9.551-21.333-21.333-21.333h-42.667c-11.782 0-21.333 9.551-21.333 21.333v128c0 11.782 9.551 21.333 21.333 21.333z" />
<glyph unicode="&#xe917;" d="M256 448c117.82 0 213.333 95.514 213.333 213.333 0 117.821-95.514 213.333-213.333 213.333-117.821 0-213.333-95.513-213.333-213.333s95.513-213.333 213.333-213.333zM341.333 661.333c0 11.782 9.551 21.333 21.333 21.333h42.667c11.782 0 21.333-9.551 21.333-21.333v-21.333c0-11.782-9.551-21.333-21.333-21.333h-42.667c-11.782 0-21.333 9.551-21.333 21.333v21.333zM106.667 746.667h42.667c11.782 0 21.333-9.551 21.333-21.333v-128c0-11.782-9.551-21.333-21.333-21.333h-42.667c-11.782 0-21.333 9.551-21.333 21.333v128c0 11.782 9.551 21.333 21.333 21.333z" />
<glyph unicode="&#xe918;" d="M652.469 94.153c-2.202-0.994-4.414-1.967-6.639-2.916l51.767-89.662c5.89-10.204 18.938-13.7 29.141-7.808l36.951 21.333c10.202 5.89 13.698 18.938 7.808 29.141l-51.994 90.057c-0.29-0.224-0.582-0.446-0.873-0.668-20.378-15.522-42.556-28.802-66.163-39.477zM304.774 134.080c22.528-17.237 47.268-31.731 73.719-42.982l-52.435-90.818c-5.89-10.204-18.938-13.698-29.141-7.808l-36.949 21.333c-10.204 5.89-13.7 18.938-7.81 29.141l52.617 91.134z" />
<glyph unicode="&#xe919;" d="M248.7 859.659c12.497 12.497 32.757 12.497 45.254 0l45.254-45.255c12.497-12.497 12.497-32.758 0-45.255l-135.764-135.764c-12.497-12.497-32.758-12.497-45.255 0l-45.255 45.254c-12.497 12.497-12.497 32.759 0 45.254l135.765 135.765zM745.719 843.788c12.497 12.497 32.757 12.497 45.254 0l119.893-119.892c12.497-12.497 12.497-32.757 0-45.254l-45.254-45.257c-12.497-12.495-32.759-12.495-45.257 0l-119.891 119.894c-12.497 12.497-12.497 32.758 0 45.255l45.254 45.255zM511.998 64c-188.512 0-341.333 152.821-341.333 341.333 0 188.514 152.821 341.334 341.333 341.334 188.514 0 341.333-152.82 341.333-341.334 0-188.512-152.819-341.333-341.333-341.333z" />
<glyph unicode="&#xe91a;" d="M489.907 630.15c0.427 5.557 5.060 9.85 10.635 9.85h23.136c5.481 0 10.069-4.151 10.613-9.604l20.373-203.729 143.959-82.261c3.322-1.901 5.374-5.434 5.374-9.263v-22.511c0-7.034-6.688-12.141-13.474-10.291l-212.687 58.007c-4.937 1.346-8.222 6.007-7.829 11.108l19.9 258.694z" />
<glyph unicode="&#xe91b;" d="M410.353 746.667h-293.020c-17.673 0-32-14.327-32-32v-21.333c0-17.673 14.327-32 32-32h255.373l37.647 85.333zM335.059 576h-217.726c-17.673 0-32-14.327-32-32v-21.333c0-17.673 14.327-32 32-32h180.079l37.647 85.333zM726.588 490.667l-37.647 85.333h217.726c17.673 0 32-14.327 32-32v-21.333c0-17.673-14.327-32-32-32h-180.079zM259.765 405.333h-142.432c-17.673 0-32-14.327-32-32v-21.333c0-17.673 14.327-32 32-32h104.785l37.647 85.333zM801.882 320l-37.647 85.333h142.432c17.673 0 32-14.327 32-32v-21.333c0-17.673-14.327-32-32-32h-104.785zM184.471 234.667h-67.137c-17.673 0-32-14.327-32-32v-21.333c0-17.673 14.327-32 32-32h29.49l37.647 85.333zM877.175 149.333l-37.647 85.333h67.138c17.673 0 32-14.327 32-32v-21.333c0-17.673-14.327-32-32-32h-29.491zM651.294 661.333l-37.647 85.333h293.020c17.673 0 32-14.327 32-32v-21.333c0-17.673-14.327-32-32-32h-255.373z" />
<glyph unicode="&#xe91c;" d="M471.211 735.74h83.712l234.411-586.411h-106.667l-54.784 167.083h-235.776l-72.107-167.083h-106.667l257.877 586.411zM594.091 399.356l-83.712 221.184-85.248-221.184h168.96z" />
<glyph unicode="&#xe91d;" d="M202.667 746.667c-17.673 0-32-14.327-32-32v-21.333c0-17.673 14.327-32 32-32h618.667c17.673 0 32 14.327 32 32v21.333c0 17.673-14.327 32-32 32h-618.667zM202.667 405.333c-17.673 0-32-14.327-32-32v-21.333c0-17.673 14.327-32 32-32h618.667c17.673 0 32 14.327 32 32v21.333c0 17.673-14.327 32-32 32h-618.667z" />
<glyph unicode="&#xe91e;" d="M330.667 576c-17.673 0-32-14.327-32-32v-21.333c0-17.673 14.327-32 32-32h362.667c17.673 0 32 14.327 32 32v21.333c0 17.673-14.327 32-32 32h-362.667zM330.667 234.667c-17.673 0-32-14.327-32-32v-21.333c0-17.673 14.327-32 32-32h362.667c17.673 0 32 14.327 32 32v21.333c0 17.673-14.327 32-32 32h-362.667z" />
<glyph unicode="&#xe91f;" d="M202.667 746.667c-17.673 0-32-14.327-32-32v-21.333c0-17.673 14.327-32 32-32h618.667c17.673 0 32 14.327 32 32v21.333c0 17.673-14.327 32-32 32h-618.667zM202.667 405.333c-17.673 0-32-14.327-32-32v-21.333c0-17.673 14.327-32 32-32h618.667c17.673 0 32 14.327 32 32v21.333c0 17.673-14.327 32-32 32h-618.667z" />
<glyph unicode="&#xe920;" d="M202.667 576c-17.673 0-32-14.327-32-32v-21.333c0-17.673 14.327-32 32-32h618.667c17.673 0 32 14.327 32 32v21.333c0 17.673-14.327 32-32 32h-618.667zM202.667 234.667c-17.673 0-32-14.327-32-32v-21.333c0-17.673 14.327-32 32-32h618.667c17.673 0 32 14.327 32 32v21.333c0 17.673-14.327 32-32 32h-618.667z" />
<glyph unicode="&#xe921;" d="M202.667 746.667h618.667c17.673 0 32-14.327 32-32v-21.333c0-17.673-14.327-32-32-32h-618.667c-17.673 0-32 14.327-32 32v21.333c0 17.673 14.327 32 32 32z" />
<glyph unicode="&#xe922;" d="M202.667 405.333h618.667c17.673 0 32-14.327 32-32v-21.333c0-17.673-14.327-32-32-32h-618.667c-17.673 0-32 14.327-32 32v21.333c0 17.673 14.327 32 32 32z" />
<glyph unicode="&#xe923;" d="M202.667 576c-17.673 0-32-14.327-32-32v-21.333c0-17.673 14.327-32 32-32h362.667c17.673 0 32 14.327 32 32v21.333c0 17.673-14.327 32-32 32h-362.667zM202.667 234.667c-17.673 0-32-14.327-32-32v-21.333c0-17.673 14.327-32 32-32h362.667c17.673 0 32 14.327 32 32v21.333c0 17.673-14.327 32-32 32h-362.667z" />
<glyph unicode="&#xe924;" d="M202.667 746.667c-17.673 0-32-14.327-32-32v-21.333c0-17.673 14.327-32 32-32h618.667c17.673 0 32 14.327 32 32v21.333c0 17.673-14.327 32-32 32h-618.667zM202.667 405.333c-17.673 0-32-14.327-32-32v-21.333c0-17.673 14.327-32 32-32h618.667c17.673 0 32 14.327 32 32v21.333c0 17.673-14.327 32-32 32h-618.667z" />
<glyph unicode="&#xe925;" d="M458.667 576c-17.673 0-32-14.327-32-32v-21.333c0-17.673 14.327-32 32-32h362.667c17.673 0 32 14.327 32 32v21.333c0 17.673-14.327 32-32 32h-362.667zM458.667 234.667c-17.673 0-32-14.327-32-32v-21.333c0-17.673 14.327-32 32-32h362.667c17.673 0 32 14.327 32 32v21.333c0 17.673-14.327 32-32 32h-362.667z" />
<glyph unicode="&#xe926;" d="M341.333 661.333h341.333v-85.333h-341.333v85.333z" />
<glyph unicode="&#xe927;" d="M512 277.333c70.692 0 128 57.308 128 128s-57.308 128-128 128c-70.692 0-128-57.308-128-128s57.308-128 128-128z" />
<glyph unicode="&#xe928;" d="M512 21.333c70.692 0 128 57.308 128 128s-57.308 128-128 128c-70.692 0-128-57.308-128-128s57.308-128 128-128z" />
<glyph unicode="&#xe929;" d="M554.667 661.333v-320c0-11.782-9.551-21.333-21.333-21.333h-42.667c-11.782 0-21.333 9.551-21.333 21.333v320h-106.667c-11.782 0-21.333 9.551-21.333 21.333v42.667c0 11.782 9.551 21.333 21.333 21.333h298.667c11.782 0 21.333-9.551 21.333-21.333v-42.667c0-11.782-9.551-21.333-21.333-21.333h-106.667z" />
<glyph unicode="&#xe92a;" d="M512 618.667c70.692 0 128 57.308 128 128s-57.308 128-128 128c-70.692 0-128-57.308-128-128s57.308-128 128-128z" />
<glyph unicode="&#xe92b;" d="M554.667 490.667v-320c0-11.782-9.551-21.333-21.333-21.333h-42.667c-11.782 0-21.333 9.551-21.333 21.333v320h-106.667c-11.782 0-21.333 9.551-21.333 21.333v42.667c0 11.782 9.551 21.333 21.333 21.333h298.667c11.782 0 21.333-9.551 21.333-21.333v-42.667c0-11.782-9.551-21.333-21.333-21.333h-106.667z" />
<glyph unicode="&#xe92c;" d="M213.333 320c70.692 0 128 57.308 128 128s-57.308 128-128 128c-70.692 0-128-57.308-128-128s57.308-128 128-128z" />
<glyph unicode="&#xe92d;" d="M640 576v-320c0-11.782-9.551-21.333-21.333-21.333h-42.667c-11.782 0-21.333 9.551-21.333 21.333v320h-106.667c-11.782 0-21.333 9.551-21.333 21.333v42.667c0 11.782 9.551 21.333 21.333 21.333h298.667c11.782 0 21.333-9.551 21.333-21.333v-42.667c0-11.782-9.551-21.333-21.333-21.333h-106.667z" />
<glyph unicode="&#xe92e;" d="M213.333 21.333c70.692 0 128 57.308 128 128s-57.308 128-128 128c-70.692 0-128-57.308-128-128s57.308-128 128-128z" />
<glyph unicode="&#xe92f;" d="M640 661.333v-320c0-11.782-9.551-21.333-21.333-21.333h-42.667c-11.782 0-21.333 9.551-21.333 21.333v320h-106.667c-11.782 0-21.333 9.551-21.333 21.333v42.667c0 11.782 9.551 21.333 21.333 21.333h298.667c11.782 0 21.333-9.551 21.333-21.333v-42.667c0-11.782-9.551-21.333-21.333-21.333h-106.667z" />
<glyph unicode="&#xe930;" d="M213.333 618.667c70.692 0 128 57.308 128 128s-57.308 128-128 128c-70.692 0-128-57.308-128-128s57.308-128 128-128z" />
<glyph unicode="&#xe931;" d="M640 490.667v-320c0-11.782-9.551-21.333-21.333-21.333h-42.667c-11.782 0-21.333 9.551-21.333 21.333v320h-106.667c-11.782 0-21.333 9.551-21.333 21.333v42.667c0 11.782 9.551 21.333 21.333 21.333h298.667c11.782 0 21.333-9.551 21.333-21.333v-42.667c0-11.782-9.551-21.333-21.333-21.333h-106.667z" />
<glyph unicode="&#xe932;" d="M810.667 320c70.692 0 128 57.308 128 128s-57.308 128-128 128c-70.692 0-128-57.308-128-128s57.308-128 128-128z" />
<glyph unicode="&#xe933;" d="M469.333 576v-320c0-11.782-9.551-21.333-21.333-21.333h-42.667c-11.782 0-21.333 9.551-21.333 21.333v320h-106.667c-11.782 0-21.333 9.551-21.333 21.333v42.667c0 11.782 9.551 21.333 21.333 21.333h298.667c11.782 0 21.333-9.551 21.333-21.333v-42.667c0-11.782-9.551-21.333-21.333-21.333h-106.667z" />
<glyph unicode="&#xe934;" d="M810.667 21.333c70.692 0 128 57.308 128 128s-57.308 128-128 128c-70.692 0-128-57.308-128-128s57.308-128 128-128z" />
<glyph unicode="&#xe935;" d="M469.333 661.333v-320c0-11.782-9.551-21.333-21.333-21.333h-42.667c-11.782 0-21.333 9.551-21.333 21.333v320h-106.667c-11.782 0-21.333 9.551-21.333 21.333v42.667c0 11.782 9.551 21.333 21.333 21.333h298.667c11.782 0 21.333-9.551 21.333-21.333v-42.667c0-11.782-9.551-21.333-21.333-21.333h-106.667z" />
<glyph unicode="&#xe936;" d="M810.667 618.667c70.692 0 128 57.308 128 128s-57.308 128-128 128c-70.692 0-128-57.308-128-128s57.308-128 128-128z" />
<glyph unicode="&#xe937;" d="M469.333 490.667v-320c0-11.782-9.551-21.333-21.333-21.333h-42.667c-11.782 0-21.333 9.551-21.333 21.333v320h-106.667c-11.782 0-21.333 9.551-21.333 21.333v42.667c0 11.782 9.551 21.333 21.333 21.333h298.667c11.782 0 21.333-9.551 21.333-21.333v-42.667c0-11.782-9.551-21.333-21.333-21.333h-106.667z" />
<glyph unicode="&#xe938;" d="M694.857 874.667h-365.713c-40.397 0-73.143-38.205-73.143-85.333v-682.667c0-47.127 32.747-85.333 73.143-85.333h365.713c40.397 0 73.143 38.206 73.143 85.333v682.667c0 47.128-32.747 85.333-73.143 85.333zM320 149.333v640h384v-640h-384z" />
<glyph unicode="&#xe939;" d="M320 789.333v-640h384v640h-384z" />
<glyph unicode="&#xe93a;" d="M801.203 758.539c91.644-91.644 91.644-240.226 0-331.87-91.642-91.642-240.224-91.642-331.868 0-91.644 91.644-91.644 240.226 0 331.87s240.226 91.643 331.868 0zM574.929 532.265c33.325-33.325 87.356-33.325 120.681 0s33.325 87.356 0 120.678c-33.325 33.325-87.356 33.325-120.681 0-33.325-33.323-33.325-87.354 0-120.678zM665.44 562.434c16.663 16.663 16.663 43.678 0 60.339-16.661 16.663-43.676 16.663-60.339 0-16.661-16.661-16.661-43.676 0-60.339 16.663-16.661 43.678-16.661 60.339 0z" />
<glyph unicode="&#xe93b;" d="M122.381 109.879c-33.325 33.325-33.325 87.354 0 120.678l362.039 362.039c33.325 33.325 87.356 33.325 120.678 0l60.341-60.339c33.325-33.325 33.325-87.356 0-120.681l-362.039-362.039c-33.325-33.323-87.354-33.323-120.679 0l-60.34 60.341z" />
<glyph unicode="&#xe93c;" d="M428.606 829.428c-99.531-141.462-98.91-323.467 10.558-432.935 109.47-109.47 291.475-110.091 432.937-10.56l-443.494 443.495zM967.723 923.878c-0.194 0.196-0.39 0.391-0.585 0.587-0.196 0.195-0.393 0.39-0.587 0.585l1.171-1.172z" />
<glyph unicode="&#xe93d;" d="M737.83 755.503c16.661 16.662 43.678 16.662 60.339 0 16.663-16.662 16.663-43.678 0-60.339l-256-256c-16.151-16.154-42.161-16.719-59.002-1.282l-256 234.667c-17.369 15.923-18.543 42.912-2.62 60.282 15.923 17.372 42.912 18.545 60.282 2.622l225.886-207.061 227.115 227.113z" />
<glyph unicode="&#xe93e;" d="M737.83 456.836c16.661 16.663 43.678 16.663 60.339 0 16.663-16.661 16.663-43.678 0-60.339l-256-256c-16.151-16.154-42.161-16.719-59.002-1.282l-256 234.667c-17.369 15.923-18.543 42.912-2.62 60.284 15.923 17.37 42.912 18.543 60.282 2.62l225.886-207.061 227.115 227.113z" />
<glyph unicode="&#xe93f;" d="M542.17 673.83c16.663 16.661 16.663 43.678 0 60.339-16.661 16.663-43.678 16.663-60.339 0l-256-256c-16.153-16.151-16.718-42.161-1.282-58.999l234.667-256c15.923-17.372 42.912-18.545 60.282-2.622 17.372 15.923 18.545 42.912 2.622 60.282l-207.061 225.886 227.113 227.115z" />
<glyph unicode="&#xe940;" d="M840.836 673.83c16.663 16.661 16.663 43.678 0 60.339-16.661 16.663-43.678 16.663-60.339 0l-256-256c-16.154-16.151-16.719-42.161-1.282-58.999l234.667-256c15.923-17.372 42.912-18.545 60.282-2.622 17.372 15.923 18.545 42.912 2.622 60.282l-207.061 225.886 227.113 227.115z" />
<glyph unicode="&#xe941;" d="M524.497 673.83c-16.663 16.661-16.663 43.678 0 60.339 16.661 16.663 43.678 16.663 60.339 0l256-256c16.154-16.151 16.719-42.161 1.282-58.999l-234.667-256c-15.923-17.372-42.912-18.545-60.282-2.622-17.372 15.923-18.545 42.912-2.622 60.282l207.061 225.886-227.113 227.115z" />
<glyph unicode="&#xe942;" d="M225.83 673.83c-16.663 16.661-16.663 43.678 0 60.339 16.661 16.663 43.678 16.663 60.339 0l256-256c16.154-16.151 16.719-42.161 1.282-58.999l-234.667-256c-15.923-17.372-42.912-18.545-60.284-2.622-17.37 15.923-18.543 42.912-2.62 60.282l207.061 225.886-227.113 227.115z" />
<glyph unicode="&#xe943;" d="M737.83 140.497c16.661-16.663 43.678-16.663 60.339 0 16.663 16.661 16.663 43.678 0 60.339l-256 256c-16.151 16.154-42.161 16.719-59.002 1.282l-256-234.667c-17.369-15.923-18.543-42.912-2.62-60.282 15.923-17.372 42.912-18.545 60.282-2.622l225.886 207.061 227.115-227.113z" />
<glyph unicode="&#xe944;" d="M737.83 439.164c16.661-16.663 43.678-16.663 60.339 0 16.663 16.661 16.663 43.678 0 60.339l-256 256c-16.151 16.153-42.161 16.718-59.002 1.282l-256-234.667c-17.369-15.923-18.543-42.912-2.62-60.284 15.923-17.37 42.912-18.543 60.282-2.62l225.886 207.061 227.115-227.113z" />
<glyph unicode="&#xe945;" glyph-name="angle-down" d="M737.83 606.17c16.661 16.663 43.678 16.663 60.339 0 16.663-16.661 16.663-43.678 0-60.339l-256-256c-16.151-16.154-42.161-16.719-59.002-1.282l-256 234.667c-17.369 15.923-18.543 42.912-2.62 60.284 15.923 17.37 42.912 18.543 60.282 2.62l225.886-207.061 227.115 227.113z" />
<glyph unicode="&#xe946;" glyph-name="angle-left" d="M670.17 673.83c16.663 16.661 16.663 43.678 0 60.339-16.661 16.663-43.678 16.663-60.339 0l-256-256c-16.154-16.151-16.719-42.161-1.282-58.999l234.667-256c15.923-17.372 42.912-18.545 60.284-2.622 17.37 15.923 18.543 42.912 2.62 60.282l-207.061 225.886 227.113 227.115z" />
<glyph unicode="&#xe947;" glyph-name="angle-right" d="M353.83 673.83c-16.663 16.661-16.663 43.678 0 60.339 16.661 16.663 43.678 16.663 60.339 0l256-256c16.154-16.151 16.719-42.161 1.282-58.999l-234.667-256c-15.923-17.372-42.912-18.545-60.284-2.622-17.37 15.923-18.543 42.912-2.62 60.282l207.061 225.886-227.113 227.115z" />
<glyph unicode="&#xe948;" glyph-name="angle-up" d="M286.17 289.83c-16.661-16.663-43.678-16.663-60.339 0-16.663 16.661-16.663 43.678 0 60.339l256 256c16.151 16.154 42.161 16.719 58.999 1.282l256-234.667c17.372-15.923 18.545-42.912 2.622-60.284-15.923-17.37-42.912-18.543-60.282-2.62l-225.886 207.061-227.115-227.113z" />
<glyph unicode="&#xe949;" d="M701.888 781.832c20.474-11.667 27.612-37.723 15.945-58.195-11.669-20.474-37.724-27.612-58.197-15.945-44.604 25.421-95.083 38.974-147.635 38.974-164.949 0-298.667-133.717-298.667-298.667s133.717-298.667 298.667-298.667c52.026 0 102.022 13.282 146.306 38.221 20.533 11.561 46.549 4.29 58.112-16.243 11.563-20.531 4.292-46.549-16.241-58.112-56.983-32.090-121.387-49.199-188.177-49.199-212.077 0-384 171.923-384 384s171.923 384 384 384c67.467 0 132.493-17.459 189.888-50.168z" />
<glyph unicode="&#xe94a;" d="M746.667 704c-35.347 0-64-28.653-64-64v-384c0-35.347 28.653-64 64-64h85.333c35.347 0 64 28.653 64 64v384c0 35.347-28.653 64-64 64h-85.333zM853.333 512c0-35.347-28.653-64-64-64s-64 28.653-64 64c0 35.347 28.653 64 64 64s64-28.653 64-64z" />
<glyph unicode="&#xe94b;" glyph-name="archive" d="M160 832h704c17.673 0 32-14.327 32-32v-704c0-17.673-14.327-32-32-32h-704c-17.673 0-32 14.327-32 32v704c0 17.673 14.327 32 32 32zM330.667 746.667c-17.673 0-32-14.327-32-32v-21.333c0-17.673 14.327-32 32-32h362.667c17.673 0 32 14.327 32 32v21.333c0 17.673-14.327 32-32 32h-362.667z" />
<glyph unicode="&#xe94c;" d="M853.333 618.667h-77.914c-47.127 0-85.333-38.206-85.333-85.333v-85.333c0-23.565-19.102-42.667-42.667-42.667h-268.986c-23.563 0-42.667 19.102-42.667 42.667v85.333c0 47.127-38.204 85.333-85.333 85.333h-79.767v85.333c0 70.692 57.308 128 128 128h426.667c70.692 0 128-57.308 128-128v-85.333z" />
<glyph unicode="&#xe94d;" d="M771.499 44.239c5.89-10.204 2.394-23.251-7.808-29.141l-36.951-21.333c-10.204-5.892-23.251-2.396-29.141 7.808l-106.667 184.753c-5.892 10.204-2.396 23.249 7.808 29.141l36.951 21.333c10.202 5.89 23.249 2.396 29.141-7.808l106.667-184.753zM252.158 42.944c-5.89-10.204-2.394-23.251 7.81-29.141l36.949-21.333c10.204-5.89 23.251-2.396 29.141 7.808l106.667 184.753c5.892 10.204 2.396 23.251-7.808 29.141l-36.949 21.333c-10.204 5.89-23.251 2.396-29.143-7.808l-106.667-184.753z" />
<glyph unicode="&#xe94e;" d="M853.333 533.333v-213.333c0-70.692-57.308-128-128-128h-426.667c-70.692 0-128 57.308-128 128v213.333h79.767v-85.333c0-70.692 57.308-128 128-128h268.986c70.692 0 128 57.308 128 128v85.333h77.914z" />
<glyph unicode="&#xe94f;" d="M490.667 746.667h42.667c11.782 0 21.333-9.551 21.333-21.333v-554.667c0-11.782-9.551-21.333-21.333-21.333h-42.667c-11.782 0-21.333 9.551-21.333 21.333v554.667c0 11.782 9.551 21.333 21.333 21.333z" />
<glyph unicode="&#xe950;" d="M286.17 478.17c-16.661 16.663-43.678 16.663-60.339 0-16.663-16.661-16.663-43.678 0-60.339l256-256c16.151-16.154 42.161-16.719 58.999-1.282l256 234.667c17.372 15.923 18.545 42.912 2.622 60.284-15.923 17.37-42.912 18.543-60.282 2.62l-225.886-207.061-227.115 227.113z" />
<glyph unicode="&#xe951;" d="M490.667 832h42.667c11.782 0 21.333-9.551 21.333-21.333v-554.667c0-11.782-9.551-21.333-21.333-21.333h-42.667c-11.782 0-21.333 9.551-21.333 21.333v554.667c0 11.782 9.551 21.333 21.333 21.333z" />
<glyph unicode="&#xe952;" d="M286.17 503.164c-16.661-16.663-43.678-16.663-60.339 0-16.663 16.661-16.663 43.678 0 60.339l256 256c16.151 16.153 42.161 16.718 58.999 1.282l256-234.667c17.372-15.923 18.545-42.912 2.622-60.284-15.923-17.37-42.912-18.543-60.282-2.62l-225.886 207.061-227.115-227.113z" />
<glyph unicode="&#xe953;" d="M160 149.333h704c17.673 0 32-14.327 32-32v-21.333c0-17.673-14.327-32-32-32h-704c-17.673 0-32 14.327-32 32v21.333c0 17.673 14.327 32 32 32z" />
<glyph unicode="&#xe954;" d="M298.667 426.667v42.667c0 11.782 9.551 21.333 21.333 21.333h554.667c11.782 0 21.333-9.551 21.333-21.333v-42.667c0-11.782-9.551-21.333-21.333-21.333h-554.667c-11.782 0-21.333 9.551-21.333 21.333z" />
<glyph unicode="&#xe955;" d="M160 832h21.333c17.673 0 32-14.327 32-32v-704c0-17.673-14.327-32-32-32h-21.333c-17.673 0-32 14.327-32 32v704c0 17.673 14.327 32 32 32z" />
<glyph unicode="&#xe956;" d="M567.164 222.17c-16.663-16.661-16.663-43.678 0-60.339 16.661-16.663 43.678-16.663 60.339 0l256 256c16.154 16.151 16.719 42.161 1.282 58.999l-234.667 256c-15.923 17.372-42.912 18.545-60.284 2.622-17.37-15.923-18.543-42.912-2.62-60.282l207.061-225.886-227.113-227.115z" />
<glyph unicode="&#xe957;" d="M725.333 426.667v42.667c0 11.782-9.551 21.333-21.333 21.333h-554.667c-11.782 0-21.333-9.551-21.333-21.333v-42.667c0-11.782 9.551-21.333 21.333-21.333h554.667c11.782 0 21.333 9.551 21.333 21.333z" />
<glyph unicode="&#xe958;" d="M842.667 832h21.333c17.673 0 32-14.327 32-32v-704c0-17.673-14.327-32-32-32h-21.333c-17.673 0-32 14.327-32 32v704c0 17.673 14.327 32 32 32z" />
<glyph unicode="&#xe959;" d="M456.836 222.17c16.663-16.661 16.663-43.678 0-60.339-16.661-16.663-43.678-16.663-60.339 0l-256 256c-16.153 16.151-16.718 42.161-1.282 58.999l234.667 256c15.923 17.372 42.912 18.545 60.284 2.622 17.37-15.923 18.543-42.912 2.62-60.282l-207.061-225.886 227.113-227.115z" />
<glyph unicode="&#xe95a;" d="M490.667 661.333h42.667c11.782 0 21.333-9.551 21.333-21.333v-554.667c0-11.782-9.551-21.333-21.333-21.333h-42.667c-11.782 0-21.333 9.551-21.333 21.333v554.667c0 11.782 9.551 21.333 21.333 21.333z" />
<glyph unicode="&#xe95b;" d="M286.17 392.836c-16.661 16.663-43.678 16.663-60.339 0-16.663-16.661-16.663-43.678 0-60.339l256-256c16.151-16.154 42.161-16.719 58.999-1.282l256 234.667c17.372 15.923 18.545 42.912 2.622 60.284-15.923 17.37-42.912 18.543-60.282 2.62l-225.886-207.061-227.115 227.113z" />
<glyph unicode="&#xe95c;" d="M160 832h704c17.673 0 32-14.327 32-32v-21.333c0-17.673-14.327-32-32-32h-704c-17.673 0-32 14.327-32 32v21.333c0 17.673 14.327 32 32 32z" />
<glyph unicode="&#xe95d;" d="M810.667 426.667v42.667c0 11.782-9.551 21.333-21.333 21.333h-554.667c-11.782 0-21.333-9.551-21.333-21.333v-42.667c0-11.782 9.551-21.333 21.333-21.333h554.667c11.782 0 21.333 9.551 21.333 21.333z" />
<glyph unicode="&#xe95e;" d="M542.17 222.17c16.663-16.661 16.663-43.678 0-60.339-16.661-16.663-43.678-16.663-60.339 0l-256 256c-16.153 16.151-16.718 42.161-1.282 58.999l234.667 256c15.923 17.372 42.912 18.545 60.282 2.622 17.372-15.923 18.545-42.912 2.622-60.282l-207.061-225.886 227.113-227.115z" />
<glyph unicode="&#xe95f;" d="M213.333 426.667v42.667c0 11.782 9.551 21.333 21.333 21.333h554.667c11.782 0 21.333-9.551 21.333-21.333v-42.667c0-11.782-9.551-21.333-21.333-21.333h-554.667c-11.782 0-21.333 9.551-21.333 21.333z" />
<glyph unicode="&#xe960;" d="M481.83 222.17c-16.663-16.661-16.663-43.678 0-60.339 16.661-16.663 43.678-16.663 60.339 0l256 256c16.154 16.151 16.719 42.161 1.282 58.999l-234.667 256c-15.923 17.372-42.912 18.545-60.284 2.622-17.37-15.923-18.543-42.912-2.62-60.282l207.061-225.886-227.113-227.115z" />
<glyph unicode="&#xe961;" d="M138.979 490.662c-11.782 0-21.333-9.551-21.333-21.333v-42.667c0-11.78 9.551-21.333 21.333-21.333h330.352v-394.98c0-11.78 9.551-21.333 21.333-21.333h42.667c11.782 0 21.333 9.553 21.333 21.333v394.98h394.98c11.782 0 21.333 9.553 21.333 21.333v42.667c0 11.782-9.551 21.333-21.333 21.333h-394.98v330.354c0 11.782-9.551 21.333-21.333 21.333h-42.667c-11.78 0-21.333-9.551-21.333-21.333v-330.354h-330.352z" />
<glyph unicode="&#xe962;" d="M421.489 719.52l90.511 90.509 90.509-90.509c0 0 30.17-30.172 60.339 0 30.17 30.169 0 60.339 0 60.339l-150.848 150.849-150.85-150.849c0 0-24.994-35.347 0-60.339 24.994-24.994 60.339 0 60.339 0zM240.471 357.481l-90.511 90.509 90.511 90.511c0 0 30.17 30.17 0 60.339-30.171 30.17-60.341 0-60.341 0l-150.849-150.85 150.849-150.848c0 0 35.347-24.994 60.341 0 24.992 24.992 0 60.339 0 60.339zM602.509 176.461l-90.509-90.509-90.511 90.509c0 0-30.17 30.17-60.339 0s0-60.339 0-60.339l150.85-150.85 150.848 150.85c0 0 24.994 35.347 0 60.339-24.992 24.994-60.339 0-60.339 0zM874.037 447.991l-90.509 90.509c0 0-24.994 35.345 0 60.339s60.339 0 60.339 0l150.85-150.848-150.85-150.85c0 0-30.17-30.17-60.339 0s0 60.339 0 60.339l90.509 90.511z" />
<glyph unicode="&#xe963;" d="M320 490.667h384c11.782 0 21.333-9.551 21.333-21.333v-42.667c0-11.782-9.551-21.333-21.333-21.333h-384c-11.782 0-21.333 9.551-21.333 21.333v42.667c0 11.782 9.551 21.333 21.333 21.333z" />
<glyph unicode="&#xe964;" d="M652.497 673.83c-16.663 16.661-16.663 43.678 0 60.339 16.661 16.663 43.678 16.663 60.339 0l256-256c16.154-16.151 16.719-42.161 1.282-58.999l-234.667-256c-15.923-17.372-42.912-18.545-60.282-2.622-17.372 15.923-18.545 42.912-2.622 60.282l207.061 225.886-227.113 227.115z" />
<glyph unicode="&#xe965;" d="M371.503 222.17c16.663-16.661 16.663-43.678 0-60.339-16.661-16.663-43.678-16.663-60.339 0l-256 256c-16.153 16.151-16.718 42.161-1.282 59.002l234.667 256c15.923 17.369 42.912 18.543 60.284 2.62 17.37-15.923 18.543-42.912 2.62-60.282l-207.062-225.886 227.113-227.115z" />
<glyph unicode="&#xe966;" d="M469.333 256v384c0 11.782 9.551 21.333 21.333 21.333h42.667c11.782 0 21.333-9.551 21.333-21.333v-384c0-11.782-9.551-21.333-21.333-21.333h-42.667c-11.782 0-21.333 9.551-21.333 21.333z" />
<glyph unicode="&#xe967;" d="M286.17 588.497c-16.661-16.663-43.678-16.663-60.339 0-16.663 16.661-16.663 43.678 0 60.339l256 256c16.151 16.153 42.161 16.718 58.999 1.282l256-234.667c17.372-15.923 18.545-42.912 2.622-60.284-15.923-17.37-42.912-18.543-60.282-2.62l-225.886 207.062-227.115-227.113z" />
<glyph unicode="&#xe968;" d="M737.83 307.503c16.661 16.663 43.678 16.663 60.339 0 16.663-16.661 16.663-43.678 0-60.339l-256-256c-16.151-16.154-42.161-16.719-59.002-1.282l-256 234.667c-17.369 15.923-18.543 42.912-2.62 60.284 15.923 17.37 42.912 18.543 60.282 2.62l225.886-207.061 227.115 227.113z" />
<glyph unicode="&#xe969;" d="M490.667 832h42.667c11.782 0 21.333-9.551 21.333-21.333v-554.667c0-11.782-9.551-21.333-21.333-21.333h-42.667c-11.782 0-21.333 9.551-21.333 21.333v554.667c0 11.782 9.551 21.333 21.333 21.333z" />
<glyph unicode="&#xe96a;" d="M286.17 563.503c-16.661 16.663-43.678 16.663-60.339 0-16.663-16.661-16.663-43.678 0-60.339l256-256c16.151-16.154 42.161-16.719 58.999-1.282l256 234.667c17.372 15.923 18.545 42.912 2.622 60.284-15.923 17.37-42.912 18.543-60.282 2.62l-225.886-207.061-227.115 227.113z" />
<glyph unicode="&#xe96b;" d="M160 149.333h704c17.673 0 32-14.327 32-32v-21.333c0-17.673-14.327-32-32-32h-704c-17.673 0-32 14.327-32 32v21.333c0 17.673 14.327 32 32 32z" />
<glyph unicode="&#xe96c;" d="M896 426.667v42.667c0 11.782-9.551 21.333-21.333 21.333h-554.667c-11.782 0-21.333-9.551-21.333-21.333v-42.667c0-11.782 9.551-21.333 21.333-21.333h554.667c11.782 0 21.333 9.551 21.333 21.333z" />
<glyph unicode="&#xe96d;" d="M160 832h21.333c17.673 0 32-14.327 32-32v-704c0-17.673-14.327-32-32-32h-21.333c-17.673 0-32 14.327-32 32v704c0 17.673 14.327 32 32 32z" />
<glyph unicode="&#xe96e;" d="M627.503 222.17c16.663-16.661 16.663-43.678 0-60.339-16.661-16.663-43.678-16.663-60.339 0l-256 256c-16.154 16.151-16.719 42.161-1.282 58.999l234.667 256c15.923 17.372 42.912 18.545 60.284 2.622 17.37-15.923 18.543-42.912 2.62-60.282l-207.061-225.886 227.113-227.115z" />
<glyph unicode="&#xe96f;" d="M128 426.667v42.667c0 11.782 9.551 21.333 21.333 21.333h554.667c11.782 0 21.333-9.551 21.333-21.333v-42.667c0-11.782-9.551-21.333-21.333-21.333h-554.667c-11.782 0-21.333 9.551-21.333 21.333z" />
<glyph unicode="&#xe970;" d="M842.667 832h21.333c17.673 0 32-14.327 32-32v-704c0-17.673-14.327-32-32-32h-21.333c-17.673 0-32 14.327-32 32v704c0 17.673 14.327 32 32 32z" />
<glyph unicode="&#xe971;" d="M396.497 222.17c-16.663-16.661-16.663-43.678 0-60.339 16.661-16.663 43.678-16.663 60.339 0l256 256c16.154 16.151 16.719 42.161 1.282 58.999l-234.667 256c-15.923 17.372-42.912 18.545-60.284 2.622-17.37-15.923-18.543-42.912-2.62-60.282l207.061-225.886-227.113-227.115z" />
<glyph unicode="&#xe972;" d="M490.667 661.333h42.667c11.782 0 21.333-9.551 21.333-21.333v-554.667c0-11.782-9.551-21.333-21.333-21.333h-42.667c-11.782 0-21.333 9.551-21.333 21.333v554.667c0 11.782 9.551 21.333 21.333 21.333z" />
<glyph unicode="&#xe973;" d="M286.17 332.497c-16.661-16.663-43.678-16.663-60.339 0-16.663 16.661-16.663 43.678 0 60.339l256 256c16.151 16.154 42.161 16.719 58.999 1.282l256-234.667c17.372-15.923 18.545-42.912 2.622-60.284-15.923-17.37-42.912-18.543-60.282-2.62l-225.886 207.061-227.115-227.113z" />
<glyph unicode="&#xe974;" d="M160 832h704c17.673 0 32-14.327 32-32v-21.333c0-17.673-14.327-32-32-32h-704c-17.673 0-32 14.327-32 32v21.333c0 17.673 14.327 32 32 32z" />
<glyph unicode="&#xe975;" d="M490.667 746.667h42.667c11.782 0 21.333-9.551 21.333-21.333v-554.667c0-11.782-9.551-21.333-21.333-21.333h-42.667c-11.782 0-21.333 9.551-21.333 21.333v554.667c0 11.782 9.551 21.333 21.333 21.333z" />
<glyph unicode="&#xe976;" d="M286.17 417.83c-16.661-16.663-43.678-16.663-60.339 0-16.663 16.661-16.663 43.678 0 60.339l256 256c16.151 16.153 42.161 16.718 58.999 1.282l256-234.667c17.372-15.923 18.545-42.912 2.622-60.284-15.923-17.37-42.912-18.543-60.282-2.62l-225.886 207.061-227.115-227.113z" />
<glyph unicode="&#xe977;" d="M202.667 746.667h618.667c17.673 0 32-14.327 32-32v-64c0-17.673-14.327-32-32-32h-618.667c-17.673 0-32 14.327-32 32v64c0 17.673 14.327 32 32 32z" />
<glyph unicode="&#xe978;" d="M202.667 533.333c-17.673 0-32-14.327-32-32v-64c0-17.673 14.327-32 32-32h362.667c17.673 0 32 14.327 32 32v64c0 17.673-14.327 32-32 32h-362.667zM202.667 320c-17.673 0-32-14.327-32-32v-64c0-17.673 14.327-32 32-32h618.667c17.673 0 32 14.327 32 32v64c0 17.673-14.327 32-32 32h-618.667z" />
<glyph unicode="&#xe979;" d="M106.667 789.333h810.667c11.782 0 21.333-9.551 21.333-21.333v-170.667c0-11.782-9.551-21.333-21.333-21.333h-810.667c-11.782 0-21.333 9.551-21.333 21.333v170.667c0 11.782 9.551 21.333 21.333 21.333z" />
<glyph unicode="&#xe97a;" d="M213.333 661.333v-554.667c0-23.565 19.102-42.667 42.667-42.667h85.333v597.333h-128zM469.333 661.333v-597.333h298.667c23.565 0 42.667 19.102 42.667 42.667v554.667h-341.333z" />
<glyph unicode="&#xe97b;" d="M421.489 417.828l-90.511-90.509c-16.661-16.663-16.661-43.678 0-60.341 16.663-16.661 43.678-16.661 60.341 0l90.509 90.511 30.17-30.17c33.325-33.325 33.325-87.356 0-120.681l-120.678-120.678c-33.325-33.325-87.356-33.325-120.681 0l-120.679 120.678c-33.325 33.325-33.325 87.356 0 120.681l120.679 120.678c33.325 33.325 87.356 33.325 120.681 0l30.17-30.17z" />
<glyph unicode="&#xe97c;" d="M602.511 478.172l90.509 90.509c16.663 16.663 16.663 43.678 0 60.341-16.661 16.661-43.676 16.661-60.339 0l-90.509-90.511-30.17 30.17c-33.325 33.325-33.325 87.356 0 120.681l120.678 120.679c33.325 33.325 87.356 33.325 120.681 0l120.678-120.679c33.325-33.325 33.325-87.356 0-120.681l-120.678-120.678c-33.325-33.325-87.356-33.325-120.681 0l-30.17 30.17z" />
<glyph unicode="&#xe97d;" d="M165.045 734.615c-8.331 8.331-8.331 21.838 0 30.17l30.17 30.17c8.331 8.331 21.839 8.331 30.169 0l90.511-90.509c8.331-8.333 8.331-21.839 0-30.17l-30.17-30.172c-8.333-8.331-21.839-8.331-30.172 0l-90.509 90.511zM355.974 874.040c0 11.782 9.551 21.333 21.333 21.333h42.667c11.78 0 21.333-9.551 21.333-21.333v-128c0-11.782-9.553-21.333-21.333-21.333h-42.667c-11.782 0-21.333 9.551-21.333 21.333v128zM71.948 590.014c0 11.782 9.551 21.333 21.333 21.333h127.999c11.782 0 21.333-9.551 21.333-21.333v-42.667c0-11.782-9.551-21.333-21.333-21.333h-127.999c-11.782 0-21.333 9.551-21.333 21.333v42.667z" />
<glyph unicode="&#xe97e;" d="M793.438 106.223c8.331-8.333 21.839-8.333 30.17 0l30.17 30.17c8.331 8.331 8.331 21.839 0 30.17l-90.509 90.509c-8.331 8.333-21.839 8.333-30.17 0l-30.17-30.17c-8.333-8.331-8.333-21.839 0-30.17l90.509-90.509zM932.864 297.15c11.78 0 21.333 9.551 21.333 21.333v42.667c0 11.782-9.553 21.333-21.333 21.333h-128c-11.782 0-21.333-9.551-21.333-21.333v-42.667c0-11.782 9.551-21.333 21.333-21.333h128zM648.836 13.124c11.782 0 21.333 9.551 21.333 21.333v128c0 11.782-9.551 21.333-21.333 21.333h-42.667c-11.78 0-21.333-9.551-21.333-21.333v-128c0-11.782 9.553-21.333 21.333-21.333h42.667z" />
<glyph unicode="&#xe97f;" d="M149.962 327.322c-16.662-16.663-16.662-43.678 0-60.341l181.019-181.018c16.663-16.663 43.678-16.663 60.341 0l181.018 181.018c16.663 16.663 16.663 43.678 0 60.341l-60.339 60.339-105.594-105.596c-8.331-8.331-21.839-8.331-30.17 0l-30.17 30.172c-8.333 8.331-8.333 21.837 0 30.17l105.594 105.594-60.339 60.341c-16.663 16.661-43.678 16.661-60.341 0l-181.019-181.020z" />
<glyph unicode="&#xe980;" d="M451.659 629.020c-16.661-16.663-16.661-43.678 0-60.341l60.341-60.339 105.594 105.596c8.331 8.331 21.839 8.331 30.17 0l30.17-30.172c8.331-8.331 8.331-21.839 0-30.17l-105.594-105.594 60.339-60.339c16.663-16.663 43.678-16.663 60.339 0l181.020 181.018c16.663 16.663 16.663 43.678 0 60.341l-181.020 181.018c-16.661 16.662-43.676 16.662-60.339 0l-181.020-181.018z" />
<glyph unicode="&#xe981;" d="M665.438 812.627c-8.333 8.331-21.839 8.331-30.172 0l-60.339-60.34c-8.331-8.332-8.331-21.838 0-30.171l90.511-90.509c8.331-8.331 21.837-8.331 30.17 0l60.339 60.339c8.331 8.331 8.331 21.839 0 30.17l-90.509 90.51zM62.040 209.229c-8.331 8.333-8.331 21.839 0 30.172l452.548 452.548c8.333 8.331 21.839 8.331 30.17 0l90.511-90.511c8.331-8.331 8.331-21.839 0-30.17l-452.549-452.548c-8.331-8.331-21.839-8.331-30.17 0l-90.51 90.509zM650.351 284.655l271.531 271.529 60.339-60.341-271.529-271.529-60.341 60.341z" />
<glyph unicode="&#xe982;" d="M891.712 586.351c0 0-165.933 45.254-211.189 90.509-45.254 45.254-181.020 181.019-181.020 181.019l-150.848-150.85c0 0 120.678-120.678 181.020-181.020 60.339-60.339 90.509-211.189 90.509-211.189l271.529 271.531z" />
<glyph unicode="&#xe983;" d="M768 172.787c0-9.156-10.778-14.057-17.679-8.038l-314.468 274.295c-4.862 4.243-4.875 11.797-0.023 16.055l314.468 276.023c6.893 6.052 17.702 1.156 17.702-8.015v-550.321z" />
<glyph unicode="&#xe984;" d="M277.333 704h85.333c11.782 0 21.333-9.551 21.333-21.333v-469.333c0-11.782-9.551-21.333-21.333-21.333h-85.333c-11.782 0-21.333 9.551-21.333 21.333v469.333c0 11.782 9.551 21.333 21.333 21.333z" />
<glyph unicode="&#xe985;" d="M335.469 112.847c3.996-3.959 9.393-6.18 15.017-6.18h588.179c23.565 0 42.667 19.102 42.667 42.667v597.333c0 23.564-19.102 42.667-42.667 42.667h-588.179c-5.623 0-11.021-2.221-15.017-6.181l-322.888-320c-8.422-8.348-8.422-21.958 0-30.306l322.888-320z" />
<glyph unicode="&#xe986;" d="M672.755 312.243c8.331-8.331 21.839-8.331 30.17 0l30.17 30.17c8.333 8.331 8.333 21.839 0 30.17l-75.424 75.424 75.426 75.426c8.331 8.331 8.331 21.839 0 30.17l-30.17 30.17c-8.333 8.331-21.839 8.331-30.17 0l-75.426-75.424-75.426 75.424c-8.331 8.333-21.839 8.333-30.17 0l-30.17-30.17c-8.331-8.331-8.331-21.839 0-30.17l75.426-75.426-75.424-75.424c-8.333-8.331-8.333-21.839 0-30.17l30.17-30.17c8.331-8.331 21.839-8.331 30.17 0l75.424 75.424 75.424-75.424z" />
<glyph unicode="&#xe987;" d="M768 172.787c0-9.156-10.778-14.057-17.679-8.038l-314.468 274.295c-4.862 4.243-4.875 11.797-0.023 16.055l314.468 276.023c6.893 6.052 17.702 1.156 17.702-8.015v-550.321z" />
<glyph unicode="&#xe988;" d="M512 172.787c0-9.156-10.778-14.057-17.679-8.038l-314.468 274.295c-4.863 4.243-4.875 11.797-0.025 16.055l314.469 276.023c6.893 6.052 17.702 1.156 17.702-8.015v-550.321z" />
<glyph unicode="&#xe989;" glyph-name="backward1" d="M540.043 533.331v220.371c0 13.806-16.311 21.13-26.63 11.959l-344.688-306.388c-6.881-6.116-7.193-16.764-0.684-23.273l344.687-344.687c10.080-10.080 27.315-2.942 27.315 11.313v217.372c79.373 4.783 319.646 1.090 373.299 0.186 5.965-0.1 10.701 4.713 10.701 10.679v191.695c0 5.933-4.661 10.729-10.594 10.671-58.633-0.55-341.877-3.040-373.406 0.102z" />
<glyph unicode="&#xe98a;" glyph-name="bag, 19" d="M253.028 558.174c1.715 10.287 10.615 17.826 21.043 17.826h475.857c10.428 0 19.328-7.539 21.043-17.826l74.082-444.493c4.333-26.007-15.721-49.681-42.086-49.681h-581.935c-26.365 0-46.42 23.674-42.086 49.681l74.081 444.493z" />
<glyph unicode="&#xe98b;" d="M212.152 769.253c0.663 11.276 10.001 20.081 21.297 20.081h557.103c11.294 0 20.634-8.805 21.295-20.081l38.829-660.081c1.442-24.506-18.044-45.171-42.592-45.171h-592.166c-24.55 0-44.035 20.666-42.593 45.171l38.828 660.081z" />
<glyph unicode="&#xe98c;" d="M298.667 661.333h85.333c0-70.692 57.308-128 128-128s128 57.308 128 128h85.333c0-117.82-95.514-213.333-213.333-213.333s-213.333 95.514-213.333 213.333z" />
<glyph unicode="&#xe98d;" glyph-name="bag-chair" d="M310.72 792.117c25.295 50.592 77.005 82.55 133.568 82.55h135.413c56.563 0 108.273-31.958 133.568-82.549l277.333-554.667c49.647-99.292-22.556-216.117-133.568-216.117h-690.080c-111.012 0-183.214 116.826-133.568 216.117l277.333 554.666zM274.662 256l48 64c64.55-48.414 127.447-72 189.333-72 61.884 0 124.781 23.586 189.333 72l48-64c-77.673-58.253-156.996-88-237.333-88-80.339 0-159.663 29.747-237.333 88z" />
<glyph unicode="&#xe98e;" d="M426.667 874.667c-70.694 0-128-57.308-128-128v-316.474l-121.346 81.85c-24.419 16.469-57.568 10.027-74.039-14.394l-35.788-53.058c-16.471-24.418-10.028-57.568 14.392-74.037l216.782-146.221v-10.999c0-11.782 9.551-21.333 21.333-21.333h26.601l0.576-0.388c18.769-12.661 42.694-11.785 60.241 0.388h381.916c11.78 0 21.333 9.551 21.333 21.333v533.333c0 70.692-57.308 128-128 128h-256z" />
<glyph unicode="&#xe98f;" d="M277.333 106.667h554.667c11.782 0 21.333-9.551 21.333-21.333v-42.667c0-11.782-9.551-21.333-21.333-21.333h-554.667c-11.782 0-21.333 9.551-21.333 21.333v42.667c0 11.782 9.551 21.333 21.333 21.333z" />
<glyph unicode="&#xe990;" d="M554.667 746.667h85.333v-640h-85.333v640zM213.333 746.667v-640h-85.333c-23.564 0-42.667 19.102-42.667 42.667v554.667c0 23.565 19.103 42.667 42.667 42.667h85.333zM682.667 746.667h85.333v-640h-85.333v640zM853.333 746.667h42.667c23.565 0 42.667-19.102 42.667-42.667v-554.667c0-23.565-19.102-42.667-42.667-42.667h-42.667v640z" />
<glyph unicode="&#xe991;" d="M384 746.667v-640h-85.333v640h85.333z" />
<glyph unicode="&#xe992;" d="M170.667 789.333h341.333v-682.667h-341.333v682.667z" />
<glyph unicode="&#xe993;" d="M768 704h-128c0 0-42.667 7.319-42.667 42.667 0 35.346 42.667 42.667 42.667 42.667h213.333v-213.333c0 0 0-42.667-42.667-42.667s-42.667 42.667-42.667 42.667v128zM384 192h-128v128c0 0 0 42.667-42.667 42.667s-42.667-42.667-42.667-42.667v-213.333h213.333c0 0 42.667 7.319 42.667 42.667s-42.667 42.667-42.667 42.667zM768 320v-128h-128c0 0-42.667 0-42.667-42.667s42.667-42.667 42.667-42.667h213.333v213.333c0 0-7.319 42.667-42.667 42.667s-42.667-42.667-42.667-42.667zM256 576v128h128c0 0 42.667 0 42.667 42.667s-42.667 42.667-42.667 42.667h-213.333v-213.333c0 0 7.321-42.667 42.667-42.667 35.347 0 42.667 42.667 42.667 42.667z" />
<glyph unicode="&#xe994;" d="M213.333 320v-213.333h-85.333c-23.564 0-42.667 19.102-42.667 42.667v170.667h128zM554.667 320v-213.333h85.333v213.333h-85.333zM640 576h-85.333v170.667h85.333v-170.667zM682.667 320v-213.333h85.333v213.333h-85.333zM768 576h-85.333v170.667h85.333v-170.667zM853.333 320v-213.333h42.667c23.565 0 42.667 19.102 42.667 42.667v170.667h-85.333zM938.667 576h-85.333v170.667h42.667c23.565 0 42.667-19.102 42.667-42.667v-128zM213.333 576h-128v128c0 23.565 19.103 42.667 42.667 42.667h85.333v-170.667z" />
<glyph unicode="&#xe995;" d="M384 576v170.667h-85.333v-170.667h85.333zM384 320h-85.333v-213.333h85.333v213.333z" />
<glyph unicode="&#xe996;" d="M32 490.667h960c17.673 0 32-14.327 32-32v-21.333c0-17.673-14.327-32-32-32h-960c-17.673 0-32 14.327-32 32v21.333c0 17.673 14.327 32 32 32z" />
<glyph unicode="&#xe997;" d="M256 533.333c0-23.565-19.102-42.667-42.667-42.667s-42.667 19.102-42.667 42.667v170.667c0 70.692 57.308 128 128 128s128-57.308 128-128c0-23.565-19.102-42.667-42.667-42.667s-42.667 19.102-42.667 42.667c0 23.565-19.102 42.667-42.667 42.667s-42.667-19.102-42.667-42.667v-170.667z" />
<glyph unicode="&#xe998;" d="M256 106.667h-85.333c0 117.82 95.514 170.667 213.333 170.667h256c117.82 0 213.333-52.847 213.333-170.667h-85.333c0 70.692-57.308 85.333-128 85.333h-256c-70.692 0-128-14.641-128-85.333z" />
<glyph unicode="&#xe999;" d="M981.333 576h-896l32.124-289.114c6.002-54.018 51.662-94.886 106.014-94.886h619.725c54.351 0 100.013 40.868 106.014 94.886l32.124 289.114zM853.333 501.333c-17.673 0-32-14.327-32-32 0-61.039-23.701-108.444-72.533-145.067-14.138-10.605-17.003-30.662-6.4-44.8 10.605-14.138 30.662-17.005 44.8-6.4 64.947 48.71 98.133 115.083 98.133 196.267 0 17.673-14.325 32-32 32z" />
<glyph unicode="&#xe99a;" d="M725.333 661.333h-554.667c-47.128 0-85.333-38.206-85.333-85.333v-256c0-47.127 38.205-85.333 85.333-85.333h554.667c47.127 0 85.333 38.206 85.333 85.333v256c0 47.127-38.206 85.333-85.333 85.333zM170.667 320v256h554.667v-256h-554.667z" />
<glyph unicode="&#xe99b;" d="M426.667 353.498c0-4.034 5.079-5.815 7.599-2.667l72.188 90.238c2.236 2.793 0.247 6.931-3.33 6.931h-33.79v92.574c0 4.222-5.474 5.879-7.817 2.368l-73.094-109.643c-1.89-2.835 0.143-6.633 3.55-6.633h34.694v-73.169z" />
<glyph unicode="&#xe99c;" d="M853.333 533.333h64c11.782 0 21.333-9.551 21.333-21.333v-128c0-11.782-9.551-21.333-21.333-21.333h-64v170.667z" />
<glyph unicode="&#xe99d;" d="M725.333 661.333h-554.667c-47.128 0-85.333-38.206-85.333-85.333v-256c0-47.127 38.205-85.333 85.333-85.333h554.667c47.127 0 85.333 38.206 85.333 85.333v256c0 47.127-38.206 85.333-85.333 85.333zM170.667 320v256h554.667v-256h-554.667z" />
<glyph unicode="&#xe99e;" d="M853.333 533.333h64c11.782 0 21.333-9.551 21.333-21.333v-128c0-11.782-9.551-21.333-21.333-21.333h-64v170.667z" />
<glyph unicode="&#xe99f;" d="M128 661.333h640c23.564 0 42.667-19.103 42.667-42.667v-341.333c0-23.564-19.103-42.667-42.667-42.667h-640c-23.564 0-42.667 19.103-42.667 42.667v341.333c0 23.564 19.103 42.667 42.667 42.667z" />
<glyph unicode="&#xe9a0;" d="M853.333 533.333h64c11.782 0 21.333-9.551 21.333-21.333v-128c0-11.782-9.551-21.333-21.333-21.333h-64v170.667z" />
<glyph unicode="&#xe9a1;" d="M725.333 661.333h-554.667c-47.128 0-85.333-38.206-85.333-85.333v-256c0-47.127 38.205-85.333 85.333-85.333h554.667c47.127 0 85.333 38.206 85.333 85.333v256c0 47.127-38.206 85.333-85.333 85.333zM469.333 320v256h256v-256h-256z" />
<glyph unicode="&#xe9a2;" d="M853.333 533.333h64c11.782 0 21.333-9.551 21.333-21.333v-128c0-11.782-9.551-21.333-21.333-21.333h-64v170.667z" />
<glyph unicode="&#xe9a3;" d="M170.667 21.333h-85.333c0 117.82 95.513 170.667 213.333 170.667h426.667c117.82 0 213.333-52.847 213.333-170.667h-85.333c0 70.692-57.308 85.333-128 85.333h-426.667c-70.692 0-128-14.641-128-85.333z" />
<glyph unicode="&#xe9a4;" d="M64 362.667h896c11.782 0 21.333-9.551 21.333-21.333v-213.333c0-11.782-9.551-21.333-21.333-21.333h-896c-11.782 0-21.333 9.551-21.333 21.333v213.333c0 11.782 9.551 21.333 21.333 21.333z" />
<glyph unicode="&#xe9a5;" d="M128 661.333c0 23.565 19.103 42.667 42.667 42.667h682.667c23.565 0 42.667-19.102 42.667-42.667v-234.667c0-11.782-9.551-21.333-21.333-21.333h-64v64c0 11.782-9.551 21.333-21.333 21.333h-213.333c-11.782 0-21.333-9.551-21.333-21.333v-64h-85.333v64c0 11.782-9.551 21.333-21.333 21.333h-213.333c-11.782 0-21.333-9.551-21.333-21.333v-64h-64c-11.782 0-21.333 9.551-21.333 21.333v234.667z" />
<glyph unicode="&#xe9a6;" d="M682.667 661.333v-85.333h128c23.565 0 42.667-19.102 42.667-42.667v-128c0-23.565-19.102-42.667-42.667-42.667h-128v-85.333h128c70.692 0 128 57.308 128 128v128c0 70.692-57.308 128-128 128h-128z" />
<glyph unicode="&#xe9a7;" d="M522.336 746.667c-34.443 51.455-93.099 85.333-159.667 85.333s-125.227-33.878-159.669-85.333h319.336z" />
<glyph unicode="&#xe9a8;" d="M298.667 746.667h341.333c0 94.257-76.41 170.667-170.667 170.667s-170.667-76.41-170.667-170.667z" />
<glyph unicode="&#xe9a9;" d="M514.135 746.667h209.067c-9.884 48.688-52.93 85.333-104.533 85.333-51.605 0-94.65-36.646-104.533-85.333z" />
<glyph unicode="&#xe9aa;" d="M150.626 746.667c-12.275 0-22.017-10.332-21.296-22.586l38.976-662.586c1.327-22.554 20.002-40.162 42.593-40.162h474.205c22.592 0 41.267 17.609 42.594 40.162l38.976 662.586c0.719 12.254-9.024 22.586-21.297 22.586h-594.75zM298.667 597.333c0 11.782 9.551 21.333 21.333 21.333h42.667c11.782 0 21.333-9.551 21.333-21.333v-426.667c0-11.782-9.551-21.333-21.333-21.333h-42.667c-11.782 0-21.333 9.551-21.333 21.333v426.667zM512 597.333c0 11.782 9.551 21.333 21.333 21.333h42.667c11.782 0 21.333-9.551 21.333-21.333v-426.667c0-11.782-9.551-21.333-21.333-21.333h-42.667c-11.782 0-21.333 9.551-21.333 21.333v426.667z" />
<glyph unicode="&#xe9ab;" d="M130 375.578l81.333-25.822c57.977 182.628 156.586 268.911 300.667 268.911-23.565 0-42.667 19.102-42.667 42.667s19.102 42.667 42.667 42.667c23.565 0 42.667-19.102 42.667-42.667 0-23.554-19.087-42.652-42.639-42.667 144.066-0.011 242.667-86.295 300.64-268.911l81.331 25.822c-68.442 215.595-197.389 328.422-381.999 328.422s-313.557-112.828-382-328.422z" />
<glyph unicode="&#xe9ac;" d="M512 533.333c55.731 0 103.145 35.618 120.717 85.333h146.699c14.754-25.506 42.332-42.667 73.918-42.667 47.127 0 85.333 38.206 85.333 85.333s-38.206 85.333-85.333 85.333c-31.586 0-59.164-17.161-73.918-42.667h-146.699c-17.572 49.715-64.986 85.333-120.717 85.333s-103.145-35.619-120.717-85.333h-146.699c-14.754 25.506-42.333 42.667-73.918 42.667-47.128 0-85.333-38.206-85.333-85.333s38.205-85.333 85.333-85.333c31.585 0 59.164 17.161 73.918 42.667h146.699c17.572-49.715 64.986-85.333 120.717-85.333zM554.667 661.333c0-23.565-19.102-42.667-42.667-42.667s-42.667 19.102-42.667 42.667c0 23.565 19.102 42.667 42.667 42.667s42.667-19.102 42.667-42.667zM170.667 149.333c70.692 0 128 57.308 128 128s-57.308 128-128 128c-70.692 0-128-57.308-128-128s57.308-128 128-128zM213.333 277.333c0-23.565-19.103-42.667-42.667-42.667s-42.667 19.102-42.667 42.667c0 23.565 19.103 42.667 42.667 42.667s42.667-19.102 42.667-42.667zM853.333 149.333c70.692 0 128 57.308 128 128s-57.308 128-128 128c-70.692 0-128-57.308-128-128s57.308-128 128-128zM896 277.333c0-23.565-19.102-42.667-42.667-42.667s-42.667 19.102-42.667 42.667c0 23.565 19.102 42.667 42.667 42.667s42.667-19.102 42.667-42.667z" />
<glyph unicode="&#xe9ad;" glyph-name="binocular" d="M547.985 277.335h-71.977l-7.309-27.277c-27.731-103.494-134.11-164.913-237.604-137.182s-164.913 134.11-137.182 237.604l73.374 273.835c27.731 103.494 134.11 164.913 237.604 137.182 44.905-12.032 81.888-38.869 107.106-73.854 25.216 34.985 62.199 61.822 107.104 73.854 103.494 27.731 209.873-33.687 237.604-137.182l73.374-273.835c27.731-103.494-33.685-209.873-137.18-237.604s-209.875 33.687-237.606 137.182l-7.309 27.277zM744.802 187.514c64.286 0 116.401 54.076 116.401 120.781s-52.115 120.781-116.401 120.781c-64.288 0-116.403-54.076-116.403-120.781s52.115-120.781 116.403-120.781zM279.194 187.514c64.288 0 116.401 54.076 116.401 120.781s-52.113 120.781-116.401 120.781c-64.288 0-116.402-54.076-116.402-120.781s52.114-120.781 116.402-120.781z" />
<glyph unicode="&#xe9ae;" d="M490.667 874.667h42.667c11.782 0 21.333-9.551 21.333-21.333v-170.667c0-11.782-9.551-21.333-21.333-21.333h-42.667c-11.782 0-21.333 9.551-21.333 21.333v170.667c0 11.782 9.551 21.333 21.333 21.333z" />
<glyph unicode="&#xe9af;" d="M490.667 277.333h42.667c11.782 0 21.333-9.551 21.333-21.333v-170.667c0-11.782-9.551-21.333-21.333-21.333h-42.667c-11.782 0-21.333 9.551-21.333 21.333v170.667c0 11.782 9.551 21.333 21.333 21.333z" />
<glyph unicode="&#xe9b0;" d="M762.667 359.004c0-31.345-6.214-57.692-18.645-79.040s-28.913-38.507-49.451-51.477c-20.538-12.971-43.91-22.293-70.123-27.968s-53.099-8.512-80.661-8.512h-245.12v573.952h245.12c22.159 0 44.858-2.297 68.096-6.891s44.316-12.431 63.232-23.509c18.916-11.078 34.319-26.076 46.208-44.992s17.835-42.965 17.835-72.149c0-31.887-8.646-58.234-25.941-79.040s-39.994-35.804-68.096-44.992c16.213-4.324 31.482-9.323 45.803-16.619s26.752-16.619 37.291-27.968c10.539-11.349 18.916-24.591 25.131-39.723s9.323-32.156 9.323-51.072zM605.397 599.772c0 19.456-7.433 33.643-22.293 42.56-14.863 8.917-36.885 13.376-66.069 13.376h-68.096v-118.357h74.581c25.941 0 46.071 5.269 60.395 15.808 14.321 10.539 21.483 26.076 21.483 46.613zM624.043 371.974c0 23.78-8.917 40.265-26.752 49.451-17.835 9.188-41.615 13.781-71.339 13.781h-77.013v-131.328h77.824c10.807 0 22.022 0.947 33.643 2.837 11.618 1.892 22.157 5.269 31.616 10.133 9.457 4.864 17.158 11.755 23.104 20.672 5.943 8.917 8.917 20.403 8.917 34.453z" />
<glyph unicode="&#xe9b1;" d="M253.997 831.3c1.022 0 2.042-0.023 3.059-0.068 3.234 0.975 183.287 1.022 540.154 0.142 3.857-0.010 7.695-0.542 11.409-1.583 22.69-6.359 35.93-29.908 29.57-52.597l-8.557-30.527h-210.965c-11.782 0-21.333-9.551-21.333-21.333v-42.667c0-11.782 9.551-21.333 21.333-21.333h187.051l-23.917-85.333h-163.134c-11.782 0-21.333-9.551-21.333-21.333v-42.667c0-11.782 9.551-21.333 21.333-21.333h139.219l-23.915-85.333h-115.305c-11.782 0-21.333-9.551-21.333-21.333v-42.667c0-11.782 9.551-21.333 21.333-21.333h91.388l-27.339-97.549c-5.163-18.419-21.954-31.151-41.084-31.151h-301.634c-41.331 0-85.333 184.019-85.333 184.019-48.937 32.215-126.665 119.138-126.665 221.314 0 129.602 56.411 234.666 125.997 234.666zM274.997 745.967c-41.999-21.333-62.998-48.303-62.998-128 0-88.738 53.533-128 62.998-128v256z" />
<glyph unicode="&#xe9b2;" d="M213.333 149.333c-23.564 0-42.667-19.102-42.667-42.667v-117.333c0-5.89 4.776-10.667 10.667-10.667h576c5.89 0 10.667 4.777 10.667 10.667v117.333c0 23.565-19.102 42.667-42.667 42.667h-512zM512 64c0-23.565-19.102-42.667-42.667-42.667s-42.667 19.102-42.667 42.667c0 23.565 19.102 42.667 42.667 42.667s42.667-19.102 42.667-42.667z" />
<glyph unicode="&#xe9b3;" d="M270.125 586.953l156.542-140.887v-360.732c0-32.93 35.721-53.446 64.166-36.855l256 149.333c24.971 14.569 28.531 49.229 7.042 68.57l-426.667 384c-17.515 15.763-44.493 14.342-60.256-3.172s-14.342-44.493 3.172-60.256zM512 159.616v209.647l141.335-127.2-141.335-82.447z" />
<glyph unicode="&#xe9b4;" d="M494.933 866.129c-28.126 21.095-68.267 1.026-68.267-34.133v-389.869l-155.633-132.288c-17.954-15.262-20.137-42.189-4.875-60.143 15.26-17.954 42.187-20.139 60.141-4.877l426.667 362.667c20.853 17.726 19.863 50.223-2.033 66.643l-256 192zM657.003 637.911l-145.003-123.251v232.002l145.003-108.751z" />
<glyph unicode="&#xe9b5;" glyph-name="bold" d="M313.171 149.331v605.867h227.84c98.987 0 180.053-81.067 180.053-180.053 0-42.667-16.213-77.653-42.667-104.107 51.2-27.307 85.333-76.8 85.333-141.653 0-99.84-81.067-180.053-183.467-180.053h-267.093zM449.705 274.771h117.76c36.693 0 63.147 26.453 63.147 59.733s-26.453 60.587-63.147 60.587h-117.76v-120.32zM449.705 510.291h75.947c36.693 0 63.147 26.453 63.147 59.733s-26.453 60.587-63.147 60.587h-75.947v-120.32z" />
<glyph unicode="&#xe9b6;" glyph-name="book" d="M810.667 874.667h-512c-74.513 0-128-55.716-128-128v-597.333c0-72.284 53.487-128 128-128h512c27.386 0 42.667 15.919 42.667 42.667v42.667h-519.11c-19.637 0-35.556 15.919-35.556 35.556v14.221c0 19.637 15.919 35.556 35.556 35.556h519.11v640c0 26.748-15.281 42.667-42.667 42.667z" />
<glyph unicode="&#xe9b7;" glyph-name="bookmark" d="M256 746.667c0 23.564 19.102 42.667 42.667 42.667h426.667c23.565 0 42.667-19.103 42.667-42.667v-591.505c0-18.562-22.065-28.269-35.748-15.725l-205.837 188.683c-8.156 7.475-20.674 7.475-28.83 0l-205.837-188.683c-13.683-12.544-35.748-2.837-35.748 15.725v591.505z" />
<glyph unicode="&#xe9b8;" d="M554.667 165.591c0-7.753 8.066-12.768 15.277-9.918 42.857 16.941 173.325 62.997 358.801 78.212 5.562 0.457 9.922 4.783 9.922 10.364 0 63.812 0 425.737 0 491.998 0 5.892-4.657 10.387-10.545 10.191-42.106-1.393-203.829-11.334-367.087-82.306-3.866-1.681-6.368-5.404-6.368-9.619 0-53.737 0-408.363 0-488.922z" />
<glyph unicode="&#xe9b9;" d="M469.333 165.591c0-7.753-8.066-12.768-15.277-9.918-42.857 16.941-173.325 62.997-358.8 78.212-5.562 0.457-9.923 4.783-9.923 10.364 0 63.812 0 425.737 0 491.998 0 5.892 4.657 10.387 10.545 10.191 42.107-1.393 203.83-11.334 367.088-82.306 3.866-1.681 6.368-5.404 6.368-9.619 0-53.737 0-408.363 0-488.922z" />
<glyph unicode="&#xe9ba;" glyph-name="border" d="M725.333 789.333h-426.667c-70.692 0-128-57.308-128-128v-426.667c0-70.692 57.308-128 128-128h426.667c70.692 0 128 57.308 128 128v426.667c0 70.692-57.308 128-128 128zM256 661.333c0 23.565 19.102 42.667 42.667 42.667h426.667c23.565 0 42.667-19.102 42.667-42.667v-426.667c0-23.565-19.102-42.667-42.667-42.667h-426.667c-23.565 0-42.667 19.102-42.667 42.667v426.667z" />
<glyph unicode="&#xe9bb;" d="M260.267 539.023l117.333 156.444c4.030 5.372 10.351 8.533 17.067 8.533h234.667c6.716 0 13.037-3.162 17.067-8.533l117.333-156.444c2.769-3.693 4.267-8.186 4.267-12.8v-504.89c0-23.565-19.102-42.667-42.667-42.667h-426.667c-23.565 0-42.667 19.102-42.667 42.667v504.89c0 4.614 1.498 9.107 4.267 12.8zM362.667 448c-11.782 0-21.333-9.551-21.333-21.333v-341.333c0-11.782 9.551-21.333 21.333-21.333h85.333c11.782 0 21.333 9.551 21.333 21.333v341.333c0 11.782-9.551 21.333-21.333 21.333h-85.333z" />
<glyph unicode="&#xe9bc;" d="M405.333 917.333h213.333c11.782 0 21.333-9.551 21.333-21.333v-85.333c0-11.782-9.551-21.333-21.333-21.333h-213.333c-11.782 0-21.333 9.551-21.333 21.333v85.333c0 11.782 9.551 21.333 21.333 21.333z" />
<glyph unicode="&#xe9bd;" d="M341.333 192v-192c0-11.782 9.551-21.333 21.333-21.333h298.667c11.782 0 21.333 9.551 21.333 21.333v524.497c0 5.658-2.249 11.085-6.249 15.085l-72.836 72.836c-4 4-6.249 9.427-6.249 15.085v140.497c0 11.782-9.551 21.333-21.333 21.333h-128c-11.782 0-21.333-9.551-21.333-21.333v-140.497c0-5.658-2.249-11.085-6.249-15.085l-72.836-72.836c-4-4-6.249-9.427-6.249-15.085v-119.164h170.667v-213.333h-170.667z" />
<glyph unicode="&#xe9be;" d="M448 917.333h128c11.782 0 21.333-9.551 21.333-21.333v-42.667c0-11.782-9.551-21.333-21.333-21.333h-128c-11.782 0-21.333 9.551-21.333 21.333v42.667c0 11.782 9.551 21.333 21.333 21.333z" />
<glyph unicode="&#xe9bf;" d="M179.885 629.478c3.586 4.529 8.112 8.356 13.388 11.166l298.667 159.076c12.538 6.678 27.578 6.678 40.115 0l298.667-159.076c4.068-2.165 7.689-4.937 10.778-8.166l-327.456-189.058c-2.155-1.242-4.139-2.665-5.948-4.237-1.809 1.572-3.795 2.995-5.948 4.237l-322.263 186.059z" />
<glyph unicode="&#xe9c0;" d="M170.667 547.202l293.557-169.485c3.162-1.826 6.477-3.142 9.85-3.981v-328.708l-282.47 167.166c-12.977 7.68-20.937 21.641-20.937 36.719v298.289zM853.333 551.708v-302.795c0-15.078-7.959-29.039-20.937-36.719l-282.47-167.166v331.588c0.689 0.343 1.37 0.71 2.046 1.101l301.361 173.99z" />
<glyph unicode="&#xe9c1;" d="M341.333 234.667h341.333v-106.667c0-11.782-9.551-21.333-21.333-21.333h-298.667c-11.782 0-21.333 9.551-21.333 21.333v106.667z" />
<glyph unicode="&#xe9c2;" d="M938.667 661.333v-42.667c0-235.642-191.025-426.667-426.667-426.667s-426.667 191.025-426.667 426.667v42.667h853.333zM806.14 572.55c-21.658 9.282-46.741-0.751-56.023-22.411-38.82-90.579-95.889-153.99-171.866-191.979-21.075-10.537-29.619-36.166-19.081-57.242 10.539-21.077 36.166-29.619 57.244-19.083 94.692 47.347 165.623 126.159 212.137 234.688 9.282 21.66-0.751 46.743-22.411 56.026z" />
<glyph unicode="&#xe9c3;" d="M256 832h512l85.333-149.333h-682.667l85.333 149.333z" />
<glyph unicode="&#xe9c4;" d="M213.333 746.667h597.333c23.565 0 42.667-19.102 42.667-42.667v-597.333c0-23.565-19.102-42.667-42.667-42.667h-597.333c-23.564 0-42.667 19.102-42.667 42.667v597.333c0 23.565 19.103 42.667 42.667 42.667zM362.667 576c-11.782 0-21.333-9.551-21.333-21.333v-42.667c0-11.782 9.551-21.333 21.333-21.333h298.667c11.782 0 21.333 9.551 21.333 21.333v42.667c0 11.782-9.551 21.333-21.333 21.333h-298.667z" />
<glyph unicode="&#xe9c5;" d="M870.662 672.597c15.407-6.848 25.338-22.127 25.338-38.989v-373.833c0-15.497-8.401-29.773-21.946-37.299l-341.333-189.628c-12.887-7.159-28.555-7.159-41.442 0l-341.333 189.628c-13.545 7.526-21.946 21.803-21.946 37.299v373.833c0 16.862 9.93 32.141 25.338 38.989l341.333 151.705c11.034 4.903 23.625 4.903 34.658 0l341.333-151.705z" />
<glyph unicode="&#xe9c6;" d="M638.598 779.75l-314.332-174.628v-195.774l85.333-42.667v188.228l326.615 181.455-97.617 43.385z" />
<glyph unicode="&#xe9c7;" d="M853.333 661.333v-565.333c0-17.673-14.327-32-32-32h-618.667c-17.673 0-32 14.327-32 32v565.333h682.667zM416 533.333c-17.673 0-32-14.327-32-32v-21.333c0-17.673 14.327-32 32-32h192c17.673 0 32 14.327 32 32v21.333c0 17.673-14.327 32-32 32h-192z" />
<glyph unicode="&#xe9c8;" d="M106.667 832h810.667c11.782 0 21.333-9.551 21.333-21.333v-128c0-11.782-9.551-21.333-21.333-21.333h-810.667c-11.782 0-21.333 9.551-21.333 21.333v128c0 11.782 9.551 21.333 21.333 21.333z" />
<glyph unicode="&#xe9c9;" glyph-name="brassiere" d="M256 234.667c78.697 0 166.475 4.542 216.094 42.667h101.146c49.619-38.125 137.397-42.667 216.094-42.667 117.82 0 213.333 95.514 213.333 213.333s-95.514 170.667-213.333 170.667c-117.82 0-256-138.18-256-256h-21.333c0 117.82-138.18 256-256 256-117.821 0-213.333-52.847-213.333-170.667s95.513-213.333 213.333-213.333z" />
<glyph unicode="&#xe9ca;" d="M288 789.333c-41.237 0-74.667-33.429-74.667-74.667v-149.333c0-41.237 33.429-74.667 74.667-74.667h10.667v-384c0-23.565 19.102-42.667 42.667-42.667h512c23.565 0 42.667 19.102 42.667 42.667v384h10.667c41.237 0 74.667 33.429 74.667 74.667v149.333c0 41.237-33.429 74.667-74.667 74.667h-618.667z" />
<glyph unicode="&#xe9cb;" d="M117.333 789.333c-41.237 0-74.667-33.429-74.667-74.667v-149.333c0-41.237 33.429-74.667 74.667-74.667h10.667v-384c0-23.565 19.103-42.667 42.667-42.667h512c23.565 0 42.667 19.102 42.667 42.667v384h10.667c41.237 0 74.667 33.429 74.667 74.667v149.333c0 41.237-33.429 74.667-74.667 74.667h-618.667z" />
<glyph unicode="&#xe9cc;" d="M209.923 618.667c-22.19 0-40.676-17.009-42.519-39.123l-35.555-426.667c-2.073-24.875 17.558-46.21 42.519-46.21h675.26c24.962 0 44.591 21.335 42.519 46.21l-35.556 426.667c-1.843 22.114-20.329 39.123-42.519 39.123h-604.148zM437.331 533.333c-5.89 0-10.667-4.777-10.667-10.667v-64c0-5.89 4.777-10.667 10.667-10.667h149.333c5.89 0 10.667 4.777 10.667 10.667v64c0 5.89-4.777 10.667-10.667 10.667h-149.333z" />
<glyph unicode="&#xe9cd;" d="M426.667 618.667h-85.333v42.667c0 70.692 57.308 128 128 128h85.333c70.692 0 128-57.308 128-128v-42.667h-85.333v42.667c0 23.565-19.102 42.667-42.667 42.667h-85.333c-23.565 0-42.667-19.102-42.667-42.667v-42.667z" />
<glyph unicode="&#xe9ce;" d="M449.188-1.186l-73.82 73.82 51.106 100.32-112.623-38.803-98.428 98.428 132.499 230.927-230.927-132.499-61.517 61.517 339.851 224.811c88.561 58.583 207.492 37.557 270.598-47.84 66.492-89.98 64.61-213.312-4.597-301.218l-212.143-269.461z" />
<glyph unicode="&#xe9cf;" d="M762.182 556.173l199.774 199.773c16.663 16.662 16.663 43.677 0 60.34l-60.339 60.34c-16.663 16.662-43.678 16.662-60.341 0l-208.721-208.721c45.21-19.746 85.948-51.241 117.257-93.609 4.378-5.922 8.501-11.968 12.371-18.123z" />
<glyph unicode="&#xe9d0;" d="M576 704c0 0-10.404-146.285-71.356-192 0 0 28.689 277.333-53.508 362.667 0 0 0-167.618-76.19-304.762-35.714-64.286-76.19-127.957-76.19-213.333 0-121.905 147.953-164.572 213.455-164.572 76.698 0 213.122 42.667 213.122 192 0 92.107-149.333 320-149.333 320z" />
<glyph unicode="&#xe9d1;" d="M379.138 92.079c2.903 8.713 11.055 14.588 20.239 14.588h225.246c9.184 0 17.335-5.875 20.239-14.588l37.805-113.412h-341.333l37.805 113.412z" />
<glyph unicode="&#xe9d2;" d="M685.124 741.737l90.511-90.509-105.596-196.105 196.105 105.594 75.426-75.424c8.331-8.331 8.331-21.839 0-30.17l-226.274-226.274-422.379 422.379 226.274 226.274c8.331 8.331 21.839 8.331 30.17 0l75.424-75.425-30.17-90.51 90.509 30.17z" />
<glyph unicode="&#xe9d3;" d="M433.491 269.301l-140.439-200.625c-27.027-38.609-80.234-48-118.843-20.973-4.073 2.85-7.889 6.052-11.404 9.568l-40.873 40.873c-33.325 33.325-33.325 87.356 0 120.681 3.679 3.678 7.686 7.012 11.972 9.963l201.484 138.62-132.977 132.977c-16.662 16.661-16.662 43.676 0 60.339l60.339 60.339 422.379-422.379-60.339-60.339c-16.661-16.663-43.678-16.663-60.339 0l-130.959 130.957zM202.412 138.345c16.662-16.661 43.679-16.661 60.34 0 16.661 16.663 16.661 43.678 0 60.339-16.661 16.663-43.678 16.663-60.34 0-16.662-16.661-16.662-43.676 0-60.339z" />
<glyph unicode="&#xe9d4;" d="M818.878 581.169l-301.7 301.699c-33.325 33.325-87.354 33.325-120.678 0l-301.699-301.699c-66.649-66.65-66.649-174.709 0-241.359l181.019-181.020c66.65-66.65 174.709-66.65 241.359 0l301.7 301.7c33.325 33.325 33.325 87.354 0 120.678zM155.14 520.83l301.699 301.699 301.698-301.699-74.057-74.059c0 0-553.603 0-553.603 0.7-0.237 2.59-0.421 5.244-0.582 7.97-1.383 23.49 6.898 47.441 24.845 65.389z" />
<glyph unicode="&#xe9d5;" d="M853.333 21.333c70.692 0 128 57.308 128 128s-128 213.333-128 213.333c0 0-128-142.641-128-213.333s57.308-128 128-128z" />
<glyph unicode="&#xe9d6;" d="M320 917.333h384c11.782 0 21.333-9.551 21.333-21.333v-85.333c0-11.782-9.551-21.333-21.333-21.333h-384c-11.782 0-21.333 9.551-21.333 21.333v85.333c0 11.782 9.551 21.333 21.333 21.333z" />
<glyph unicode="&#xe9d7;" d="M284.207 704h455.584c61.527 0 110.298-51.913 106.46-113.321l-33.084-529.342c-1.406-22.485-20.053-40.004-42.583-40.004h-517.167c-22.532 0-41.179 17.519-42.584 40.004l-33.084 529.342c-3.838 61.408 44.931 113.321 106.458 113.321zM341.331 576c-23.563 0-42.667-19.102-42.667-42.667v-128c0-23.565 19.104-42.667 42.667-42.667h341.333c23.565 0 42.667 19.102 42.667 42.667v128c0 23.565-19.102 42.667-42.667 42.667h-341.333z" />
<glyph unicode="&#xe9d8;" d="M213.333 832c0 23.564 19.102 42.667 42.667 42.667h512c23.565 0 42.667-19.103 42.667-42.667v-768h-234.667v149.333c0 11.782-9.551 21.333-21.333 21.333h-85.333c-11.782 0-21.333-9.551-21.333-21.333v-149.333h-234.667v768zM341.333 768c0 11.782 9.551 21.333 21.333 21.333h85.333c11.782 0 21.333-9.551 21.333-21.333v-85.333c0-11.782-9.551-21.333-21.333-21.333h-85.333c-11.782 0-21.333 9.551-21.333 21.333v85.333zM576 789.333c-11.782 0-21.333-9.551-21.333-21.333v-85.333c0-11.782 9.551-21.333 21.333-21.333h85.333c11.782 0 21.333 9.551 21.333 21.333v85.333c0 11.782-9.551 21.333-21.333 21.333h-85.333zM341.333 597.333c0 11.782 9.551 21.333 21.333 21.333h85.333c11.782 0 21.333-9.551 21.333-21.333v-85.333c0-11.782-9.551-21.333-21.333-21.333h-85.333c-11.782 0-21.333 9.551-21.333 21.333v85.333zM362.667 448c-11.782 0-21.333-9.551-21.333-21.333v-85.333c0-11.782 9.551-21.333 21.333-21.333h85.333c11.782 0 21.333 9.551 21.333 21.333v85.333c0 11.782-9.551 21.333-21.333 21.333h-85.333zM554.667 426.667c0 11.782 9.551 21.333 21.333 21.333h85.333c11.782 0 21.333-9.551 21.333-21.333v-85.333c0-11.782-9.551-21.333-21.333-21.333h-85.333c-11.782 0-21.333 9.551-21.333 21.333v85.333z" />
<glyph unicode="&#xe9d9;" d="M576 618.667h85.333c11.782 0 21.333-9.551 21.333-21.333v-85.333c0-11.782-9.551-21.333-21.333-21.333h-85.333c-11.782 0-21.333 9.551-21.333 21.333v85.333c0 11.782 9.551 21.333 21.333 21.333z" />
<glyph unicode="&#xe9da;" d="M128-20.823c0 46.846 37.977 84.823 84.824 84.823h598.352c46.846 0 84.823-37.978 84.823-84.823 0-0.282-0.228-0.51-0.51-0.51h-766.981c-0.281 0-0.509 0.228-0.509 0.51z" />
<glyph unicode="&#xe9db;" d="M512 234.667c188.514 0 341.333 152.819 341.333 341.333s-152.819 341.333-341.333 341.333c-188.514 0-341.333-152.82-341.333-341.333s152.819-341.333 341.333-341.333z" />
<glyph unicode="&#xe9dc;" d="M278.963 576l171.94-442.131 60.073 23.362 59.671-23.575 174.752 442.345h-466.436zM403.708 490.667h216.23l-108.966-275.821-107.264 275.821z" />
<glyph unicode="&#xe9dd;" d="M426.667 21.333h170.667v-42.667c0-23.565-19.102-42.667-42.667-42.667h-85.333c-23.565 0-42.667 19.102-42.667 42.667v42.667z" />
<glyph unicode="&#xe9de;" d="M341.333 234.667c0 23.565 19.102 42.667 42.667 42.667h256c23.565 0 42.667-19.102 42.667-42.667s-19.102-42.667-42.667-42.667c23.565 0 42.667-19.102 42.667-42.667s-19.102-42.667-42.667-42.667c23.565 0 42.667-19.102 42.667-42.667s-19.102-42.667-42.667-42.667h-256c-23.565 0-42.667 19.102-42.667 42.667s19.102 42.667 42.667 42.667c-23.565 0-42.667 19.102-42.667 42.667s19.102 42.667 42.667 42.667c-23.565 0-42.667 19.102-42.667 42.667z" />
<glyph unicode="&#xe9df;" d="M148.029 795.28c-11.126 20.397-3.755 45.569 17.593 54.738 58.297 25.039 181.185 67.315 346.367 67.315s288.081-42.277 346.385-67.316c21.35-9.169 28.721-34.342 17.596-54.74l-235.97-432.611h-256l-235.971 432.613z" />
<glyph unicode="&#xe9e0;" d="M426.667 106.667h170.667v-42.667c0-23.565-19.102-42.667-42.667-42.667h-85.333c-23.565 0-42.667 19.102-42.667 42.667v42.667z" />
<glyph unicode="&#xe9e1;" d="M448 576c-11.782 0-21.333-9.551-21.333-21.333s9.551-21.333 21.333-21.333h21.333v-362.667c0-11.782 9.551-21.333 21.333-21.333h42.667c11.782 0 21.333 9.551 21.333 21.333v362.667h21.333c11.782 0 21.333 9.551 21.333 21.333s-9.551 21.333-21.333 21.333h-128z" />
<glyph unicode="&#xe9e2;" d="M341.333 320c0 23.565 19.102 42.667 42.667 42.667h256c23.565 0 42.667-19.102 42.667-42.667s-19.102-42.667-42.667-42.667c23.565 0 42.667-19.102 42.667-42.667s-19.102-42.667-42.667-42.667c23.565 0 42.667-19.102 42.667-42.667s-19.102-42.667-42.667-42.667h-256c-23.565 0-42.667 19.102-42.667 42.667s19.102 42.667 42.667 42.667c-23.565 0-42.667 19.102-42.667 42.667s19.102 42.667 42.667 42.667c-23.565 0-42.667 19.102-42.667 42.667z" />
<glyph unicode="&#xe9e3;" d="M384 714.667c0 17.673 14.327 32 32 32h448c17.673 0 32-14.327 32-32v-64c0-17.673-14.327-32-32-32h-448c-17.673 0-32 14.327-32 32v64zM384 501.333c0 17.673 14.327 32 32 32h448c17.673 0 32-14.327 32-32v-64c0-17.673-14.327-32-32-32h-448c-17.673 0-32 14.327-32 32v64zM416 320c-17.673 0-32-14.327-32-32v-64c0-17.673 14.327-32 32-32h448c17.673 0 32 14.327 32 32v64c0 17.673-14.327 32-32 32h-448z" />
<glyph unicode="&#xe9e4;" d="M234.667 618.667c35.347 0 64 28.653 64 64s-28.653 64-64 64c-35.346 0-64-28.653-64-64s28.654-64 64-64zM234.667 405.333c35.347 0 64 28.653 64 64s-28.653 64-64 64c-35.346 0-64-28.653-64-64s28.654-64 64-64zM298.667 256c0-35.347-28.653-64-64-64s-64 28.653-64 64 28.654 64 64 64c35.347 0 64-28.653 64-64z" />
<glyph unicode="&#xe9e5;" d="M640 320h-512c24.809-124.045 133.724-213.333 260.224-213.333h247.552c126.5 0 235.415 89.289 260.224 213.333h-106.667l-58.611-66.985c-8.499-9.713-23.612-9.713-32.111 0l-58.611 66.985z" />
<glyph unicode="&#xe9e6;" d="M896 576h-768c24.809 124.045 133.724 213.333 260.224 213.333h247.552c126.5 0 235.415-89.289 260.224-213.333v0z" />
<glyph unicode="&#xe9e7;" d="M106.667 490.667h810.667c11.782 0 21.333-9.551 21.333-21.333v-42.667c0-11.782-9.551-21.333-21.333-21.333h-810.667c-11.782 0-21.333 9.551-21.333 21.333v42.667c0 11.782 9.551 21.333 21.333 21.333z" />
<glyph unicode="&#xe9e8;" d="M554.669 490.667h170.667c88.57 0 161.38-67.469 169.845-153.815l-29.35-29.348c-49.498-49.498-96.173-72.836-140.495-72.836-20.395 0-34.643 6.323-61.233 25.515-2.581 1.862-5.958 4.331-12.339 8.992-48.619 35.358-84.066 50.827-139.761 50.827-54.709 0-90.5-14.391-145.918-49.203-6.517-4.102-9.783-6.157-12.745-8-33.374-20.779-51.885-28.13-76.004-28.13-28.706 0-56.258 12.068-81.691 32.966-15.963 13.116-27.229 26.189-32.428 33.79-10.246 12.928-13.98 17.641-33.597 42.178 11.493 83.087 82.799 147.066 169.049 147.066h170.667v85.333h85.333v-85.333z" />
<glyph unicode="&#xe9e9;" d="M512 661.333c47.127 0 85.333 38.206 85.333 85.333s-85.333 128-85.333 128c0 0-85.333-80.872-85.333-128s38.206-85.333 85.333-85.333z" />
<glyph unicode="&#xe9ea;" d="M896 219.433v-155.433c0-23.565-19.102-42.667-42.667-42.667h-682.667c-23.564 0-42.667 19.102-42.667 42.667v149.434c4.188-3.866 8.684-7.799 13.469-11.733 39.475-32.435 84.98-52.367 135.864-52.367 43.78 0 75.362 12.542 121.105 41.020 3.159 1.967 6.628 4.151 13.033 8.183 42.978 26.995 65.694 36.13 100.529 36.13 34.082 0 54.189-8.774 89.572-34.507 6.135-4.482 9.766-7.134 12.585-9.169 39.808-28.734 68.934-41.658 111.177-41.658 58.662 0 115.646 23.934 170.667 70.099z" />
<glyph unicode="&#xe9eb;" d="M298.667 789.333h426.667v-170.667h-426.667v170.667z" />
<glyph unicode="&#xe9ec;" d="M256 874.667h512c23.565 0 42.667-19.103 42.667-42.667v-768c0-23.565-19.102-42.667-42.667-42.667h-512c-23.565 0-42.667 19.102-42.667 42.667v768c0 23.564 19.102 42.667 42.667 42.667zM384 490.667c0 23.565-19.102 42.667-42.667 42.667s-42.667-19.102-42.667-42.667c0-23.565 19.102-42.667 42.667-42.667s42.667 19.102 42.667 42.667zM341.333 277.333c23.565 0 42.667 19.102 42.667 42.667s-19.102 42.667-42.667 42.667c-23.565 0-42.667-19.102-42.667-42.667s19.102-42.667 42.667-42.667zM554.667 490.667c0 23.565-19.102 42.667-42.667 42.667s-42.667-19.102-42.667-42.667c0-23.565 19.102-42.667 42.667-42.667s42.667 19.102 42.667 42.667zM512 277.333c23.565 0 42.667 19.102 42.667 42.667s-19.102 42.667-42.667 42.667c-23.565 0-42.667-19.102-42.667-42.667s19.102-42.667 42.667-42.667zM725.333 490.667c0 23.565-19.102 42.667-42.667 42.667s-42.667-19.102-42.667-42.667c0-23.565 19.102-42.667 42.667-42.667s42.667 19.102 42.667 42.667zM682.667 277.333c23.565 0 42.667 19.102 42.667 42.667s-19.102 42.667-42.667 42.667c-23.565 0-42.667-19.102-42.667-42.667s19.102-42.667 42.667-42.667zM725.333 149.333c0 23.565-19.102 42.667-42.667 42.667s-42.667-19.102-42.667-42.667c0-23.565 19.102-42.667 42.667-42.667s42.667 19.102 42.667 42.667zM298.667 149.333c0-23.565 19.102-42.667 42.667-42.667h170.667c23.565 0 42.667 19.102 42.667 42.667s-19.102 42.667-42.667 42.667h-170.667c-23.565 0-42.667-19.102-42.667-42.667zM725.333 789.333h-426.667v-170.667h426.667v170.667z" />
<glyph unicode="&#xe9ed;" glyph-name="calendar" d="M170.667 704c-23.564 0-42.667-19.102-42.667-42.667v-85.333h768v85.333c0 23.565-19.102 42.667-42.667 42.667h-42.667v-32c0-17.673-14.327-32-32-32s-32 14.327-32 32v32h-469.333v-32c0-17.673-14.327-32-32-32s-32 14.327-32 32v32h-42.667zM896 512h-768v-362.667c0-23.565 19.103-42.667 42.667-42.667h682.667c23.565 0 42.667 19.102 42.667 42.667v362.667zM213.333 757.333c0 17.673 14.327 32 32 32s32-14.327 32-32v-53.333h-64v53.333zM746.667 757.333c0 17.673 14.327 32 32 32s32-14.327 32-32v-53.333h-64v53.333z" />
<glyph unicode="&#xe9ee;" glyph-name="call, 113" d="M508.369 356.578l94.037 94.037c25.973 25.973 32.412 65.651 15.985 98.502l-5.327 10.658c-16.427 32.851-9.988 72.529 15.983 98.5l116.602 116.6c8.331 8.331 21.837 8.331 30.17 0 1.621-1.621 2.97-3.494 3.996-5.544l47.102-94.207c36.036-72.068 21.909-159.108-35.066-216.083l-255.949-255.951c-62.018-62.018-153.751-83.674-236.958-55.938l-103.018 34.34c-11.177 3.725-17.218 15.806-13.492 26.985 1.047 3.14 2.812 5.997 5.153 8.337l113.121 113.122c25.973 25.971 65.649 32.412 98.502 15.985l10.656-5.329c32.853-16.427 72.531-9.986 98.502 15.985z" />
<glyph unicode="&#xe9ef;" glyph-name="call1, 219" d="M938.667 448c0-235.642-191.025-426.667-426.667-426.667s-426.667 191.025-426.667 426.667c0 235.642 191.025 426.667 426.667 426.667s426.667-191.025 426.667-426.667zM485.472 386.187c-12.988-12.986-32.826-16.205-49.252-7.991l-25.44 12.721c-16.427 8.213-36.267 4.992-49.252-7.994l-86.731-86.731c-5.606-5.606-3.351-15.153 4.171-17.662l89.596-29.865c45.997-15.332 96.706-3.36 130.989 30.921l180.525 180.527c38.957 38.957 48.617 98.475 23.977 147.753l-32.576 65.152c-3.255 6.511-11.936 7.919-17.084 2.771l-88.469-88.469c-12.986-12.986-16.205-32.826-7.991-49.25l12.721-25.442c8.211-16.427 4.992-36.265-7.994-49.25l-77.188-77.19z" />
<glyph unicode="&#xe9f0;" d="M170.667 661.333h682.667c23.565 0 42.667-19.102 42.667-42.667v-426.667c0-23.565-19.102-42.667-42.667-42.667h-682.667c-23.564 0-42.667 19.102-42.667 42.667v426.667c0 23.565 19.103 42.667 42.667 42.667zM341.333 405.333c0-94.257 76.41-170.667 170.667-170.667s170.667 76.41 170.667 170.667c0 94.257-76.41 170.667-170.667 170.667s-170.667-76.41-170.667-170.667z" />
<glyph unicode="&#xe9f1;" d="M416 789.333h192c17.673 0 32-14.327 32-32v-21.333c0-17.673-14.327-32-32-32h-192c-17.673 0-32 14.327-32 32v21.333c0 17.673 14.327 32 32 32z" />
<glyph unicode="&#xe9f2;" d="M512 320c47.127 0 85.333 38.206 85.333 85.333s-38.206 85.333-85.333 85.333c-47.127 0-85.333-38.206-85.333-85.333s38.206-85.333 85.333-85.333z" />
<glyph unicode="&#xe9f3;" d="M618.667 759.469h85.333c11.782 0 21.333-9.551 21.333-21.333v-85.333c0-11.782-9.551-21.333-21.333-21.333h-85.333c-11.782 0-21.333 9.551-21.333 21.333v85.333c0 11.782 9.551 21.333 21.333 21.333z" />
<glyph unicode="&#xe9f4;" d="M1023.593 320c0.271 5.783 0.41 11.603 0.41 17.455 0 8.474-0.288 16.881-0.855 25.212h-127.147c0 70.537 60.736 104.634 98.532 119.021-56.011 130.731-185.847 222.313-337.077 222.313-202.436 0-366.545-164.109-366.545-366.545 0-5.852 0.137-11.671 0.41-17.455h-269.986c-11.782 0-21.333-9.551-21.333-21.333v-42.667c0-11.782 9.551-21.333 21.333-21.333h992c5.89 0 10.667 4.777 10.667 10.667v74.667h-0.407z" />
<glyph unicode="&#xe9f5;" d="M170.667 789.333h682.667v-640h-298.667v132.267c97.376 19.767 170.667 105.858 170.667 209.067 0 117.82-95.514 213.333-213.333 213.333s-213.333-95.514-213.333-213.333c0-103.209 73.291-189.299 170.667-209.067v-132.267h-298.667v640z" />
<glyph unicode="&#xe9f6;" d="M512 405.333c47.127 0 85.333 38.206 85.333 85.333s-38.206 85.333-85.333 85.333c-47.127 0-85.333-38.206-85.333-85.333s38.206-85.333 85.333-85.333z" />
<glyph unicode="&#xe9f7;" d="M512 576c47.127 0 85.333 38.206 85.333 85.333s-38.206 85.333-85.333 85.333c-47.127 0-85.333-38.206-85.333-85.333s38.206-85.333 85.333-85.333z" />
<glyph unicode="&#xe9f8;" d="M554.667 451.84c97.376 17.79 170.667 95.273 170.667 188.16 0 7.211-0.442 14.33-1.301 21.333h129.301v-512h-298.667v302.507zM469.333 451.84c-97.376 17.79-170.667 95.273-170.667 188.16 0 7.211 0.442 14.33 1.301 21.333h-129.301v-512h298.667v302.507z" />
<glyph unicode="&#xe9f9;" d="M170.667 448c0 188.514 152.819 341.333 341.333 341.333s341.333-152.819 341.333-341.333v-298.667h-298.667v132.267c97.376 19.767 170.667 105.858 170.667 209.067 0 117.82-95.514 213.333-213.333 213.333s-213.333-95.514-213.333-213.333c0-103.209 73.291-189.299 170.667-209.067v-132.267h-298.667v298.667z" />
<glyph unicode="&#xe9fa;" d="M512 405.333c47.127 0 85.333 38.206 85.333 85.333s-38.206 85.333-85.333 85.333c-47.127 0-85.333-38.206-85.333-85.333s38.206-85.333 85.333-85.333z" />
<glyph unicode="&#xe9fb;" d="M256 789.333h512l85.333-106.667h-682.667l85.333 106.667z" />
<glyph unicode="&#xe9fc;" d="M128 661.333c0 23.565 19.103 42.667 42.667 42.667h682.667c23.565 0 42.667-19.102 42.667-42.667v-469.333c0-23.565-19.063-42.667-42.628-42.667h-170.705c-16.531 0-29.858 12.809-46.187 28.501-25.818 24.811-59.138 56.832-124.48 56.832-60.107 0-86.345-27.098-109.248-50.752-17.741-18.323-33.483-34.581-61.419-34.581h-170.687c-23.564 0-42.646 19.102-42.646 42.667v469.333zM341.333 362.667c47.127 0 85.333 38.206 85.333 85.333s-38.206 85.333-85.333 85.333c-47.127 0-85.333-38.206-85.333-85.333s38.206-85.333 85.333-85.333zM768 448c0 47.127-38.206 85.333-85.333 85.333s-85.333-38.206-85.333-85.333c0-47.127 38.206-85.333 85.333-85.333s85.333 38.206 85.333 85.333z" />
<glyph unicode="&#xe9fd;" d="M549.822 470.261c0 0-102.494 373.487 126.671 472.736 141.107-198.464-126.671-472.736-126.671-472.736z" />
<glyph unicode="&#xe9fe;" d="M983.878 632.791c0 0-373.487 102.494-472.736-126.669 198.464-141.109 472.736 126.669 472.736 126.669z" />
<glyph unicode="&#xe9ff;" d="M853.553 810.884c0 0-374.694-97.981-346.065-346.067 242.428-22.972 346.065 346.067 346.065 346.067z" />
<glyph unicode="&#xea00;" d="M110.013 212.764l12.366-12.367c16.662-16.661 43.677-16.661 60.34 0 16.662 16.663 16.662 43.678 0 60.339l-29.489 29.491 43.216 77.461 46.614-46.611c16.661-16.663 43.678-16.663 60.339 0 16.663 16.661 16.663 43.676 0 60.339l-60.339 60.339c-1.131 1.131-2.308 2.185-3.529 3.162l43.347 77.698 80.86-80.86c16.663-16.661 43.678-16.661 60.341 0 16.661 16.663 16.661 43.678 0 60.339l-90.511 90.511c-2.49 2.49-5.214 4.61-8.098 6.355l10.434 18.703c22.961 41.156 74.94 55.906 116.096 32.945 6.88-3.838 13.195-8.61 18.765-14.18l208.329-208.329c33.325-33.325 33.325-87.356 0-120.681-5.57-5.57-11.887-10.342-18.765-14.18l-512.329-285.824c-28.105-15.68-63.202-10.795-85.959 11.962s-27.64 57.854-11.961 85.958l59.933 107.428z" />
<glyph unicode="&#xea01;" d="M725.037 686.49l26.163 112.128c5.316 22.785 25.628 38.904 49.026 38.904h88.1c27.804 0 50.342-22.54 50.342-50.343s-22.539-50.343-50.342-50.343h-48.151l-66.003-282.172-33.316-199.906c-1.958-11.742-13.148-19.612-24.86-17.481l-519.423 94.441c-7.992 1.453-14.465 7.317-16.696 15.127l-89.272 312.452c-3.894 13.628 6.339 27.194 20.512 27.194h613.92z" />
<glyph unicode="&#xea02;" d="M341.333 128c0-35.347-28.653-64-64-64s-64 28.653-64 64c0 35.347 28.653 64 64 64s64-28.653 64-64zM725.333 128c0-35.347-28.653-64-64-64s-64 28.653-64 64c0 35.347 28.653 64 64 64s64-28.653 64-64z" />
<glyph unicode="&#xea03;" d="M512.002 765.353l-180.557-216.668c-15.085-18.101-41.99-20.548-60.092-5.461-18.103 15.085-20.548 41.988-5.463 60.092l213.333 255.999c17.058 20.47 48.497 20.47 65.555 0l213.333-255.999c15.085-18.103 12.64-45.007-5.463-60.092-18.101-15.087-45.007-12.64-60.092 5.461l-180.555 216.668z" />
<glyph unicode="&#xea04;" d="M112.656 576c-13.879 0-24.063-13.043-20.697-26.507l109.254-437.015c7.123-28.491 32.721-48.478 62.089-48.478h497.395c29.367 0 54.965 19.987 62.089 48.478l109.254 437.015c3.364 13.463-6.818 26.507-20.698 26.507h-798.687zM490.667 448c-11.782 0-21.333-9.551-21.333-21.333v-213.333c0-11.782 9.551-21.333 21.333-21.333h42.667c11.782 0 21.333 9.551 21.333 21.333v213.333c0 11.782-9.551 21.333-21.333 21.333h-42.667zM261.47 410.534c-3.049 11.381 3.703 23.078 15.085 26.129l41.214 11.042c11.379 3.049 23.078-3.703 26.127-15.085l55.215-206.065c3.049-11.379-3.703-23.078-15.085-26.127l-41.214-11.042c-11.379-3.051-23.078 3.703-26.127 15.085l-55.215 206.063zM706.231 447.708c-11.379 3.049-23.078-3.706-26.127-15.085l-55.215-206.065c-3.051-11.381 3.703-23.078 15.085-26.127l41.212-11.044c11.381-3.049 23.078 3.706 26.129 15.085l55.215 206.065c3.049 11.379-3.706 23.078-15.085 26.127l-41.214 11.044z" />
<glyph unicode="&#xea05;" d="M512.002 765.353l-180.557-216.668c-15.085-18.101-41.99-20.548-60.092-5.461-18.103 15.085-20.548 41.988-5.463 60.092l213.333 255.999c17.058 20.47 48.497 20.47 65.555 0l213.333-255.999c15.085-18.103 12.64-45.007-5.463-60.092-18.101-15.087-45.007-12.64-60.092 5.461l-180.555 216.668z" />
<glyph unicode="&#xea06;" d="M117.335 576c-15.223 0-25.547-15.486-19.692-29.538l184.615-443.076c9.937-23.851 33.242-39.386 59.078-39.386h341.333c25.837 0 49.139 15.535 59.076 39.386l184.614 443.076c5.856 14.052-4.469 29.538-19.691 29.538h-789.334zM597.335 320c0-47.127-38.206-85.333-85.333-85.333-47.13 0-85.333 38.206-85.333 85.333s38.204 85.333 85.333 85.333c47.127 0 85.333-38.206 85.333-85.333z" />
<glyph unicode="&#xea07;" d="M234.667 320h554.667c11.782 0 21.333-9.551 21.333-21.333v-42.667c0-11.782-9.551-21.333-21.333-21.333h-554.667c-11.782 0-21.333 9.551-21.333 21.333v42.667c0 11.782 9.551 21.333 21.333 21.333z" />
<glyph unicode="&#xea08;" d="M85.333 426.667c0-106.039 85.961-192 192-192s192 85.961 192 192c0 106.039-85.961 192-192 192s-192-85.961-192-192zM384 426.667c0-58.91-47.757-106.667-106.667-106.667s-106.667 47.757-106.667 106.667c0 58.91 47.757 106.667 106.667 106.667s106.667-47.757 106.667-106.667z" />
<glyph unicode="&#xea09;" d="M554.667 426.667c0-106.039 85.961-192 192-192s192 85.961 192 192c0 106.039-85.961 192-192 192s-192-85.961-192-192zM853.333 426.667c0-58.91-47.757-106.667-106.667-106.667s-106.667 47.757-106.667 106.667c0 58.91 47.757 106.667 106.667 106.667s106.667-47.757 106.667-106.667z" />
<glyph unicode="&#xea0a;" d="M896 448c0 212.077-171.923 384-384 384s-384-171.923-384-384c0-212.077 171.923-384 384-384s384 171.923 384 384zM640 448c0-70.692-57.308-128-128-128s-128 57.308-128 128c0 70.692 57.308 128 128 128s128-57.308 128-128z" />
<glyph unicode="&#xea0b;" d="M512 405.333c23.565 0 42.667 19.102 42.667 42.667s-19.102 42.667-42.667 42.667c-23.565 0-42.667-19.102-42.667-42.667s19.102-42.667 42.667-42.667z" />
<glyph unicode="&#xea0c;" d="M844.883 565.583c-14.336 19.456-33.024 33.664-56.064 42.624s-45.568 13.44-67.584 13.44c-28.16 0-53.76-5.12-76.8-15.36s-42.88-24.32-59.52-42.24c-16.64-17.92-29.44-38.912-38.4-62.976s-13.44-50.176-13.44-78.336c0-29.696 4.352-56.832 13.056-81.408s21.12-45.696 37.248-63.36c16.128-17.664 35.456-31.36 57.984-41.088s47.872-14.592 76.032-14.592c29.184 0 55.040 5.76 77.568 17.28s40.704 26.752 54.528 45.696l77.568-54.528c-24.064-30.208-53.504-53.632-88.32-70.272s-75.52-24.96-122.112-24.96c-42.496 0-81.536 7.040-117.12 21.12s-66.176 33.792-91.776 59.136c-25.6 25.344-45.568 55.552-59.904 90.624-14.336 35.074-21.504 73.856-21.504 116.352 0 43.522 7.552 82.816 22.656 117.888 15.104 35.074 35.84 64.896 62.208 89.472s57.472 43.52 93.312 56.832c35.84 13.312 74.752 19.968 116.736 19.968 17.408 0 35.584-1.664 54.528-4.992s37.12-8.448 54.528-15.36c17.408-6.912 33.792-15.488 49.152-25.728s28.416-22.528 39.168-36.864l-73.728-58.368z" />
<glyph unicode="&#xea0d;" d="M125.652 627.027c-6.4-14.848-9.6-30.72-9.6-47.616s3.2-32.768 9.6-47.616c6.4-14.848 15.232-27.904 26.496-39.168s24.32-20.096 39.168-26.496c14.848-6.4 30.719-9.6 47.615-9.6s32.768 3.2 47.616 9.6c14.848 6.4 27.904 15.232 39.168 26.496s20.096 24.32 26.496 39.168c6.4 14.848 9.6 30.72 9.6 47.616s-3.2 32.768-9.6 47.616c-6.4 14.848-15.232 27.904-26.496 39.168s-24.32 20.096-39.168 26.496c-14.848 6.4-30.72 9.6-47.616 9.6s-32.767-3.2-47.615-9.6c-14.848-6.4-27.904-15.232-39.168-26.496s-20.096-24.32-26.496-39.168zM194.388 534.867c-12.288 12.288-18.432 27.136-18.432 44.544s6.144 32.256 18.432 44.544c12.288 12.288 27.135 18.432 44.543 18.432s32.256-6.144 44.544-18.432c12.288-12.288 18.432-27.136 18.432-44.544s-6.144-32.256-18.432-44.544c-12.288-12.288-27.136-18.432-44.544-18.432s-32.255 6.144-44.543 18.432z" />
<glyph unicode="&#xea0e;" d="M476.292 874.667c-56.563 0-108.273-31.958-133.568-82.549l-192-384c-49.646-99.292 22.556-216.117 133.568-216.117h455.413c111.012 0 183.213 116.826 133.568 216.117l-192 384c-25.297 50.592-77.005 82.55-133.568 82.55h-71.413zM360.531 430.933l-38.4-51.2c62.138-46.603 125.596-70.4 189.867-70.4s127.729 23.797 189.867 70.4l-38.4 51.2c-51.642-38.731-101.961-57.6-151.467-57.6-49.508 0-99.827 18.869-151.467 57.6z" />
<glyph unicode="&#xea0f;" d="M771.499 44.239c5.89-10.204 2.394-23.251-7.808-29.141l-36.951-21.333c-10.204-5.892-23.251-2.396-29.141 7.808l-106.667 184.753c-5.892 10.204-2.396 23.249 7.808 29.141l36.951 21.333c10.202 5.89 23.249 2.396 29.141-7.808l106.667-184.753zM252.158 42.944c-5.89-10.204-2.394-23.251 7.81-29.141l36.949-21.333c10.204-5.89 23.251-2.396 29.141 7.808l106.667 184.753c5.892 10.204 2.396 23.251-7.808 29.141l-36.949 21.333c-10.204 5.89-23.251 2.396-29.143-7.808l-106.667-184.753z" />
<glyph unicode="&#xea10;" d="M273.623 21.999c-3.051-11.381 3.703-23.078 15.085-26.127l41.212-11.044c11.381-3.049 23.078 3.706 26.129 15.085l79.23 295.695c3.051 11.381-3.703 23.078-15.085 26.127l-41.212 11.044c-11.381 3.049-23.078-3.706-26.129-15.085l-79.23-295.695zM750.037 23.294c3.049-11.381-3.703-23.078-15.085-26.127l-41.214-11.044c-11.379-3.049-23.078 3.706-26.127 15.085l-66.633 248.678c-3.051 11.379 3.703 23.078 15.085 26.127l41.212 11.042c11.381 3.051 23.078-3.703 26.129-15.085l66.633-248.676z" />
<glyph unicode="&#xea11;" d="M263.699 917.333c-26.366 0-46.419-23.674-42.086-49.681l75.569-453.406c0.855-5.143 5.306-8.913 10.522-8.913h408.593c5.216 0 9.666 3.77 10.522 8.913l75.569 453.406c4.333 26.007-15.721 49.681-42.086 49.681h-496.602zM202.667 362.667c-17.673 0-32-14.327-32-32v-64c0-17.673 14.327-32 32-32h618.667c17.673 0 32 14.327 32 32v64c0 17.673-14.327 32-32 32h-618.667z" />
<glyph unicode="&#xea12;" d="M544 789.333h64c17.673 0 32-14.327 32-32v-490.667c0-17.673-14.327-32-32-32h-64c-17.673 0-32 14.327-32 32v490.667c0 17.673 14.327 32 32 32z" />
<glyph unicode="&#xea13;" d="M330.667 576h64c17.673 0 32-14.327 32-32v-277.333c0-17.673-14.327-32-32-32h-64c-17.673 0-32 14.327-32 32v277.333c0 17.673 14.327 32 32 32z" />
<glyph unicode="&#xea14;" d="M213.333 149.333h640c23.565 0 42.667-19.102 42.667-42.667s-19.102-42.667-42.667-42.667h-682.667c-23.564 0-42.667 19.102-42.667 42.667v682.667c0 23.564 19.103 42.667 42.667 42.667s42.667-19.103 42.667-42.667v-640z" />
<glyph unicode="&#xea15;" d="M757.333 490.667h64c17.673 0 32-14.327 32-32v-192c0-17.673-14.327-32-32-32h-64c-17.673 0-32 14.327-32 32v192c0 17.673 14.327 32 32 32z" />
<glyph unicode="&#xea16;" d="M330.667 789.333h64c17.673 0 32-14.327 32-32v-490.667c0-17.673-14.327-32-32-32h-64c-17.673 0-32 14.327-32 32v490.667c0 17.673 14.327 32 32 32z" />
<glyph unicode="&#xea17;" d="M544 576h64c17.673 0 32-14.327 32-32v-277.333c0-17.673-14.327-32-32-32h-64c-17.673 0-32 14.327-32 32v277.333c0 17.673 14.327 32 32 32z" />
<glyph unicode="&#xea18;" d="M213.333 149.333h640c23.565 0 42.667-19.102 42.667-42.667s-19.102-42.667-42.667-42.667h-682.667c-23.564 0-42.667 19.102-42.667 42.667v682.667c0 23.564 19.103 42.667 42.667 42.667s42.667-19.103 42.667-42.667v-640z" />
<glyph unicode="&#xea19;" d="M757.333 490.667h64c17.673 0 32-14.327 32-32v-192c0-17.673-14.327-32-32-32h-64c-17.673 0-32 14.327-32 32v192c0 17.673 14.327 32 32 32z" />
<glyph unicode="&#xea1a;" d="M757.333 789.333h64c17.673 0 32-14.327 32-32v-490.667c0-17.673-14.327-32-32-32h-64c-17.673 0-32 14.327-32 32v490.667c0 17.673 14.327 32 32 32z" />
<glyph unicode="&#xea1b;" d="M544 576h64c17.673 0 32-14.327 32-32v-277.333c0-17.673-14.327-32-32-32h-64c-17.673 0-32 14.327-32 32v277.333c0 17.673 14.327 32 32 32z" />
<glyph unicode="&#xea1c;" d="M213.333 149.333h640c23.565 0 42.667-19.102 42.667-42.667s-19.102-42.667-42.667-42.667h-682.667c-23.564 0-42.667 19.102-42.667 42.667v682.667c0 23.564 19.103 42.667 42.667 42.667s42.667-19.103 42.667-42.667v-640z" />
<glyph unicode="&#xea1d;" d="M330.667 490.667h64c17.673 0 32-14.327 32-32v-192c0-17.673-14.327-32-32-32h-64c-17.673 0-32 14.327-32 32v192c0 17.673 14.327 32 32 32z" />
<glyph unicode="&#xea1e;" d="M213.333 149.333h640c23.565 0 42.667-19.102 42.667-42.667s-19.102-42.667-42.667-42.667h-682.667c-23.564 0-42.667 19.102-42.667 42.667v682.667c0 23.564 19.103 42.667 42.667 42.667s42.667-19.103 42.667-42.667v-640z" />
<glyph unicode="&#xea1f;" d="M372.461 333.483c-16.117-17.19-43.119-18.061-60.309-1.946-17.19 16.117-18.061 43.119-1.946 60.309l160 170.667c15.588 16.625 41.487 18.067 58.822 3.275l126.283-107.761 164.533 208.41c14.603 18.496 41.431 21.651 59.927 7.051 18.496-14.603 21.651-41.431 7.051-59.927l-192-243.2c-14.997-18.995-42.775-21.728-61.184-6.018l-129.026 110.103-132.151-140.962z" />
<glyph unicode="&#xea20;" d="M213.333 149.333h640c23.565 0 42.667-19.102 42.667-42.667s-19.102-42.667-42.667-42.667h-682.667c-23.564 0-42.667 19.102-42.667 42.667v682.667c0 23.564 19.103 42.667 42.667 42.667s42.667-19.103 42.667-42.667v-640z" />
<glyph unicode="&#xea21;" d="M372.461 669.184c-16.117 17.19-43.119 18.061-60.309 1.946-17.19-16.117-18.061-43.119-1.946-60.309l160-170.667c15.588-16.625 41.487-18.067 58.822-3.275l126.283 107.761 164.533-208.41c14.603-18.496 41.431-21.651 59.927-7.051 18.496 14.603 21.651 41.431 7.051 59.927l-192 243.2c-14.997 18.995-42.775 21.728-61.184 6.018l-129.026-110.103-132.151 140.962z" />
<glyph unicode="&#xea22;" d="M181.422 362.662c37.891-147.219 171.531-256 330.58-256 188.514 0 341.333 152.819 341.333 341.333 0 174.063-130.291 317.696-298.667 338.692v-424.025h-373.247z" />
<glyph unicode="&#xea23;" d="M130.577 532.817l338.756-67.75v366.933c-174.24 0-317.989-130.556-338.756-299.183z" />
<glyph unicode="&#xea24;" d="M213.333 320l-85.333-277.333 277.333 85.333-192 192z" />
<glyph unicode="&#xea25;" d="M981.333 469.333c0-223.859-181.474-405.333-405.333-405.333s-405.333 181.474-405.333 405.333c0 223.859 181.474 405.333 405.333 405.333s405.333-181.474 405.333-405.333zM426.667 469.333c0-35.347-28.653-64-64-64s-64 28.653-64 64c0 35.347 28.653 64 64 64s64-28.653 64-64zM576 405.333c35.347 0 64 28.653 64 64s-28.653 64-64 64c-35.347 0-64-28.653-64-64s28.653-64 64-64zM853.333 469.333c0-35.347-28.653-64-64-64s-64 28.653-64 64c0 35.347 28.653 64 64 64s64-28.653 64-64z" />
<glyph unicode="&#xea26;" d="M213.333 320l-85.333-277.333 277.333 85.333-192 192z" />
<glyph unicode="&#xea27;" d="M576 64c223.859 0 405.333 181.474 405.333 405.333s-181.474 405.333-405.333 405.333c-223.859 0-405.333-181.474-405.333-405.333s181.474-405.333 405.333-405.333zM341.333 597.333c0 11.782 9.551 21.333 21.333 21.333h426.667c11.782 0 21.333-9.551 21.333-21.333v-42.667c0-11.782-9.551-21.333-21.333-21.333h-426.667c-11.782 0-21.333 9.551-21.333 21.333v42.667zM362.667 448c-11.782 0-21.333-9.551-21.333-21.333v-42.667c0-11.782 9.551-21.333 21.333-21.333h256c11.782 0 21.333 9.551 21.333 21.333v42.667c0 11.782-9.551 21.333-21.333 21.333h-256z" />
<glyph unicode="&#xea28;" glyph-name="chat2, 4" d="M85.333 768c0 35.346 28.654 64 64 64h725.333c35.347 0 64-28.654 64-64v-448.418l1.062 0.418v-247.164c0-19.006-22.978-28.525-36.418-15.085l-134.249 134.249h-619.729c-35.346 0-64 28.653-64 64v512zM274.999 568.834c-19.607-13.071-24.905-39.561-11.834-59.168 64.41-96.617 148.382-146.999 248.834-146.999 100.45 0 184.422 50.383 248.834 146.999 13.071 19.607 7.772 46.097-11.834 59.168s-46.097 7.774-59.168-11.834c-49.367-74.050-107.618-109.001-177.833-109.001-70.217 0-128.465 34.95-177.833 109.001-13.071 19.607-39.563 24.905-59.168 11.834z" />
<glyph unicode="&#xea29;" glyph-name="chat3, 5" d="M192 832c-35.346 0-64-28.654-64-64v-512c0-35.347 28.654-64 64-64h577.062l134.249-134.249c13.44-13.44 36.418-3.921 36.418 15.085v247.164l-1.062-0.418v448.418c0 35.346-28.653 64-64 64h-682.667zM320 448c-35.347 0-64 28.653-64 64s28.653 64 64 64c35.347 0 64-28.653 64-64s-28.653-64-64-64zM533.333 448c-35.347 0-64 28.653-64 64s28.653 64 64 64c35.347 0 64-28.653 64-64s-28.653-64-64-64zM746.667 448c-35.347 0-64 28.653-64 64s28.653 64 64 64c35.347 0 64-28.653 64-64s-28.653-64-64-64z" />
<glyph unicode="&#xea2a;" glyph-name="chat4, 6" d="M149.333 832c-35.346 0-64-28.654-64-64v-512c0-35.347 28.654-64 64-64h235.373l107.853-162.677c8.851-13.35 28.708-12.548 36.454 1.47l89.065 161.207h256.589c35.347 0 64 28.653 64 64v512c0 35.346-28.653 64-64 64h-725.333zM256 661.333h384c23.565 0 42.667-19.102 42.667-42.667s-19.102-42.667-42.667-42.667h-384c-23.565 0-42.667 19.102-42.667 42.667s19.102 42.667 42.667 42.667zM256 490.667h213.333c23.565 0 42.667-19.102 42.667-42.667s-19.102-42.667-42.667-42.667h-213.333c-23.565 0-42.667 19.102-42.667 42.667s19.102 42.667 42.667 42.667z" />
<glyph unicode="&#xea2b;" d="M208 74.667c-10.222 0-20.444 4.090-28.622 12.267l-81.778 81.777c-16.356 16.356-16.356 40.89 0 57.246 16.356 16.354 42.933 16.354 57.244 0l53.156-53.156 134.933 134.933c16.356 16.356 40.89 16.356 57.244 0 16.356-16.356 16.356-40.89 0-57.244l-163.554-163.556c-8.179-8.177-18.4-12.267-28.623-12.267z" />
<glyph unicode="&#xea2c;" d="M149.333 832h725.333c35.347 0 64-28.654 64-64v-448.418l1.062 0.418v-247.164c0-19.006-22.978-28.525-36.418-15.085l-134.249 134.249h-215.095c-10.978 166.784-149.739 298.667-319.3 298.667-53.935 0-104.753-13.344-149.333-36.909v314.242c0 35.346 28.654 64 64 64zM234.667 661.333c-11.782 0-21.333-9.551-21.333-21.333v-42.667c0-11.782 9.551-21.333 21.333-21.333h426.667c11.782 0 21.333 9.551 21.333 21.333v42.667c0 11.782-9.551 21.333-21.333 21.333h-426.667z" />
<glyph unicode="&#xea2d;" d="M149.333 832h725.333c35.347 0 64-28.654 64-64v-448.418l1.062 0.418v-247.164c0-19.006-22.978-28.525-36.418-15.085l-134.249 134.249h-215.095c-10.978 166.784-149.739 298.667-319.3 298.667-53.935 0-104.753-13.344-149.333-36.909v314.242c0 35.346 28.654 64 64 64zM234.667 661.333c-11.782 0-21.333-9.551-21.333-21.333v-42.667c0-11.782 9.551-21.333 21.333-21.333h426.667c11.782 0 21.333 9.551 21.333 21.333v42.667c0 11.782-9.551 21.333-21.333 21.333h-426.667z" />
<glyph unicode="&#xea2e;" d="M234.667 362.667c-11.782 0-21.333-9.551-21.333-21.333v-128c0-11.782 9.551-21.333 21.333-21.333h42.667c11.782 0 21.333 9.551 21.333 21.333v128c0 11.782-9.551 21.333-21.333 21.333h-42.667zM298.667 106.667c0-23.565-19.102-42.667-42.667-42.667s-42.667 19.102-42.667 42.667c0 23.565 19.102 42.667 42.667 42.667s42.667-19.102 42.667-42.667z" />
<glyph unicode="&#xea2f;" d="M213.333 320l-85.333-277.333 277.333 85.333-192 192z" />
</font>
</defs>
</svg>
