<svg width="36" height="36" viewBox="0 0 36 36" fill="none" xmlns="http://www.w3.org/2000/svg">
<path fill-rule="evenodd" clip-rule="evenodd" d="M3.61091 16.7574C4.64236 15.6321 6.04131 15 7.5 15C8.95869 15 10.3576 15.6321 11.3891 16.7574C12.4205 17.8826 13 19.4087 13 21C13 22.5913 12.4205 24.1174 11.3891 25.2426C10.3576 26.3679 8.95869 27 7.5 27C6.04131 27 4.64236 26.3679 3.61091 25.2426C2.57946 24.1174 2 22.5913 2 21C2 19.4087 2.57946 17.8826 3.61091 16.7574ZM7.5 17.4C6.62479 17.4 5.78542 17.7793 5.16655 18.4544C4.54768 19.1295 4.2 20.0452 4.2 21C4.2 21.9548 4.54768 22.8705 5.16655 23.5456C5.78542 24.2207 6.62479 24.6 7.5 24.6C8.37522 24.6 9.21458 24.2207 9.83345 23.5456C10.4523 22.8705 10.8 21.9548 10.8 21C10.8 20.0452 10.4523 19.1295 9.83345 18.4544C9.21458 17.7793 8.37522 17.4 7.5 17.4Z" fill="#8C8A97"/>
<path fill-rule="evenodd" clip-rule="evenodd" d="M2.1967 29.3065C3.60322 27.8297 5.51088 27 7.5 27C9.48912 27 11.3968 27.8297 12.8033 29.3065C14.2098 30.7834 15 32.7864 15 34.875C15 35.4963 14.5203 36 13.9286 36C13.3368 36 12.8571 35.4963 12.8571 34.875C12.8571 33.3832 12.2927 31.9524 11.2881 30.8975C10.2834 29.8426 8.9208 29.25 7.5 29.25C6.0792 29.25 4.71659 29.8426 3.71193 30.8975C2.70727 31.9524 2.14286 33.3832 2.14286 34.875C2.14286 35.4963 1.66316 36 1.07143 36C0.479695 36 0 35.4963 0 34.875C0 32.7864 0.790176 30.7834 2.1967 29.3065Z" fill="#8C8A97"/>
<path fill-rule="evenodd" clip-rule="evenodd" d="M24.6109 16.7574C25.6424 15.6321 27.0413 15 28.5 15C29.9587 15 31.3576 15.6321 32.3891 16.7574C33.4205 17.8826 34 19.4087 34 21C34 22.5913 33.4205 24.1174 32.3891 25.2426C31.3576 26.3679 29.9587 27 28.5 27C27.0413 27 25.6424 26.3679 24.6109 25.2426C23.5795 24.1174 23 22.5913 23 21C23 19.4087 23.5795 17.8826 24.6109 16.7574ZM28.5 17.4C27.6248 17.4 26.7854 17.7793 26.1665 18.4544C25.5477 19.1295 25.2 20.0452 25.2 21C25.2 21.9548 25.5477 22.8705 26.1665 23.5456C26.7854 24.2207 27.6248 24.6 28.5 24.6C29.3752 24.6 30.2146 24.2207 30.8335 23.5456C31.4523 22.8705 31.8 21.9548 31.8 21C31.8 20.0452 31.4523 19.1295 30.8335 18.4544C30.2146 17.7793 29.3752 17.4 28.5 17.4Z" fill="#8C8A97"/>
<path fill-rule="evenodd" clip-rule="evenodd" d="M23.1967 29.3065C24.6032 27.8297 26.5109 27 28.5 27C30.4891 27 32.3968 27.8297 33.8033 29.3065C35.2098 30.7834 36 32.7864 36 34.875C36 35.4963 35.5203 36 34.9286 36C34.3368 36 33.8571 35.4963 33.8571 34.875C33.8571 33.3832 33.2927 31.9524 32.2881 30.8975C31.2834 29.8426 29.9208 29.25 28.5 29.25C27.0792 29.25 25.7166 29.8426 24.7119 30.8975C23.7073 31.9524 23.1429 33.3832 23.1429 34.875C23.1429 35.4963 22.6632 36 22.0714 36C21.4797 36 21 35.4963 21 34.875C21 32.7864 21.7902 30.7834 23.1967 29.3065Z" fill="#8C8A97"/>
<path fill-rule="evenodd" clip-rule="evenodd" d="M11.0535 0.381851C11.6619 0.129906 12.3168 0 12.9787 0C13.6405 0 14.2955 0.129907 14.9039 0.381851C15.5112 0.633314 16.0594 1.00112 16.5156 1.46308L18 2.94991L19.4844 1.46308C19.9406 1.00113 20.4888 0.633314 21.0961 0.381851C21.7045 0.129907 22.3595 0 23.0213 0C23.6832 0 24.3381 0.129906 24.9466 0.381851C25.5547 0.6337 26.1037 1.00225 26.5603 1.4652C27.4844 2.40113 28 3.64536 28 4.93934C28 6.23333 27.4844 7.47755 26.5603 8.41348L26.5551 8.41872L19.6572 15.3148C19.6563 15.3157 19.6554 15.3167 19.6545 15.3176C19.441 15.5328 19.1848 15.7043 18.9012 15.8215C18.6163 15.9393 18.3098 16 18 16C17.6902 16 17.3837 15.9393 17.0988 15.8215C16.8153 15.7043 16.5591 15.5329 16.3457 15.3178L9.44486 8.41872L9.43966 8.41348C8.5156 7.47755 8 6.23333 8 4.93934C8 3.64561 8.5154 2.40161 9.43913 1.46574M12.9787 2.2314C12.6291 2.2314 12.2832 2.30001 11.9619 2.43307C11.6405 2.56614 11.3505 2.76089 11.1093 3.00553L11.1087 3.00607C10.5945 3.52689 10.3076 4.21927 10.3076 4.93934C10.3076 5.6583 10.5936 6.34966 11.1063 6.8702L18 13.7621L24.8937 6.87019C25.4064 6.34964 25.6924 5.65829 25.6924 4.93934C25.6924 4.21927 25.4055 3.52689 24.8913 3.00607L24.8907 3.00553C24.6495 2.76089 24.3595 2.56614 24.0381 2.43307C23.7168 2.30001 23.3709 2.2314 23.0213 2.2314C22.6718 2.2314 22.3258 2.30001 22.0045 2.43307C21.6832 2.56614 21.3931 2.76089 21.1519 3.00553L21.1469 3.01054L18.8301 5.33119C18.6127 5.54898 18.3131 5.67198 18 5.67198C17.6869 5.67198 17.3873 5.54898 17.1699 5.33119L14.8531 3.01054L14.8481 3.00553C14.6069 2.76089 14.3168 2.56614 13.9955 2.43307C13.6742 2.30001 13.3282 2.2314 12.9787 2.2314ZM11.0535 0.381851C10.4453 0.633699 9.89627 1.00225 9.43966 1.4652Z" fill="#8C8A97"/>
</svg>
