<svg width="48" height="48" viewBox="0 0 48 48" fill="none" xmlns="http://www.w3.org/2000/svg">
<path d="M23.999 13.9998C22.9382 13.9998 21.9207 14.4212 21.1706 15.1713C20.4205 15.9215 19.999 16.9389 19.999 17.9998C19.999 19.0606 20.4205 20.078 21.1706 20.8282C21.9207 21.5783 22.9382 21.9998 23.999 21.9998C25.0599 21.9998 26.0773 21.5783 26.8274 20.8282C27.5776 20.078 27.999 19.0606 27.999 17.9998C27.999 16.9389 27.5776 15.9215 26.8274 15.1713C26.0773 14.4212 25.0599 13.9998 23.999 13.9998V13.9998ZM15.999 17.9998C15.999 15.878 16.8419 13.8432 18.3422 12.3429C19.8425 10.8426 21.8773 9.99976 23.999 9.99976C26.1208 9.99976 28.1556 10.8426 29.6559 12.3429C31.1562 13.8432 31.999 15.878 31.999 17.9998C31.999 20.1215 31.1562 22.1563 29.6559 23.6566C28.1556 25.1569 26.1208 25.9998 23.999 25.9998C21.8773 25.9998 19.8425 25.1569 18.3422 23.6566C16.8419 22.1563 15.999 20.1215 15.999 17.9998V17.9998ZM37.999 15.9998C37.4686 15.9998 36.9599 16.2105 36.5848 16.5855C36.2097 16.9606 35.999 17.4693 35.999 17.9998C35.999 18.5302 36.2097 19.0389 36.5848 19.414C36.9599 19.789 37.4686 19.9998 37.999 19.9998C38.5295 19.9998 39.0382 19.789 39.4132 19.414C39.7883 19.0389 39.999 18.5302 39.999 17.9998C39.999 17.4693 39.7883 16.9606 39.4132 16.5855C39.0382 16.2105 38.5295 15.9998 37.999 15.9998ZM31.999 17.9998C31.999 16.4085 32.6312 14.8823 33.7564 13.7571C34.8816 12.6319 36.4077 11.9998 37.999 11.9998C39.5903 11.9998 41.1164 12.6319 42.2417 13.7571C43.3669 14.8823 43.999 16.4085 43.999 17.9998C43.999 19.5911 43.3669 21.1172 42.2417 22.2424C41.1164 23.3676 39.5903 23.9998 37.999 23.9998C36.4077 23.9998 34.8816 23.3676 33.7564 22.2424C32.6312 21.1172 31.999 19.5911 31.999 17.9998V17.9998ZM9.99902 15.9998C9.46859 15.9998 8.95988 16.2105 8.58481 16.5855C8.20974 16.9606 7.99902 17.4693 7.99902 17.9998C7.99902 18.5302 8.20974 19.0389 8.58481 19.414C8.95988 19.789 9.46859 19.9998 9.99902 19.9998C10.5295 19.9998 11.0382 19.789 11.4132 19.414C11.7883 19.0389 11.999 18.5302 11.999 17.9998C11.999 17.4693 11.7883 16.9606 11.4132 16.5855C11.0382 16.2105 10.5295 15.9998 9.99902 15.9998ZM3.99902 17.9998C3.99902 16.4085 4.63116 14.8823 5.75638 13.7571C6.8816 12.6319 8.40772 11.9998 9.99902 11.9998C11.5903 11.9998 13.1164 12.6319 14.2417 13.7571C15.3669 14.8823 15.999 16.4085 15.999 17.9998C15.999 19.5911 15.3669 21.1172 14.2417 22.2424C13.1164 23.3676 11.5903 23.9998 9.99902 23.9998C8.40772 23.9998 6.8816 23.3676 5.75638 22.2424C4.63116 21.1172 3.99902 19.5911 3.99902 17.9998Z" fill="#7E1A44"/>
<path d="M34.5355 25.9995H41.4635C41.1124 25.3915 40.6075 24.8866 39.9994 24.5355C39.3914 24.1845 38.7016 23.9997 37.9995 23.9997C37.2974 23.9997 36.6077 24.1845 35.9996 24.5355C35.3915 24.8866 34.8866 25.3915 34.5355 25.9995ZM29.9995 27.9995C29.9995 25.8778 30.8424 23.8429 32.3427 22.3427C33.8429 20.8424 35.8778 19.9995 37.9995 19.9995C40.1212 19.9995 42.1561 20.8424 43.6564 22.3427C45.1567 23.8429 45.9995 25.8778 45.9995 27.9995V29.9995H31.9995L29.9995 27.9995ZM6.53551 25.9995H13.4635C13.1124 25.3915 12.6075 24.8866 11.9994 24.5355C11.3914 24.1845 10.7016 23.9997 9.99951 23.9997C9.2974 23.9997 8.60766 24.1845 7.9996 24.5355C7.39154 24.8866 6.8866 25.3915 6.53551 25.9995V25.9995ZM1.99951 27.9995C1.99951 25.8778 2.84237 23.8429 4.34266 22.3427C5.84295 20.8424 7.87778 19.9995 9.99951 19.9995C12.1212 19.9995 14.1561 20.8424 15.6564 22.3427C17.1567 23.8429 17.9995 25.8778 17.9995 27.9995L15.9995 29.9995H1.99951V27.9995Z" fill="#7E1A44"/>
<path d="M24 26C21.8783 26 19.8434 26.8428 18.3431 28.3431C16.8429 29.8434 16 31.8782 16 34H32C32 31.8782 31.1571 29.8434 29.6569 28.3431C28.1566 26.8428 26.1217 26 24 26V26ZM12 34C12.0014 32.3233 12.3541 30.6656 13.0355 29.1336C13.7168 27.6017 14.7116 26.2295 15.9557 25.1055C17.1999 23.9816 18.6657 23.1308 20.2588 22.6081C21.8519 22.0854 23.5368 21.9023 25.205 22.0707C26.8731 22.239 28.4875 22.7551 29.944 23.5856C31.4005 24.4161 32.6668 25.5426 33.6613 26.8925C34.6558 28.2423 35.3563 29.7856 35.7178 31.4229C36.0793 33.0601 36.0936 34.7549 35.76 36.398L35.434 38H12.566L12.24 36.398C12.08 35.6087 11.9996 34.8053 12 34V34Z" fill="#7E1A44"/>
</svg>
