<svg width="48" height="48" viewBox="0 0 48 48" fill="none" xmlns="http://www.w3.org/2000/svg">
<path d="M21.3961 5.59772C22.1212 4.97587 23.0449 4.63403 24.0001 4.63403C24.9553 4.63403 25.879 4.97587 26.6041 5.59772L39.2761 16.4577L44.2501 20.4377C44.4552 20.6019 44.626 20.8048 44.7527 21.035C44.8794 21.2651 44.9595 21.518 44.9885 21.7791C45.0175 22.0402 44.9947 22.3045 44.9216 22.5568C44.8484 22.8091 44.7263 23.0446 44.5621 23.2497C44.398 23.4548 44.195 23.6256 43.9648 23.7523C43.7347 23.879 43.4818 23.9591 43.2207 23.9881C42.9596 24.0171 42.6953 23.9943 42.443 23.9212C42.1907 23.848 41.9552 23.7259 41.7501 23.5617L40.0001 22.1617V37.9997C40.0001 39.0606 39.5787 40.078 38.8285 40.8281C38.0784 41.5783 37.061 41.9997 36.0001 41.9997H12.0001C10.9392 41.9997 9.92182 41.5783 9.17168 40.8281C8.42153 40.078 8.0001 39.0606 8.0001 37.9997V22.1597L6.2501 23.5597C5.83584 23.8912 5.30684 24.0446 4.77949 23.9861C4.25213 23.9276 3.76963 23.662 3.4381 23.2477C3.10658 22.8335 2.95321 22.3045 3.01172 21.7771C3.07023 21.2497 3.33584 20.7672 3.7501 20.4357L8.7241 16.4557L21.3961 5.59572V5.59772ZM12.0001 18.9197V37.9997H18.0001V29.9997C18.0001 28.9389 18.4215 27.9214 19.1717 27.1713C19.9218 26.4211 20.9392 25.9997 22.0001 25.9997H26.0001C27.061 25.9997 28.0784 26.4211 28.8285 27.1713C29.5787 27.9214 30.0001 28.9389 30.0001 29.9997V37.9997H36.0001V18.9197L24.0001 8.63372L12.0001 18.9197ZM26.0001 37.9997V29.9997H22.0001V37.9997H26.0001Z" fill="#7E1A44"/>
</svg>
