<svg width="285" height="44" viewBox="0 0 285 44" fill="none" xmlns="http://www.w3.org/2000/svg">
<path d="M275.2 18.0697V12.9697H267.84C267.154 12.9724 266.497 13.2461 266.011 13.7312C265.526 14.2164 265.253 14.8737 265.25 15.5598V31.3797V42.5797H273.04C273.718 42.5773 274.367 42.3105 274.851 41.8361C275.335 41.3617 275.614 40.7171 275.63 40.0397V31.3797V25.9498C276.533 24.7162 277.724 23.7222 279.099 23.0546C280.474 22.387 281.992 22.0661 283.52 22.1198C283.856 22.1381 284.19 22.1782 284.52 22.2397V12.2397C281.09 12.3897 277.87 14.3897 275.2 18.0697Z" fill="#7F0E3D"/>
<path d="M143.89 16.7399C143.07 14.4499 140.77 13.0899 137.7 13.0899C134.63 13.0899 131.34 14.6799 128.33 17.5699V2.77988C128.303 2.15 128.043 1.55274 127.599 1.1051C127.155 0.657467 126.56 0.391696 125.93 0.359863H118.29V20.8599V40.0699C118.295 40.7366 118.562 41.3745 119.034 41.846C119.505 42.3175 120.143 42.5846 120.81 42.5899H128.39V25.1899C130.21 23.5499 131.57 22.7899 132.74 22.7899C133.91 22.7899 134.38 23.3599 134.49 24.9999V40.0699C134.506 40.726 134.777 41.3502 135.245 41.8096C135.714 42.2691 136.344 42.5275 137 42.5299H144.59V20.8299C144.603 19.4357 144.366 18.0504 143.89 16.7399Z" fill="#7F0E3D"/>
<path d="M225.62 12.9099L225.71 6.41991C225.705 5.75318 225.438 5.11523 224.966 4.64377C224.495 4.17231 223.857 3.90513 223.19 3.8999H215.53V12.8999H211.17V18.9699H215.53V32.4699C215.53 36.0699 215.95 38.1299 216.89 39.7199C217.83 41.3099 220.3 42.4799 223.19 42.5399H231.5V37.5999C231.49 36.941 231.223 36.3122 230.756 35.8472C230.289 35.3821 229.659 35.1176 229 35.1099H227.29C226.02 35.1099 225.67 34.3199 225.67 31.3399V18.9799H233.29V12.9099H225.62Z" fill="#7F0E3D"/>
<path d="M201.45 13.0698C197.97 13.0698 194.96 14.5398 191.72 17.8398V13.7798H184.46C183.792 13.7798 183.151 14.0453 182.678 14.5179C182.206 14.9905 181.94 15.6315 181.94 16.2998V42.5398H189.5C190.159 42.5374 190.791 42.2779 191.262 41.8167C191.732 41.3554 192.004 40.7286 192.02 40.0698V25.1698C193.61 23.6398 195.2 22.7598 196.38 22.7598C197.79 22.7598 198.09 23.4598 198.09 26.9998V31.6798V39.9698C198.09 39.9698 198.09 39.9698 198.09 40.0398C198.09 40.1098 198.09 40.0898 198.09 40.1198C198.111 40.7725 198.384 41.3916 198.852 41.8468C199.32 42.3019 199.947 42.5576 200.6 42.5598H208.11V22.6398C208.11 19.0998 207.99 17.8598 207.4 16.5098C206.52 14.3898 204.29 13.0698 201.45 13.0698Z" fill="#7F0E3D"/>
<path d="M166.11 16.23V31.16C164.52 32.69 162.93 33.57 161.75 33.57C160.34 33.57 160.04 32.86 160.04 29.33V24.64V16.36C160.04 16.36 160.04 16.36 160.04 16.29C160.04 16.22 160.04 16.24 160.04 16.21C160.019 15.5574 159.746 14.9382 159.278 14.4831C158.81 14.0279 158.183 13.7723 157.53 13.77H150.02V33.69C150.02 37.23 150.14 38.47 150.73 39.82C151.61 41.94 153.85 43.24 156.68 43.24C160.16 43.24 163.17 41.77 166.41 38.47V42.53H173.67C174.337 42.5248 174.975 42.2576 175.446 41.7861C175.918 41.3147 176.185 40.6768 176.19 40.01V13.77H168.63C167.973 13.7724 167.342 14.0304 166.872 14.4896C166.401 14.9488 166.128 15.573 166.11 16.23Z" fill="#7F0E3D"/>
<path d="M261.81 25.9199C261.69 22.1199 261.06 19.8299 259.53 17.4499C257.35 14.0299 253.99 12.3799 248.92 12.3799C240.29 12.3799 235.29 18.0699 235.29 27.7099C235.29 37.0099 239.77 42.2699 247.84 42.5399H259.29V37.7999C259.283 37.1477 259.024 36.5236 258.567 36.0578C258.111 35.592 257.492 35.3205 256.84 35.2999H250.06C246.88 35.2999 245.18 33.2999 245.12 29.7599H259.29C259.955 29.7573 260.592 29.492 261.062 29.0218C261.532 28.5517 261.797 27.9148 261.8 27.2499C261.83 26.7799 261.82 26.3399 261.81 25.9199ZM248.81 23.9199H244.93C245.13 20.6399 246.53 18.9699 248.93 18.9699C251.33 18.9699 252.43 20.6399 252.58 23.9199H248.81Z" fill="#7F0E3D"/>
<path d="M101.14 12.9197L101.23 6.42967C101.225 5.76294 100.958 5.12501 100.486 4.65355C100.015 4.18209 99.3767 3.9149 98.71 3.90967H91.05V12.9097H86.69V18.9797H91.05V32.4797C91.05 36.0797 91.47 38.1397 92.41 39.7297C93.5 41.4497 95.82 42.4897 98.71 42.5497H107.02V37.6097C107.01 36.9508 106.743 36.322 106.276 35.8569C105.809 35.3919 105.179 35.1274 104.52 35.1197H102.73C101.46 35.1197 101.11 34.3297 101.11 31.3497V18.9897H108.78V12.9197H101.11H101.14Z" fill="#7F0E3D"/>
<path d="M57.34 25.9296C57.23 22.1296 56.6 19.8396 55.07 17.4596C52.89 14.0396 49.53 12.3896 44.46 12.3896C35.85 12.3896 30.78 18.1096 30.78 27.7196C30.78 37.0096 35.26 42.2696 43.34 42.5396H54.8V37.7796C54.7925 37.1285 54.5332 36.5054 54.0764 36.0412C53.6197 35.577 53.0009 35.3077 52.35 35.2896H45.56C42.39 35.2896 40.69 33.3396 40.63 29.7496H54.85C55.5142 29.7419 56.1492 29.4753 56.6198 29.0065C57.0905 28.5377 57.3596 27.9038 57.37 27.2396C57.37 26.7863 57.36 26.3496 57.34 25.9296ZM44.34 23.8796H40.46C40.67 20.6096 42.07 18.9296 44.46 18.9296C46.85 18.9296 47.96 20.6096 48.1 23.8796H44.34Z" fill="#7F0E3D"/>
<path d="M17.53 12.82C16.0822 12.7747 14.6432 13.0622 13.3239 13.6603C12.0046 14.2584 10.8401 15.1512 9.92 16.27V2.48001C9.91477 1.82389 9.65181 1.19612 9.18785 0.732162C8.72389 0.268201 8.09612 0.0052283 7.44 0H0V40.07C0.00492773 40.7176 0.260988 41.3381 0.714252 41.8007C1.16752 42.2633 1.78261 42.5319 2.43 42.55H9.43V39.55C11.56 42.22 13.43 43.23 16.32 43.23C23.32 43.23 27.79 37.05 27.79 27.54C27.81 18.47 23.89 12.82 17.53 12.82ZM13.78 35.46C12.54 35.46 11.29 34.81 9.92 33.38V23.16C10.4331 22.5608 11.0594 22.0686 11.7629 21.7117C12.4664 21.3548 13.2334 21.1401 14.02 21.08C16.34 21.08 17.53 23.58 17.53 28.33C17.53 33.08 16.22 35.46 13.78 35.46Z" fill="#7F0E3D"/>
<path d="M81.29 26.5799C79.62 25.0399 78.55 24.4999 74.04 22.9599C71.9 22.2399 71.24 21.7099 71.24 20.6999C71.24 19.6899 72.02 18.9199 73.41 18.7699H82.52V14.6399C82.5173 13.9839 82.2549 13.3557 81.7901 12.8927C81.3253 12.4298 80.696 12.1699 80.04 12.1699H73.39C65.51 12.2199 60.64 15.7099 60.64 21.3799C60.64 25.2399 63.44 28.5699 68.25 30.2399L70.69 31.0699C72.41 31.6599 73.18 32.3799 73.18 33.4499C73.18 34.9299 71.93 35.7599 69.8 35.7599H63.03C62.3808 35.7755 61.7632 36.043 61.3078 36.5059C60.8524 36.9687 60.595 37.5906 60.59 38.2399V42.6099H69.97C78.47 42.6099 83.82 38.6899 83.82 32.4499C83.8244 31.3501 83.602 30.2612 83.1667 29.2513C82.7314 28.2413 82.0925 27.3319 81.29 26.5799Z" fill="#7F0E3D"/>
</svg>
