<svg width="248" height="44" viewBox="0 0 248 44" fill="none" xmlns="http://www.w3.org/2000/svg">
<path d="M86.5 34.3198C85.8325 34.3225 85.193 34.5888 84.721 35.0608C84.249 35.5328 83.9826 36.1723 83.98 36.8398V43.3198H91.54C92.2075 43.3172 92.8469 43.0508 93.319 42.5788C93.791 42.1068 94.0574 41.4674 94.06 40.7998V34.3198H86.5Z" fill="#7F0E3D"/>
<path d="M101.62 34.3198C100.953 34.3225 100.313 34.5888 99.8411 35.0608C99.3691 35.5328 99.1027 36.1723 99.1001 36.8398V43.3198H106.66C107.327 43.3146 107.965 43.0474 108.436 42.576C108.908 42.1045 109.175 41.4666 109.18 40.7998V34.3198H101.62Z" fill="#7F0E3D"/>
<path d="M176.37 3.77979C176.038 3.7811 175.709 3.84784 175.403 3.97619C175.096 4.10455 174.818 4.29201 174.584 4.52787C174.35 4.76373 174.165 5.04337 174.039 5.35083C173.913 5.65829 173.849 5.98754 173.85 6.31979V12.8198H181.41C182.073 12.8146 182.708 12.5502 183.179 12.0831C183.65 11.6159 183.92 10.983 183.93 10.3198V3.81979L176.37 3.77979Z" fill="#7F0E3D"/>
<path d="M163.55 14.2197H162.5C161.926 14.2256 161.372 14.427 160.928 14.7906C160.485 15.1543 160.178 15.6584 160.06 16.2197V16.3797L157.4 31.9397L154.07 16.3197V16.1297C153.934 15.5851 153.62 15.1014 153.178 14.7554C152.736 14.4094 152.191 14.2209 151.63 14.2197H147.47C146.919 14.2524 146.393 14.4661 145.976 14.8277C145.558 15.1893 145.271 15.6786 145.16 16.2197V16.2897L141.88 31.9397L139.2 16.2997C139.079 15.7343 138.768 15.2274 138.318 14.8635C137.869 14.4996 137.308 14.3006 136.73 14.2997H129.29L135.29 37.9697L136.59 43.0397H145.79L149.6 28.6597L153.41 43.0397H162.61L163.91 37.9697L169.91 14.2997H163.53L163.55 14.2197Z" fill="#7F0E3D"/>
<path d="M181.41 14.2197H173.85V40.4597C173.853 41.1273 174.119 41.7667 174.591 42.2387C175.063 42.7107 175.703 42.9771 176.37 42.9797H183.93V16.7397C183.927 16.0722 183.661 15.4327 183.189 14.9607C182.717 14.4887 182.078 14.2224 181.41 14.2197Z" fill="#7F0E3D"/>
<path d="M210.5 13.5098C207.02 13.5098 204.02 14.9798 200.77 18.2798V14.2198H193.5C192.832 14.2224 192.193 14.4887 191.721 14.9608C191.249 15.4328 190.983 16.0722 190.98 16.7398V42.9798H198.5C199.159 42.9773 199.791 42.7179 200.262 42.2566C200.732 41.7953 201.004 41.1686 201.02 40.5098V25.5898C202.61 24.0598 204.2 23.1698 205.38 23.1698C206.79 23.1698 207.09 23.8798 207.09 27.4198V32.0998V40.3798C207.09 40.3798 207.09 40.3798 207.09 40.4598C207.09 40.5398 207.09 40.4598 207.09 40.5398C207.113 41.1916 207.387 41.8093 207.855 42.2639C208.323 42.7186 208.948 42.975 209.6 42.9798H217.11V23.0598C217.11 19.5198 216.99 18.2798 216.4 16.9298C215.5 14.7998 213.28 13.5098 210.5 13.5098Z" fill="#7F0E3D"/>
<path d="M247.5 27.6598C247.5 27.1998 247.5 26.7598 247.5 26.3398C247.39 22.5398 246.76 20.2498 245.23 17.8698C243.04 14.4498 239.69 12.7998 234.62 12.7998C226.01 12.7998 220.94 18.5198 220.94 28.1298C220.94 37.4298 225.42 42.6798 233.49 42.9498H244.96V38.2198C244.95 37.5677 244.688 36.9447 244.23 36.4807C243.772 36.0168 243.152 35.7478 242.5 35.7298H235.71C232.54 35.7298 230.83 33.7798 230.77 30.1898H245C245.663 30.1845 246.297 29.9181 246.765 29.4482C247.233 28.9784 247.497 28.343 247.5 27.6798V27.6598ZM234.5 24.3198H230.61C230.82 21.0398 232.22 19.3198 234.61 19.3198C237 19.3198 238.11 20.9998 238.25 24.3198H234.5Z" fill="#7F0E3D"/>
<path d="M78.96 14.54C78.2932 14.5453 77.6553 14.8124 77.1838 15.2839C76.7124 15.7554 76.4452 16.3933 76.4399 17.06V23.56H83.9999C84.6632 23.5496 85.296 23.2801 85.7632 22.8092C86.2304 22.3383 86.4948 21.7033 86.4999 21.04V14.54H78.96Z" fill="#7F0E3D"/>
<path d="M94.0701 14.54C93.4025 14.5427 92.7631 14.809 92.2911 15.281C91.8191 15.7531 91.5527 16.3925 91.55 17.06V23.56H99.11C99.7768 23.5548 100.415 23.2876 100.886 22.8162C101.358 22.3447 101.625 21.7068 101.63 21.04V14.54H94.0701Z" fill="#7F0E3D"/>
<path d="M109.17 14.54C108.503 14.5453 107.865 14.8124 107.394 15.2839C106.922 15.7554 106.655 16.3933 106.65 17.06V23.56H114.21C114.877 23.5548 115.515 23.2876 115.986 22.8162C116.457 22.3447 116.725 21.7068 116.73 21.04V14.54H109.17Z" fill="#7F0E3D"/>
<path d="M59.91 16.7399C59.08 14.4499 56.78 13.0899 53.72 13.0899C50.66 13.0899 47.35 14.6799 44.35 17.5699V2.77986C44.3234 2.14998 44.0626 1.55273 43.6187 1.10509C43.1747 0.657458 42.5796 0.391696 41.95 0.359863H34.27V20.8599V40.0399C34.2727 40.7074 34.539 41.3468 35.011 41.8189C35.483 42.2909 36.1224 42.5572 36.79 42.5599H44.37V25.1599C46.19 23.5199 47.54 22.7599 48.72 22.7599C49.9 22.7599 50.36 23.3299 50.46 24.9699V40.0999C50.4807 40.7561 50.7547 41.3789 51.2245 41.8375C51.6943 42.2961 52.3234 42.555 52.98 42.5599H60.57V20.8599C60.5986 19.4581 60.3751 18.0626 59.91 16.7399Z" fill="#7F0E3D"/>
<path d="M17.5 12.82C16.0531 12.7854 14.6175 13.0828 13.3035 13.6896C11.9895 14.2963 10.832 15.1962 9.91998 16.32V2.48C9.91735 1.82307 9.65526 1.1938 9.19073 0.729284C8.72621 0.264764 8.09693 0.002633 7.44 0H0V40.06C0.00500805 40.7093 0.262439 41.3312 0.717834 41.7941C1.17323 42.2569 1.79086 42.5244 2.44 42.54H9.44V39.54C11.58 42.21 13.44 43.22 16.33 43.22C23.33 43.22 27.8 37.04 27.8 27.53C27.81 18.47 23.89 12.82 17.5 12.82ZM13.76 35.46C12.51 35.46 11.26 34.81 9.89001 33.38V23.16C10.4043 22.5596 11.0321 22.0668 11.7374 21.7099C12.4428 21.3529 13.2117 21.1389 14 21.08C16.31 21.08 17.5 23.58 17.5 28.33C17.5 33.08 16.22 35.46 13.79 35.46H13.76Z" fill="#7F0E3D"/>
</svg>
