<svg width="7" height="12" viewBox="0 0 7 12" fill="none" xmlns="http://www.w3.org/2000/svg">
<g clip-path="url(#clip0_2197:16420)">
<path d="M5.25092 10.875H4.2787V8.12836C5.9429 7.75594 7.14797 6.25547 6.98634 4.51523L6.59867 0.341016C6.58068 0.147891 6.41516 0 6.21683 0H0.78502C0.58693 0 0.421166 0.147891 0.403423 0.341016L0.0155065 4.51547C-0.146126 6.2557 1.05894 7.75617 2.72315 8.12859V10.875H1.75092C1.21401 10.875 0.778701 11.2948 0.778701 11.8125C0.778701 11.9161 0.865715 12 0.973145 12H6.0287C6.13613 12 6.22315 11.9161 6.22315 11.8125C6.22315 11.2948 5.78783 10.875 5.25092 10.875Z" fill="#FF9F1C"/>
</g>
<defs>
<clipPath id="clip0_2197:16420">
<rect width="7" height="12" fill="white"/>
</clipPath>
</defs>
</svg>
