<svg width="36" height="36" viewBox="0 0 36 36" fill="none" xmlns="http://www.w3.org/2000/svg">
<g clip-path="url(#clip0_2168:15043)">
<path fill-rule="evenodd" clip-rule="evenodd" d="M14.6123 17.1278C14.3543 17.0444 14.0802 17.0236 13.8127 17.067C13.5451 17.1104 13.2916 17.2168 13.0732 17.3774C12.8548 17.538 12.6778 17.7482 12.5566 17.9907L12.5556 17.9928C12.3944 18.3138 12.3383 18.6773 12.3951 19.0318C12.452 19.3864 12.6189 19.7142 12.8723 19.9686C12.8772 19.9735 12.8821 19.9785 12.8868 19.9835L16.8747 24.1383L20.8571 19.984C20.8625 19.9783 20.8681 19.9726 20.8737 19.967C21.1277 19.713 21.2953 19.3855 21.3528 19.0309C21.4103 18.6763 21.3548 18.3125 21.1941 17.9913L22.2002 17.488L21.1938 17.9907C21.0726 17.7482 20.8956 17.538 20.6772 17.3774C20.4588 17.2168 20.2054 17.1104 19.9378 17.067C19.6702 17.0236 19.3961 17.0444 19.1381 17.1278C18.8802 17.2112 18.6458 17.3547 18.4542 17.5465L17.6707 18.33C17.2314 18.7693 16.5191 18.7693 16.0797 18.33L15.2962 17.5465C15.1047 17.3547 14.8702 17.2112 14.6123 17.1278ZM23.2064 16.9847C23.5783 17.7284 23.7069 18.5702 23.5738 19.391C23.4414 20.2076 23.0567 20.9621 22.4738 21.5488L17.6873 26.542C17.4752 26.7632 17.182 26.8884 16.8756 26.8885C16.5691 26.8886 16.2758 26.7636 16.0636 26.5425L11.2701 21.5483C10.688 20.9605 10.3045 20.2051 10.1735 19.388C10.042 18.5677 10.1717 17.7267 10.5443 16.9841C10.8249 16.423 11.2347 15.9365 11.7401 15.5648C12.2459 15.1928 12.8328 14.9465 13.4525 14.846C14.0722 14.7455 14.7069 14.7938 15.3043 14.9869C15.8958 15.1781 16.434 15.5058 16.8752 15.9435C17.3164 15.5058 17.8546 15.1781 18.4461 14.9869C19.0435 14.7938 19.6782 14.7455 20.2979 14.846C20.9176 14.9465 21.5045 15.1928 22.0103 15.5648C22.5158 15.9366 22.9258 16.4233 23.2064 16.9847Z" fill="#8C8A97"/>
<path fill-rule="evenodd" clip-rule="evenodd" d="M33.576 2.40241C36.0279 8.32141 36.0128 15.3992 36.0006 21.0584L36.0002 21.2691C35.9986 21.8648 35.7608 22.4355 35.3391 22.8562C34.9173 23.2768 34.3459 23.5131 33.7502 23.5131H31.4972V33.6381C31.4972 34.2594 30.9935 34.7631 30.3722 34.7631C29.7508 34.7631 29.2472 34.2594 29.2472 33.6381V22.4461C29.2462 22.4267 29.2457 22.4072 29.2457 22.3876C29.2457 22.3679 29.2462 22.3484 29.2472 22.329V3.31642C29.2461 3.29095 29.2456 3.26413 29.2456 3.2359C29.2456 2.00107 30.2466 1 31.4815 1C31.9372 1 32.3611 1.13632 32.7145 1.37041C33.0988 1.61765 33.4001 1.97754 33.576 2.40241C33.5665 2.37849 33.558 2.39241 33.576 2.40241ZM33.7502 21.2634H31.4973L31.4974 3.26341C33.7758 8.76341 33.7623 15.464 33.7502 21.2634Z" fill="#8C8A97"/>
<path fill-rule="evenodd" clip-rule="evenodd" d="M3.375 12.2637C3.99632 12.2637 4.5 12.7674 4.5 13.3887V33.6387C4.5 34.26 3.99632 34.7637 3.375 34.7637C2.75368 34.7637 2.25 34.26 2.25 33.6387V13.3887C2.25 12.7674 2.75368 12.2637 3.375 12.2637Z" fill="#8C8A97"/>
<path fill-rule="evenodd" clip-rule="evenodd" d="M1.125 1.01367C1.74632 1.01367 2.25 1.51735 2.25 2.13867V11.1387C2.25 11.437 2.36853 11.7232 2.57951 11.9342C2.79048 12.1451 3.07663 12.2637 3.375 12.2637C3.67337 12.2637 3.95952 12.1451 4.1705 11.9342C4.38147 11.7232 4.5 11.437 4.5 11.1387V2.13867C4.5 1.51735 5.00368 1.01367 5.625 1.01367C6.24632 1.01367 6.75 1.51735 6.75 2.13867V11.1387C6.75 12.0338 6.39442 12.8922 5.76149 13.5252C5.12855 14.1581 4.27011 14.5137 3.375 14.5137C2.47989 14.5137 1.62145 14.1581 0.988515 13.5252C0.355579 12.8922 0 12.0338 0 11.1387V2.13867C0 1.51735 0.50368 1.01367 1.125 1.01367Z" fill="#8C8A97"/>
<path fill-rule="evenodd" clip-rule="evenodd" d="M12.1323 9.17152C13.6287 8.52053 15.2431 8.18457 16.875 8.18457C18.5069 8.18457 20.1213 8.52053 21.6177 9.17152C23.1142 9.82251 24.4606 10.7746 25.5731 11.9685C25.9966 12.4231 25.9715 13.1349 25.517 13.5585C25.0624 13.9821 24.3505 13.9569 23.9269 13.5024C23.025 12.5344 21.9334 11.7625 20.7202 11.2347C19.507 10.7069 18.1981 10.4346 16.875 10.4346C15.5519 10.4346 14.2431 10.7069 13.0298 11.2347C11.8166 11.7625 10.725 12.5344 9.82306 13.5024C9.39949 13.9569 8.68762 13.9821 8.23306 13.5585C7.7785 13.1349 7.75338 12.4231 8.17695 11.9685C9.28946 10.7746 10.6358 9.82251 12.1323 9.17152Z" fill="#8C8A97"/>
<path fill-rule="evenodd" clip-rule="evenodd" d="M8.23306 26.718C8.68762 26.2944 9.39949 26.3195 9.82306 26.7741C10.725 27.742 11.8166 28.5139 13.0298 29.0417C14.2431 29.5695 15.5519 29.8419 16.875 29.8419C18.1981 29.8419 19.507 29.5695 20.7202 29.0417C21.9334 28.5139 23.025 27.742 23.9269 26.7741C24.3505 26.3195 25.0624 26.2944 25.517 26.718C25.9715 27.1415 25.9966 27.8534 25.5731 28.308C24.4606 29.5019 23.1142 30.454 21.6177 31.105C20.1213 31.7559 18.5069 32.0919 16.875 32.0919C15.2431 32.0919 13.6287 31.7559 12.1323 31.105C10.6358 30.454 9.28946 29.5019 8.17695 28.308C7.75338 27.8534 7.7785 27.1415 8.23306 26.718Z" fill="#8C8A97"/>
</g>
<defs>
<clipPath id="clip0_2168:15043">
<rect width="36" height="36" fill="white"/>
</clipPath>
</defs>
</svg>
