<svg width="36" height="36" viewBox="0 0 36 36" fill="none" xmlns="http://www.w3.org/2000/svg">
<g clip-path="url(#clip0_2168:15045)">
<path fill-rule="evenodd" clip-rule="evenodd" d="M34.8818 0C35.5032 0 36.0068 0.50368 36.0068 1.125V34.875C36.0068 35.4963 35.5032 36 34.8818 36C34.2605 36 33.7568 35.4963 33.7568 34.875V1.125C33.7568 0.50368 34.2605 0 34.8818 0Z" fill="#8C8A97"/>
<path fill-rule="evenodd" clip-rule="evenodd" d="M8.54861 10.2107C7.98448 9.29691 7.79402 8.19673 8.19282 7.18088C8.59162 6.16503 9.47968 5.48826 10.5148 5.20228C11.5425 4.91835 12.6893 5.01739 13.718 5.42124C14.7467 5.82508 15.6545 6.53264 16.2146 7.43988C16.7787 8.35372 16.9692 9.45389 16.5704 10.4697C16.1716 11.4856 15.2835 12.1624 14.2484 12.4484C13.2207 12.7323 12.0739 12.6332 11.0452 12.2294C10.0165 11.8255 9.10867 11.118 8.54861 10.2107ZM10.2872 8.0031C10.1952 8.23742 10.196 8.59608 10.4632 9.02884C10.7344 9.46819 11.2297 9.88465 11.8674 10.135C12.5051 10.3854 13.1515 10.4171 13.6492 10.2796C14.1394 10.1442 14.384 9.88185 14.476 9.64753C14.568 9.41321 14.5672 9.05455 14.3 8.62179C14.0288 8.18244 13.5335 7.76598 12.8958 7.51562C12.258 7.26527 11.6117 7.23354 11.114 7.37103C10.6238 7.50646 10.3792 7.76878 10.2872 8.0031Z" fill="#8C8A97"/>
<path fill-rule="evenodd" clip-rule="evenodd" d="M20.8692 6.24155C21.2952 5.90033 21.7789 5.62292 22.2933 5.421C22.8076 5.21907 23.3509 5.0933 23.8952 5.05361C24.4391 5.01394 24.9835 5.06035 25.4964 5.20204C26.0095 5.34378 26.4899 5.58088 26.896 5.91764C27.3042 6.25604 27.6235 6.68423 27.8184 7.18064C28.0133 7.67706 28.0706 8.20814 28.0016 8.73383C27.933 9.25698 27.7422 9.75758 27.4626 10.2105C27.1831 10.6633 26.8157 11.0677 26.3901 11.4086C25.9641 11.7498 25.4804 12.0272 24.966 12.2292C24.4517 12.4311 23.9084 12.5568 23.3641 12.5965C22.8202 12.6362 22.2758 12.5898 21.7629 12.4481C21.2498 12.3064 20.7694 12.0693 20.3632 11.7325C19.9551 11.3941 19.6357 10.9659 19.4409 10.4695C19.246 9.97309 19.1887 9.44202 19.2577 8.91632C19.3263 8.39317 19.5171 7.89257 19.7967 7.43964C20.0762 6.98688 20.4436 6.5825 20.8692 6.24155ZM23.1155 7.51539C22.8047 7.63739 22.5193 7.80265 22.2759 7.9976C22.0322 8.1928 21.8433 8.40755 21.7112 8.62155C21.5792 8.83539 21.5112 9.03612 21.4886 9.20884C21.4663 9.379 21.4871 9.52469 21.5353 9.64729C21.5834 9.7699 21.6672 9.89087 21.7993 10.0004C21.9334 10.1116 22.1198 10.2124 22.3621 10.2794C22.6045 10.3463 22.889 10.3752 23.2004 10.3525C23.5114 10.3298 23.833 10.2568 24.1438 10.1348C24.4546 10.0128 24.74 9.8475 24.9834 9.65256C25.227 9.45735 25.4159 9.2426 25.5481 9.0286C25.6801 8.81476 25.7481 8.61403 25.7707 8.44132C25.793 8.27115 25.7722 8.12546 25.724 8.00286C25.6759 7.88026 25.5921 7.75928 25.46 7.64974C25.3259 7.53856 25.1395 7.43771 24.8972 7.37079C24.6548 7.30382 24.3703 7.27494 24.0589 7.29765C23.7479 7.32033 23.4262 7.39339 23.1155 7.51539Z" fill="#8C8A97"/>
<path fill-rule="evenodd" clip-rule="evenodd" d="M0.483889 0.205217C0.777487 -0.00155268 1.15216 -0.0557376 1.4923 0.0593795L6.7888 1.85188C6.81667 1.86131 6.84415 1.87183 6.87118 1.88341C7.32332 2.07711 7.81852 2.14824 8.3069 2.08963C8.79528 2.03103 9.25959 1.84476 9.65306 1.54958L9.65981 1.54456C10.8982 0.629939 12.4103 0.16265 13.9488 0.219135C15.4334 0.273641 16.8577 0.812739 18.0052 1.75163C19.1526 0.812739 20.5769 0.273641 22.0615 0.219135C23.6 0.16265 25.1121 0.629939 26.3505 1.54456L26.3575 1.54973C26.7508 1.84496 27.2151 2.03127 27.7034 2.08987C28.1917 2.14846 28.6869 2.07729 29.1389 1.88351C29.1661 1.87186 29.1937 1.86129 29.2217 1.85182L34.5212 0.0593175C34.8613 -0.0557198 35.2359 -0.00151283 35.5294 0.20522C35.823 0.411954 36.0002 0.746381 36.0065 1.10536C36.0409 3.07566 35.9469 5.0461 35.725 7.00417C35.724 7.01297 35.7229 7.02176 35.7217 7.03054C35.4482 9.02214 34.6851 10.9148 33.5007 12.5391C32.3163 14.1635 30.7475 15.4687 28.9348 16.3379C27.1222 17.2071 25.1222 17.6132 23.1141 17.5199C21.3274 17.4368 19.5838 16.9606 18.0066 16.1285C16.4293 16.9606 14.6857 17.4367 12.8989 17.5197C10.8907 17.6131 8.89076 17.207 7.07803 16.3378C5.2653 15.4686 3.6964 14.1635 2.5118 12.5392C1.3272 10.915 0.563862 9.02231 0.29014 7.03068C0.288892 7.02161 0.287756 7.01251 0.28673 7.00341C0.0662402 5.04555 -0.0272548 3.07548 0.00683165 1.10554C0.0130444 0.746497 0.190291 0.411988 0.483889 0.205217ZM29.982 3.96988C29.1781 4.30562 28.3008 4.42769 27.4353 4.32384C26.5558 4.2183 25.7196 3.88317 25.0107 3.35216C24.1827 2.7417 23.1722 2.42987 22.1441 2.46762C21.1147 2.50541 20.1286 2.89142 19.3471 3.56251L18.7398 4.08428C18.319 4.44591 17.6973 4.44666 17.2756 4.08606L16.6651 3.56406L16.6632 3.56251C15.8818 2.89142 14.8957 2.50541 13.8663 2.46762C12.8381 2.42987 11.8275 2.74174 10.9995 3.35227C10.2905 3.88308 9.45437 4.21808 8.57497 4.32361C7.70954 4.42746 6.83223 4.30547 6.02835 3.96988L2.25735 2.69365C2.28221 4.04475 2.37017 5.39423 2.52103 6.73767C2.74566 8.35581 3.36696 9.89337 4.32968 11.2134C5.29505 12.537 6.57359 13.6006 8.05084 14.309C9.52808 15.0173 11.1579 15.3482 12.7945 15.2722C14.431 15.1961 16.0231 14.7154 17.4283 13.8731C17.7843 13.6596 18.2291 13.6596 18.5851 13.8731C19.9902 14.7155 21.5822 15.1962 23.2186 15.2723C24.855 15.3484 26.4848 15.0174 27.9619 14.3091C29.4391 13.6008 30.7175 12.5371 31.6827 11.2135C32.6454 9.89333 33.2665 8.35561 33.4908 6.73736C33.6426 5.39398 33.7311 4.04448 33.7561 2.69334L29.982 3.96988Z" fill="#8C8A97"/>
</g>
<defs>
<clipPath id="clip0_2168:15045">
<rect width="36" height="36" fill="white"/>
</clipPath>
</defs>
</svg>
