<svg width="33" height="32" viewBox="0 0 33 32" fill="none" xmlns="http://www.w3.org/2000/svg">
<g clip-path="url(#clip0_1633:14783)">
<path d="M18.1507 11.0997C18.1507 10.1887 17.3677 10.0777 16.6287 10.0777L14.4567 10.0617V13.9117H15.3677V12.5177H16.3677C17.3897 12.5177 17.1737 13.0897 17.1897 13.9117H18.1117V13.1617C18.1117 12.6507 18.0287 12.3227 17.5007 12.1397C17.9117 11.9727 18.1567 11.5457 18.1507 11.1007V11.0997ZM16.5177 11.7277H15.3677V10.8777H16.5347C16.8177 10.8777 17.1287 10.9337 17.1287 11.2887C17.1287 11.6557 16.8347 11.7277 16.5177 11.7277ZM15.5897 16.6997H12.6617L11.4947 17.9657L10.3557 16.6997H6.66166L6.65566 20.5497H10.2897L11.4727 19.2717L12.6057 20.5497H14.3947L14.4007 19.2557C15.4507 19.2557 17.1397 19.5107 17.1397 17.9617C17.1397 17.0007 16.4567 16.7007 15.5897 16.7007V16.6997ZM9.82266 19.7387H7.56766V18.9717H9.58366V18.1887H7.56766V17.4947H9.88466L10.8787 18.6167L9.82266 19.7387ZM13.4787 20.1937L12.0727 18.6327L13.4787 17.1107V20.1937ZM15.5787 18.4717H14.4007V17.4937H15.5947C15.9057 17.4937 16.1617 17.6217 16.1617 17.9607C16.1617 18.3157 15.9057 18.4717 15.5787 18.4717ZM13.8227 10.8777V10.0667H10.7397V13.9167H13.8227V13.1227H11.6617V12.3557H13.7617V11.5727H11.6617V10.8787L13.8227 10.8777ZM32.0897 15.9667H32.0787H32.0897ZM21.2787 17.7387C21.2787 16.8277 20.4957 16.6997 19.7737 16.6997H17.5847L17.5797 20.5497H18.5017L18.5077 19.1447H19.4857C20.0967 19.1447 20.3077 19.2557 20.3077 19.9107L20.3027 20.5497H21.2247L21.2307 19.7837C21.2307 19.2887 21.1307 18.9447 20.6197 18.7617C21.0477 18.5897 21.2757 18.1617 21.2807 17.7397L21.2787 17.7387ZM19.6567 18.3607H18.5067V17.4937H19.6737C19.9567 17.4937 20.2677 17.5497 20.2677 17.9047C20.2677 18.2877 19.9677 18.3607 19.6567 18.3607ZM10.0567 13.9167V10.0667H8.52366L7.42966 12.6777L6.22366 10.0667H4.71866V13.7167L3.15766 10.0667H1.79666L0.14666 13.9167H1.14066L1.49666 13.0667H3.41366L3.76866 13.9167H5.64666V10.9057L6.97966 13.9167H7.79066L9.12366 10.9057V13.9167H10.0567ZM1.82266 12.2667L2.44466 10.7337L3.08366 12.2667H1.82266ZM28.3457 21.0937V20.8437C27.7457 21.1547 28.1287 21.0937 19.6397 21.0937C19.6397 19.6937 19.6457 19.7657 19.6397 19.6937C19.5457 19.6877 19.4617 19.6877 19.1177 19.6877C19.1177 20.6827 19.1117 20.0657 19.1117 21.0937H16.9117C16.9117 20.4217 16.9167 20.2437 16.9167 19.4717C16.3607 19.8047 15.6507 19.8267 15.0117 19.8157C15.0117 20.6327 15.0057 20.2767 15.0057 21.0937H12.2887C12.0057 20.7767 12.1387 20.9217 11.4327 20.1267C11.2547 20.3207 10.7217 20.8987 10.5387 21.0937H5.98266V15.9657H10.5997C10.8777 16.2767 10.7557 16.1377 11.4607 16.9217C11.6387 16.7277 12.1387 16.1767 12.3327 15.9657H15.5547C16.0997 15.9657 16.5547 16.0717 16.9047 16.2767V15.9657C19.9217 15.9657 20.4767 15.8877 21.1107 16.2487V15.9657H25.4557V16.2547C26.0887 15.8717 26.5447 15.9657 29.0607 15.9657V16.2437C29.6327 15.9157 29.9827 15.9547 32.0777 15.9657V6.22169C32.0774 5.51444 31.7963 4.83623 31.2962 4.33613C30.7961 3.83602 30.1179 3.55495 29.4107 3.55469H2.74366C2.03641 3.55495 1.3582 3.83602 0.858099 4.33613C0.357997 4.83623 0.0769252 5.51444 0.0766602 6.22169V12.3217L1.35966 9.32669H3.56566C3.80466 9.88769 3.65466 9.53269 4.06566 10.4987V9.32669H6.62166C6.78266 9.67169 7.23866 10.6597 7.39366 10.9937C7.71566 10.2387 7.95466 9.66569 8.09366 9.32669H13.8157C13.8157 9.32169 14.4547 9.32669 14.4597 9.32669C16.8877 9.33769 17.4377 9.28269 18.0377 9.62069V9.32669H20.2547V9.84369C20.6767 9.50469 21.2487 9.32669 21.9607 9.32669H23.4937C23.4937 9.35469 23.5987 9.34369 23.6217 9.34369H25.4217C25.6547 9.88769 25.5667 9.67669 25.9107 10.4887V9.34369H28.3167C28.5887 9.78769 28.2607 9.24369 28.9387 10.3657V9.34369H31.1557V14.4547H28.8447C28.5447 13.9547 28.7667 14.3327 28.1107 13.2377V14.4547H25.1777C24.8217 13.6327 25.1717 14.4377 24.8107 13.6047H23.7547C23.5217 14.1607 23.6327 13.8937 23.3997 14.4547H21.9107C21.2277 14.4547 20.6717 14.2877 20.2607 13.9607V14.4547H16.5667C16.5497 13.6827 16.5607 13.0767 16.5607 13.0767C16.4607 13.0607 16.3717 13.0657 16.0167 13.0657V14.4607H8.48866V13.8277C8.34966 14.1387 8.33866 14.1557 8.20566 14.4607H6.56666C6.34466 13.9657 6.40566 14.1047 6.28366 13.8277V14.4607H3.34466C3.11066 13.8997 3.22266 14.1667 2.98866 13.6107H1.92166C1.68866 14.1667 1.79966 13.8997 1.56666 14.4607H0.0886602V25.7777C0.0889252 26.4849 0.369997 27.1631 0.870099 27.6632C1.3702 28.1634 2.04841 28.4444 2.75566 28.4447H29.4277C30.1349 28.4444 30.8131 28.1634 31.3132 27.6632C31.8133 27.1631 32.0944 26.4849 32.0947 25.7777V20.7557C31.3887 21.2167 30.2777 21.0947 28.3447 21.0947L28.3457 21.0937ZM30.3617 17.5107H32.0337V16.6997H30.2057C29.4947 16.6997 28.8837 17.0657 28.8837 17.8497C28.8837 19.6827 31.2557 18.5607 31.2557 19.3717C31.2557 19.6547 31.0167 19.7277 30.7887 19.7277H29.0107L29.0047 20.5497H30.7827C31.2497 20.5497 31.7607 20.4497 32.0327 20.0557V18.6227C31.4497 17.8557 29.8497 18.5507 29.8497 17.8727C29.8497 17.5507 30.1057 17.5117 30.3607 17.5117L30.3617 17.5107ZM27.1947 19.7217H25.4057L25.4007 20.5437H27.1897C28.0117 20.5437 28.6457 20.2327 28.6457 19.3217C28.6457 17.4777 26.2627 18.6997 26.2627 17.8607C26.2627 17.5497 26.5347 17.5057 26.7737 17.5057H28.4627V16.6947H26.6187C25.9077 16.6947 25.3127 17.0617 25.3127 17.8447C25.3127 19.6777 27.6847 18.5387 27.6847 19.3667C27.6797 19.6667 27.4237 19.7217 27.1957 19.7217H27.1947ZM24.8507 17.4937V16.6997H21.7837L21.7777 20.5497H24.8447L24.8497 19.7557L22.7057 19.7387V18.9717H24.8107V18.1887H22.7107V17.4947L24.8507 17.4937ZM21.7227 11.4887C21.7067 11.4997 21.6447 11.6107 21.6447 11.9107C21.6447 12.2437 21.6947 12.3387 21.7057 12.3497C21.7167 12.3547 21.7667 12.3777 21.8947 12.3777L22.3007 11.4387C22.2397 11.4387 22.1837 11.4337 22.1287 11.4337C21.8177 11.4337 21.7397 11.4727 21.7227 11.4897V11.4887ZM22.8567 10.9057H22.8507H22.8567ZM21.9567 10.0607C20.6507 10.0607 20.0677 10.7277 20.0677 12.0217C20.0677 13.2557 20.6347 13.9107 21.9007 13.9107H22.9677L23.3227 13.0607H25.2287L25.5957 13.9107H27.4677V11.0277L29.2007 13.9107H30.5117V10.0777H29.5727V12.7497L27.9567 10.0777H26.5507V13.7107L25.0007 10.0777H23.6227L22.3167 13.1057H21.9057C21.1667 13.1057 21.0117 12.6557 21.0117 12.0007C21.0117 10.6787 21.8837 10.8897 22.8507 10.9067V10.0627L21.9567 10.0607ZM24.2957 10.7327L24.9177 12.2657H23.6517L24.2957 10.7327ZM18.6787 10.0667V13.9167H19.6177V10.0667H18.6787Z" fill="white"/>
</g>
<defs>
<clipPath id="clip0_1633:14783">
<rect width="32" height="32" fill="white" transform="translate(0.0898438)"/>
</clipPath>
</defs>
</svg>
