<svg width="33" height="32" viewBox="0 0 33 32" fill="none" xmlns="http://www.w3.org/2000/svg">
<g clip-path="url(#clip0_1633:14785)">
<path d="M26.9179 24.5723C26.9179 24.9503 26.6629 25.2223 26.2959 25.2223C25.9179 25.2223 25.6739 24.9333 25.6739 24.5723C25.6739 24.2113 25.9179 23.9223 26.2959 23.9223C26.6629 23.9223 26.9179 24.2113 26.9179 24.5723ZM9.65087 23.9223C9.25587 23.9223 9.02887 24.2113 9.02887 24.5723C9.02887 24.9333 9.25687 25.2223 9.65087 25.2223C10.0119 25.2223 10.2559 24.9503 10.2559 24.5723C10.2499 24.2113 10.0119 23.9223 9.65087 23.9223ZM16.1789 23.9063C15.8789 23.9063 15.6949 24.1003 15.6509 24.3893H16.7119C16.6619 24.0723 16.4679 23.9063 16.1789 23.9063ZM22.1679 23.9223C21.7899 23.9223 21.5629 24.2113 21.5629 24.5723C21.5629 24.9333 21.7909 25.2223 22.1679 25.2223C22.5459 25.2223 22.7899 24.9503 22.7899 24.5723C22.7899 24.2113 22.5449 23.9223 22.1679 23.9223ZM28.0509 25.3723C28.0509 25.3893 28.0679 25.4003 28.0679 25.4333C28.0679 25.4503 28.0509 25.4613 28.0509 25.4943C28.0339 25.5113 28.0339 25.5223 28.0229 25.5383C28.0059 25.5553 27.9949 25.5663 27.9619 25.5663C27.9449 25.5833 27.9339 25.5833 27.9009 25.5833C27.8839 25.5833 27.8729 25.5833 27.8399 25.5663C27.8229 25.5663 27.8119 25.5493 27.7959 25.5383C27.7789 25.5213 27.7679 25.5103 27.7679 25.4943C27.7509 25.4663 27.7509 25.4503 27.7509 25.4333C27.7509 25.4053 27.7509 25.3893 27.7679 25.3723C27.7679 25.3443 27.7849 25.3283 27.7959 25.3113C27.8129 25.2943 27.8239 25.2943 27.8399 25.2833C27.8679 25.2663 27.8839 25.2663 27.9009 25.2663C27.9289 25.2663 27.9449 25.2663 27.9619 25.2833C27.9899 25.2993 28.0059 25.2993 28.0229 25.3113C28.0399 25.3233 28.0339 25.3443 28.0509 25.3723ZM27.9289 25.4503C27.9569 25.4503 27.9569 25.4333 27.9729 25.4333C27.9899 25.4163 27.9899 25.4053 27.9899 25.3893C27.9899 25.3733 27.9899 25.3613 27.9729 25.3453C27.9569 25.3453 27.9449 25.3283 27.9119 25.3283H27.8229V25.5223H27.8669V25.4443H27.8839L27.9449 25.5223H27.9889L27.9289 25.4503ZM32.0899 6.27833V25.8343C32.0896 26.5416 31.8085 27.2198 31.3084 27.7199C30.8083 28.22 30.1301 28.5011 29.4229 28.5013H2.75587C2.04862 28.5011 1.37041 28.22 0.870306 27.7199C0.370204 27.2198 0.0891322 26.5416 0.0888672 25.8343V6.27833C0.0891322 5.57108 0.370204 4.89287 0.870306 4.39277C1.37041 3.89266 2.04862 3.61159 2.75587 3.61133H29.4229C30.1301 3.61159 30.8083 3.89266 31.3084 4.39277C31.8085 4.89287 32.0896 5.57108 32.0899 6.27833ZM3.64587 14.0333C3.64587 18.2833 7.09587 21.7273 11.3399 21.7273C12.8513 21.723 14.3285 21.2771 15.5899 20.4443C11.5399 17.1503 11.5679 10.9333 15.5899 7.63833C14.3298 6.80296 12.8517 6.35677 11.3399 6.35533C7.09587 6.35033 3.64587 9.79933 3.64587 14.0333ZM16.0899 20.0783C20.0069 17.0223 19.9899 11.0673 16.0899 7.99533C12.1899 11.0673 12.1729 17.0283 16.0899 20.0783ZM8.18387 24.3173C8.18387 23.8343 7.86687 23.5173 7.36687 23.5003C7.11087 23.5003 6.83887 23.5783 6.65587 23.8613C6.52287 23.6333 6.29487 23.5003 5.97787 23.5003C5.86268 23.4986 5.7488 23.525 5.64615 23.5773C5.54349 23.6295 5.45517 23.7061 5.38887 23.8003V23.5563H4.93387V25.5953H5.38887C5.38887 24.5453 5.24987 23.9173 5.88887 23.9173C6.45587 23.9173 6.34487 24.4843 6.34487 25.5953H6.78387C6.78387 24.5783 6.64487 23.9173 7.28387 23.9173C7.85087 23.9173 7.73887 24.4733 7.73887 25.5953H8.19487V24.3173H8.18387ZM10.6789 23.5563H10.2399V23.8003C10.1622 23.7034 10.063 23.6258 9.9502 23.5738C9.8374 23.5217 9.71405 23.4966 9.58987 23.5003C9.01787 23.5003 8.57887 23.9563 8.57887 24.5723C8.57887 25.1943 9.01787 25.6443 9.58987 25.6443C9.87887 25.6443 10.0899 25.5383 10.2399 25.3443V25.6003H10.6789V23.5563ZM12.9289 24.9783C12.9289 24.1453 11.6569 24.5223 11.6569 24.1333C11.6569 23.8163 12.3179 23.8673 12.6849 24.0723L12.8679 23.7113C12.3459 23.3723 11.1899 23.3783 11.1899 24.1673C11.1899 24.9613 12.4619 24.6283 12.4619 25.0003C12.4619 25.3503 11.7119 25.3223 11.3119 25.0443L11.1179 25.3943C11.7399 25.8163 12.9289 25.7273 12.9289 24.9773V24.9783ZM14.8959 25.4943L14.7739 25.1163C14.5629 25.2323 14.0959 25.3603 14.0959 24.8883V23.9663H14.8239V23.5553H14.0959V22.9333H13.6399V23.5553H13.2179V23.9613H13.6399V24.8893C13.6399 25.8673 14.6009 25.6893 14.8959 25.4943ZM15.6339 24.7503H17.1619C17.1619 23.8503 16.7509 23.4943 16.1949 23.4943C15.6059 23.4943 15.1839 23.9333 15.1839 24.5663C15.1839 25.7053 16.4399 25.8943 17.0619 25.3553L16.8509 25.0223C16.4179 25.3783 15.7619 25.3443 15.6339 24.7503ZM18.9179 23.5563C18.6629 23.4453 18.2739 23.4563 18.0739 23.8003V23.5563H17.6179V25.5953H18.0739V24.4453C18.0739 23.8003 18.6019 23.8843 18.7849 23.9783L18.9179 23.5563ZM19.5069 24.5723C19.5069 23.9383 20.1519 23.7333 20.6569 24.1053L20.8679 23.7443C20.2229 23.2393 19.0509 23.5163 19.0509 24.5773C19.0509 25.6773 20.2949 25.8993 20.8679 25.4103L20.6569 25.0493C20.1459 25.4103 19.5069 25.1943 19.5069 24.5713V24.5723ZM23.2119 23.5563H22.7559V23.8003C22.2949 23.1893 21.0949 23.5343 21.0949 24.5723C21.0949 25.6393 22.3389 25.9443 22.7559 25.3443V25.6003H23.2119V23.5563ZM25.0839 23.5563C24.9509 23.4893 24.4729 23.3953 24.2399 23.8003V23.5563H23.8009V25.5953H24.2399V24.4453C24.2399 23.8343 24.7399 23.8733 24.9509 23.9783L25.0839 23.5563ZM27.3229 22.7283H26.8839V23.8003C26.4279 23.1953 25.2229 23.5173 25.2229 24.5723C25.2229 25.6503 26.4729 25.9383 26.8839 25.3443V25.6003H27.3229V22.7283ZM27.7459 18.5563V18.8123H27.7899V18.5563H27.8949V18.5123H27.6389V18.5563H27.7459ZM28.1119 25.4333C28.1119 25.4053 28.1119 25.3723 28.0959 25.3443C28.0789 25.3273 28.0679 25.3003 28.0519 25.2833C28.0359 25.2663 28.0079 25.2553 27.9909 25.2393C27.9629 25.2393 27.9299 25.2223 27.9019 25.2223C27.8849 25.2223 27.8579 25.2393 27.8239 25.2393C27.8019 25.2516 27.7815 25.2664 27.7629 25.2833C27.7349 25.2993 27.7189 25.3273 27.7189 25.3443C27.7019 25.3723 27.7019 25.4053 27.7019 25.4333C27.7019 25.4503 27.7019 25.4773 27.7189 25.5113C27.7189 25.5283 27.7359 25.5553 27.7629 25.5723C27.7797 25.5913 27.8006 25.6063 27.8239 25.6163C27.8519 25.6323 27.8849 25.6323 27.9019 25.6323C27.9299 25.6323 27.9629 25.6323 27.9909 25.6163C28.0079 25.5993 28.0349 25.5883 28.0519 25.5723C28.0689 25.5563 28.0799 25.5283 28.0959 25.5113C28.1119 25.4783 28.1119 25.4503 28.1119 25.4333ZM28.2899 18.5063H28.2119L28.1229 18.7003L28.0339 18.5063H27.9559V18.8063H27.9999V18.5783L28.0889 18.7723H28.1499L28.2279 18.5783V18.8063H28.2889L28.2899 18.5063ZM28.5339 14.0333C28.5339 9.79933 25.0839 6.35033 20.8399 6.35033C19.3284 6.35412 17.851 6.80011 16.5899 7.63333C20.5959 10.9283 20.6569 17.1613 16.5899 20.4393C17.8507 21.2732 19.3282 21.7193 20.8399 21.7223C25.0839 21.7283 28.5339 18.2833 28.5339 14.0333Z" fill="white"/>
</g>
<defs>
<clipPath id="clip0_1633:14785">
<rect width="32" height="32" fill="white" transform="translate(0.0898438)"/>
</clipPath>
</defs>
</svg>
