<svg width="33" height="32" viewBox="0 0 33 32" fill="none" xmlns="http://www.w3.org/2000/svg">
<g clip-path="url(#clip0_1633:14779)">
<path d="M10.4399 16.1217C10.4399 16.7997 9.90087 17.3157 9.21787 17.3157C8.70687 17.3157 8.32887 17.0267 8.32887 16.4827C8.32887 15.8047 8.85687 15.2607 9.53487 15.2607C10.0519 15.2607 10.4409 15.5777 10.4409 16.1217H10.4399ZM4.56187 13.4277H4.30087C4.21787 13.4277 4.13387 13.4837 4.12287 13.5777L3.88387 15.0617L4.33987 15.0447C4.95087 15.0447 5.42287 14.9617 5.53387 14.2557C5.66187 13.5107 5.18987 13.4277 4.56187 13.4277ZM20.3399 13.4277H20.0899C19.9899 13.4277 19.9229 13.4837 19.9119 13.5777L19.6789 15.0617L20.1229 15.0447C20.8449 15.0447 21.3449 14.8777 21.3449 14.0447C21.3389 13.4557 20.8119 13.4277 20.3389 13.4277H20.3399ZM32.0899 6.22169V25.7777C32.0896 26.4849 31.8085 27.1631 31.3084 27.6632C30.8083 28.1634 30.1301 28.4444 29.4229 28.4447H2.75587C2.04862 28.4444 1.37041 28.1634 0.870306 27.6632C0.370204 27.1631 0.0891322 26.4849 0.0888672 25.7777V6.22169C0.0891322 5.51444 0.370204 4.83623 0.870306 4.33613C1.37041 3.83602 2.04862 3.55495 2.75587 3.55469H29.4229C30.1301 3.55495 30.8083 3.83602 31.3084 4.33613C31.8085 4.83623 32.0896 5.51444 32.0899 6.22169ZM7.21787 13.7437C7.21787 12.5767 6.31787 12.1877 5.28987 12.1877H3.06787C2.99609 12.1882 2.92701 12.2151 2.87373 12.2632C2.82046 12.3113 2.7867 12.3773 2.77887 12.4487L1.86787 18.1207C1.85087 18.2317 1.93487 18.3427 2.04587 18.3427H3.10187C3.25187 18.3427 3.39087 18.1817 3.40787 18.0257L3.65787 16.5477C3.71387 16.1477 4.39087 16.2867 4.65787 16.2867C6.24687 16.2867 7.21887 15.3427 7.21887 13.7427L7.21787 13.7437ZM11.8959 14.2327H10.8399C10.6289 14.2327 10.6179 14.5387 10.6069 14.6887C10.2849 14.2167 9.81787 14.1327 9.28987 14.1327C7.92887 14.1327 6.88987 15.3267 6.88987 16.6437C6.88987 17.7267 7.56787 18.4327 8.65087 18.4327C9.15087 18.4327 9.77287 18.1607 10.1229 17.7717C10.0905 17.8841 10.0717 17.9999 10.0669 18.1167C10.0669 18.2447 10.1229 18.3387 10.2449 18.3387H11.2009C11.3509 18.3387 11.4789 18.1777 11.5069 18.0217L12.0739 14.4497C12.0909 14.3437 12.0069 14.2327 11.8959 14.2327ZM14.1459 19.6717L17.6849 14.5267C17.7129 14.4987 17.7129 14.4707 17.7129 14.4327C17.7129 14.3387 17.6299 14.2387 17.5349 14.2387H16.4679C16.4182 14.2406 16.3697 14.2542 16.3263 14.2784C16.2829 14.3025 16.2457 14.3365 16.2179 14.3777L14.7459 16.5447L14.1349 14.4617C14.1119 14.3983 14.0705 14.3433 14.0159 14.3037C13.9614 14.2642 13.8962 14.2419 13.8289 14.2397H12.7899C12.6949 14.2397 12.6119 14.3397 12.6119 14.4337C12.6119 14.5007 13.6949 17.5897 13.7899 17.8837C13.6399 18.0947 12.6509 19.4727 12.6509 19.6397C12.6509 19.7397 12.7339 19.8177 12.8289 19.8177H13.8959C13.9458 19.8144 13.9943 19.7997 14.0376 19.7747C14.0809 19.7498 14.118 19.7152 14.1459 19.6737V19.6717ZM22.9959 13.7437C22.9959 12.5767 22.0959 12.1877 21.0679 12.1877H18.8619C18.788 12.1871 18.7164 12.2132 18.6602 12.2611C18.604 12.309 18.5669 12.3756 18.5559 12.4487L17.6559 18.1157C17.6449 18.2267 17.7279 18.3377 17.8339 18.3377H18.9729C19.0839 18.3377 19.1669 18.2547 19.1949 18.1597L19.4449 16.5487C19.5009 16.1487 20.1789 16.2877 20.4449 16.2877C22.0229 16.2877 22.9949 15.3437 22.9949 13.7437H22.9959ZM27.6729 14.2327H26.6169C26.4059 14.2327 26.3949 14.5387 26.3779 14.6887C26.0719 14.2167 25.5999 14.1327 25.0609 14.1327C23.6999 14.1327 22.6609 15.3267 22.6609 16.6437C22.6609 17.7267 23.3389 18.4327 24.4219 18.4327C24.9389 18.4327 25.5609 18.1607 25.8939 17.7717C25.8769 17.8547 25.8379 18.0327 25.8379 18.1167C25.8379 18.2447 25.8939 18.3387 26.0159 18.3387H26.9769C27.1269 18.3387 27.2549 18.1777 27.2829 18.0217L27.8499 14.4497C27.8669 14.3437 27.7829 14.2327 27.6719 14.2327H27.6729ZM30.3119 12.3827C30.3119 12.2717 30.2289 12.1887 30.1339 12.1887H29.1059C29.0229 12.1887 28.9389 12.2557 28.9279 12.3387L28.0279 18.1167L28.0119 18.1447C28.0119 18.2447 28.0949 18.3387 28.2059 18.3387H29.1229C29.2619 18.3387 29.4009 18.1777 29.4119 18.0217L30.3119 12.3997V12.3827ZM25.3119 15.2607C24.6339 15.2607 24.1059 15.7997 24.1059 16.4827C24.1059 17.0217 24.4949 17.3157 25.0059 17.3157C25.6729 17.3157 26.2119 16.8047 26.2119 16.1217C26.2179 15.5777 25.8289 15.2607 25.3119 15.2607Z" fill="white"/>
</g>
<defs>
<clipPath id="clip0_1633:14779">
<rect width="32" height="32" fill="white" transform="translate(0.0898438)"/>
</clipPath>
</defs>
</svg>
