<svg width="48" height="48" viewBox="0 0 48 48" fill="none" xmlns="http://www.w3.org/2000/svg">
<path d="M20.0003 10C13.0723 10 8.00031 14.756 8.00031 20C8.00031 21.76 8.54631 23.422 9.53031 24.88C9.69842 25.1288 9.80837 25.4122 9.852 25.7093C9.89562 26.0063 9.8718 26.3094 9.78231 26.596L8.87231 29.514L13.4623 28.778C13.8343 28.7182 14.2156 28.7646 14.5623 28.912C16.2833 29.6369 18.1329 30.0069 20.0003 30C26.9283 30 32.0003 25.244 32.0003 20C32.0003 14.756 26.9283 10 20.0003 10ZM4.00031 20C4.00031 11.99 11.4643 6 20.0003 6C28.5363 6 36.0003 11.99 36.0003 20C36.0003 28.01 28.5363 34 20.0003 34C17.7938 34.0056 15.6052 33.6042 13.5443 32.816L6.31631 33.976C5.97988 34.0301 5.63523 33.9973 5.31504 33.8807C4.99485 33.7642 4.70974 33.5678 4.48675 33.3102C4.26377 33.0525 4.11031 32.7422 4.04093 32.4086C3.97154 32.075 3.98854 31.7292 4.09031 31.404L5.69031 26.278C4.58617 24.3697 4.00334 22.2047 4.00031 20V20Z" fill="#7E1A44"/>
<path d="M32.1482 16.4005C32.0489 16.6438 31.9986 16.9043 32 17.1671C32.0015 17.4299 32.0547 17.6898 32.1567 17.932C32.2587 18.1742 32.4074 18.394 32.5943 18.5787C32.7813 18.7634 33.0028 18.9094 33.2462 19.0085C37.3862 20.6945 40.0002 24.1905 40.0002 28.0005C40.0002 29.7605 39.4542 31.4225 38.4702 32.8805C38.3021 33.1292 38.1921 33.4127 38.1485 33.7097C38.1049 34.0068 38.1287 34.3099 38.2182 34.5965L39.1282 37.5145L34.5382 36.7785C34.1662 36.7186 33.7849 36.7651 33.4382 36.9125C31.7172 37.6373 29.8676 38.0074 28.0002 38.0005C22.5922 38.0005 18.2142 35.0425 16.6462 31.2385C16.4441 30.7478 16.0554 30.3575 15.5655 30.1535C15.0757 29.9495 14.5248 29.9484 14.0342 30.1505C13.5435 30.3526 13.1533 30.7413 12.9492 31.2311C12.7452 31.721 12.7441 32.2718 12.9462 32.7625C15.2242 38.2805 21.2202 42.0005 28.0002 42.0005C30.2067 42.0062 32.3953 41.6048 34.4562 40.8165L41.6842 41.9765C42.0206 42.0305 42.3653 41.9977 42.6855 41.8812C43.0057 41.7647 43.2908 41.5683 43.5137 41.3106C43.7367 41.053 43.8902 40.7426 43.9596 40.409C44.029 40.0754 44.012 39.7297 43.9102 39.4045L42.3102 34.2785C43.4143 32.3702 43.9972 30.2051 44.0002 28.0005C44.0002 22.2365 40.0742 17.4685 34.7542 15.3025C34.5109 15.2036 34.2504 15.1536 33.9878 15.1553C33.7251 15.1571 33.4653 15.2105 33.2233 15.3127C32.9814 15.4148 32.7619 15.5637 32.5774 15.7506C32.3929 15.9376 32.2471 16.1591 32.1482 16.4025V16.4005Z" fill="#7E1A44"/>
</svg>
